<svg version="1.1"
    xmlns="http://www.w3.org/2000/svg" width="32" height="32" viewBox="0 0 32 32">
    <title>internet</title>
    <path style="fill: #546e7a" d="M16 2.667c-7.358 0-13.333 5.976-13.333 13.333s5.976 13.333 13.333 13.333 13.333-5.976 13.333-13.333-5.976-13.333-13.333-13.333zM27.014 12.368c-1.125 1.312-2.46 2.554-3.866 3.585-1.219-4.382-3.538-8.342-6.585-11.529 4.898 0.234 8.998 3.515 10.451 7.944zM23.311 24.998c-1.828 1.5-4.148 2.46-6.678 2.601-1.875-1.875-3.491-4.007-4.71-6.35 3.96-0.469 7.639-1.875 10.779-4.007 0.422 1.875 0.656 3.866 0.656 5.882 0.047 0.609 0 1.265-0.047 1.875zM9.040 6.767c1.828-1.359 4.054-2.203 6.491-2.296 3.304 3.257 5.788 7.405 7.006 12.021-3.187 2.203-6.913 3.609-10.967 4.077-1.687-3.538-2.648-7.405-2.648-11.482 0.024-0.82 0.070-1.57 0.117-2.32zM8.22 7.424c-0.047 0.562-0.047 1.078-0.047 1.64 0 4.101 0.937 8.014 2.601 11.482-0.562 0.047-1.125 0.047-1.687 0.047-1.312 0-2.601-0.094-3.82-0.328-0.516-1.312-0.844-2.789-0.844-4.335 0-3.328 1.453-6.374 3.796-8.506zM5.596 21.132c1.125 0.141 2.25 0.234 3.445 0.234 0.703 0 1.359-0.047 2.062-0.094 1.172 2.296 2.695 4.429 4.476 6.304-4.335-0.141-8.155-2.718-9.982-6.444zM24.108 24.295c0-0.422 0.047-0.797 0.047-1.219 0-2.156-0.281-4.288-0.75-6.35 1.406-1.031 2.742-2.203 3.913-3.491 0.234 0.89 0.328 1.828 0.328 2.789-0.070 3.234-1.383 6.186-3.538 8.272z"></path>
</svg>
