<?xml version="1.0" encoding="utf-8"?>
<!-- Generator: Adobe Illustrator 22.0.1, SVG Export Plug-In . SVG Version: 6.00 Build 0)  -->
<svg version="1.1" id="Layer_1" xmlns="http://www.w3.org/2000/svg" xmlns:xlink="http://www.w3.org/1999/xlink" x="0px" y="0px"
	 viewBox="0 0 1200 1200" style="enable-background:new 0 0 1200 1200;" xml:space="preserve">
<style type="text/css">
	.st0{fill:#4CAF50;}
</style>
<g>
	<path class="st0" d="M550.7,83.8c0-8.2,6.7-15,15-15h314c8.2,0,15,6.7,15,15v403.7h59.8V83.8c0-41.3-33.5-74.8-74.8-74.8h-314
		c-41.3,0-74.8,33.5-74.8,74.8V308h59.8V83.8z"/>
	<polygon class="st0" points="894.6,965.8 894.6,1130.3 736.7,1130.3 716.9,1142.5 693.4,1130.8 595.6,1130.3 550.7,1130.3 
		490.9,1130.3 490.9,1190.1 954.4,1190.1 954.4,965.8 	"/>
</g>
<g>
	<path class="st0" d="M319,330.4c0-8.2,6.7-15,15-15h306.5c8.2,0,15,6.7,15,15v314h59.8v-314c0-41.3-33.5-74.8-74.8-74.8H334
		c-41.3,0-74.8,33.5-74.8,74.8v209.3H319V330.4z"/>
	<polygon class="st0" points="363.9,1130.3 319,1130.3 259.2,1130.3 259.2,1190.1 715.2,1190.1 715.2,1130.3 	"/>
</g>
<path class="st0" d="M408.7,539.7c8.2,0,15,6.7,15,15v575.6H79.8V554.7c0-8.2,6.7-15,15-15H408.7 M408.7,479.9h-314
	c-41.3,0-74.8,33.5-74.8,74.8v635.4h463.5V554.7C483.5,513.4,450,479.9,408.7,479.9L408.7,479.9z"/>
<path class="st0" d="M1008,494c-0.8,5.1-1.3,10.4-1.3,15.8c0,53.6,43.6,97.2,97.2,97.2c5.6,0,11-0.5,16.3-1.4v123.8
	c0,5.1-2.4,8.6-4.4,10.6l-41.5,43l-343.6,343.6c-3.6,3.6-7.7,4.4-10.6,4.4c-2.8,0-7-0.8-10.6-4.4l-222-222
	c-3.6-3.6-4.4-7.7-4.4-10.6c0-2.8,0.8-7,4.4-10.6L831.1,540l43-41.5c2-2,5.5-4.4,10.6-4.4H1008 M1105.2,434.2H884.8
	c-20.6,0-39.3,8.4-52.9,21.9L445.3,841.2c-29.2,29.2-29.2,76.5,0,105.7l222,222c14.6,14.6,33.7,21.9,52.9,21.9s38.3-7.3,52.9-21.9
	l385.1-386.6c13.5-13.5,21.9-32.2,21.9-52.9V509C1180,467.7,1146.5,434.2,1105.2,434.2L1105.2,434.2z M1103.9,547.2
	c-20.6,0-37.4-16.7-37.4-37.4s16.7-37.4,37.4-37.4s37.4,16.7,37.4,37.4S1124.5,547.2,1103.9,547.2L1103.9,547.2z"/>
</svg>
