
<svg width="600" height="676" viewBox="0 0 600 676" fill="none" xmlns="http://www.w3.org/2000/svg">
<path d="M404.687 135.365C450 117.546 495.312 80.3437 504.687 76.5922C514.062 72.8408 474.687 49.0816 449.062 54.7087C423.437 60.3359 426.562 94.099 426.562 101.602C426.562 101.602 420.312 91.598 406.562 97.2252C392.812 102.852 389.062 124.111 389.062 134.115C389.062 144.118 397.506 138.191 404.687 135.365Z" fill="#F3E7D9"/>
<path d="M71.8812 335.874C71.8812 335.874 159.044 293.726 198.994 270.473C238.944 247.221 245.481 221.061 248.387 207.255C251.294 193.45 249.112 181.095 214.25 198.533C214.25 198.533 222.237 184.002 209.894 168.74C197.544 153.478 168.487 168.74 154.687 187.635C140.887 206.53 140.162 210.163 140.162 210.163C140.162 210.163 129.994 193.45 114.737 198.533C99.4812 203.616 95.1249 244.313 106.75 256.668C106.75 256.668 93.6749 253.761 76.2437 271.199C58.8124 288.637 47.1874 303.174 52.2749 309.714C57.3624 316.254 71.1624 316.254 87.1437 306.081C87.1437 306.081 53.7312 336.599 53.7312 340.963C53.7249 345.321 71.8812 335.874 71.8812 335.874Z" fill="#F3E7D9"/>
<path d="M434.6 388.582C441.325 380.572 453.475 366.067 453.475 366.067C453.475 366.067 471.813 383.749 477.969 389.651C484.513 395.922 497.363 405.401 491.413 406.113C485.425 406.826 478.513 405.588 476.65 405.051C476.65 405.051 475.844 423.414 451.156 419.031C427.381 414.804 427.281 397.298 434.6 388.582Z" fill="#1D2538"/>
<path d="M477.207 401.237C477.207 401.237 521.731 443.322 520.375 447.305C518.975 451.419 487.088 458.94 466.844 435.25C449.888 415.411 448.6 393.371 477.207 401.237Z" fill="#1D2538"/>
<path d="M505.632 449.862C508.032 451.231 557.057 501.175 556.657 508.766C556.232 516.731 531.388 527.711 509.094 511.904C488.794 497.518 473.638 431.63 505.632 449.862Z" fill="#1D2538"/>
<path d="M175.944 389.325L113.9 437.088C113.9 437.088 119.132 441.233 133.575 437.957L213.944 456.226L175.944 389.325Z" fill="#1D2538"/>
<path d="M137.463 430.585L89.1626 471.926C89.1626 471.926 110.613 489.321 131.625 470.701C137.631 465.38 210.569 470.938 210.569 470.938L178.194 427.221C178.194 427.221 147.475 428.372 137.463 430.585Z" fill="#1D2538"/>
<path d="M105.125 474.058C102.938 474.977 83.8064 488.507 62.2627 506.865C62.2627 506.865 87.6064 526.285 104.863 518.932C122.131 511.573 136.706 460.759 105.125 474.058Z" fill="#1D2538"/>
<path d="M252.644 338.5L212.45 385.249C212.45 385.249 217.325 388.788 228.044 385.855L294.944 395.941L252.644 338.5Z" fill="#1D2538"/>
<path d="M234.969 377.446L200.025 410.409C200.025 410.409 248.663 480.842 261.663 464.623C265.382 459.99 295.05 408.658 295.05 408.658L261.5 371.187C261.488 371.181 242.4 375.464 234.969 377.446Z" fill="#1D2538"/>
<path d="M212.944 412.128C211.4 412.941 198.925 424.746 185.457 440.746C185.457 440.746 208.963 457.308 221.119 450.837C233.282 444.366 235.219 400.424 212.944 412.128Z" fill="#1D2538"/>
<path d="M266.875 254.474C266.875 254.474 254.375 184.446 316.25 169.441C378.125 154.435 398.425 202.222 401.875 212.582C408.75 233.215 408.75 245.72 408.75 245.72L266.875 254.474Z" fill="#C94039"/>
<path d="M269.087 247.096C269.087 247.096 288.006 219.76 333.375 208.756C378.744 197.752 386.831 208.093 388.762 210.238C393.212 215.183 393.212 232.746 393.212 232.746C393.212 232.746 360.469 225.894 327.194 229.533C284.169 234.234 269.087 247.096 269.087 247.096Z" fill="#EE5D4F"/>
<path d="M408.906 246.12C409.525 255.493 389.044 263.052 335 266.141C280.956 269.235 266.875 259.475 266.875 254.705C266.256 245.332 298.231 235.741 328.125 232.596C363.75 228.839 408.288 236.748 408.906 246.12Z" fill="#1D2538"/>
<path d="M399.131 238.767L398.694 238.605C398.7 238.505 400.113 228.982 392.281 204.861C384.306 180.307 356.925 168.865 356.656 168.747L357.769 169.047L358.419 169.234C358.687 169.353 384.781 181.258 392.631 204.879C400.419 228.313 399.138 238.667 399.131 238.767Z" fill="#1D2538"/>
<path d="M315.906 219.56C329.472 219.56 340.469 208.559 340.469 194.988C340.469 181.417 329.472 170.416 315.906 170.416C302.341 170.416 291.344 181.417 291.344 194.988C291.344 208.559 302.341 219.56 315.906 219.56Z" fill="#EE5D4F"/>
<path d="M324.063 217.584C338.733 217.584 350.625 205.687 350.625 191.011C350.625 176.336 338.733 164.439 324.063 164.439C309.392 164.439 297.5 176.336 297.5 191.011C297.5 205.687 309.392 217.584 324.063 217.584Z" fill="#34283A"/>
<path d="M320.937 214.458C335.608 214.458 347.5 202.561 347.5 187.885C347.5 173.209 335.608 161.312 320.937 161.312C306.267 161.312 294.375 173.209 294.375 187.885C294.375 202.561 306.267 214.458 320.937 214.458Z" fill="#1689CB"/>
<path d="M319.375 208.831C331.801 208.831 341.875 198.753 341.875 186.322C341.875 173.891 331.801 163.813 319.375 163.813C306.949 163.813 296.875 173.891 296.875 186.322C296.875 198.753 306.949 208.831 319.375 208.831Z" fill="#29ABE2"/>
<path d="M318.75 205.705C329.796 205.705 338.75 196.747 338.75 185.697C338.75 174.647 329.796 165.689 318.75 165.689C307.704 165.689 298.75 174.647 298.75 185.697C298.75 196.747 307.704 205.705 318.75 205.705Z" fill="#665070"/>
<path d="M320.844 204.817C330.336 204.817 338.031 197.119 338.031 187.623C338.031 178.127 330.336 170.428 320.844 170.428C311.351 170.428 303.656 178.127 303.656 187.623C303.656 197.119 311.351 204.817 320.844 204.817Z" fill="#FEED7F"/>
<path d="M334.256 195.663C327.825 206.248 315.256 201.822 315.256 201.822L334.856 179.745C334.856 179.745 340.688 185.078 334.256 195.663Z" fill="#F7BC4B"/>
<path d="M329.912 153.841L318.043 32.1499" stroke="#F7BC4B" stroke-miterlimit="10"/>
<path d="M273.537 168.684L187.494 60.3484" stroke="#F7BC4B" stroke-miterlimit="10"/>
<path d="M307.656 152.359L275.019 82.6069" stroke="#F7BC4B" stroke-miterlimit="10"/>
<path d="M245.35 150.877C245.35 150.877 261.668 104.872 318.043 107.836" stroke="#F7BC4B" stroke-miterlimit="10"/>
<path d="M149.743 140.817L156.418 169.015L151.231 163.82L146.037 140.073L149.743 140.817Z" fill="#3E4C6F"/>
<path d="M159.637 143.124L166.312 171.323L161.118 166.127L155.924 142.386L159.637 143.124Z" fill="#3E4C6F"/>
<path d="M158.562 141.974L152.631 162.751L157.081 169.428L163.756 150.133L162.275 174.624L173.4 172.398L167.468 142.712L158.562 141.974Z" fill="#1D2538"/>
<path d="M154.706 258.844C146.362 253.029 143.787 190.918 144.3 173.267C144.793 156.423 144.6 163.026 144.6 163.026C144.6 163.026 143.737 159.393 151.225 159.393C158.712 159.393 158.706 159.606 159.65 161.957C160.6 164.32 161.225 168.228 162.193 169.753C163.168 171.291 164.881 171.842 166.437 171.804C167.993 171.767 165.7 169.097 170.35 169.097C175 169.097 176.7 168.221 178.006 173.717C179.337 179.288 189.075 226.875 189.212 231.765C189.356 236.717 181.475 238.192 175.062 239.587C170.875 240.499 163.987 249.947 163 252.667C162.025 255.38 158.256 261.32 154.706 258.844Z" fill="#1D2538"/>
<path d="M171.175 234.729C171.175 234.729 172.412 253.029 183.537 262.677C194.662 272.324 204.431 275.788 204.431 275.788" stroke="#4B3355" stroke-width="3" stroke-miterlimit="10"/>
<path d="M168.95 234.729C168.95 234.729 169.693 254.761 180.818 264.409C191.943 274.056 202.206 275.788 202.206 275.788" stroke="#665070" stroke-width="3" stroke-miterlimit="10"/>
<path d="M180.212 224.675C180.212 224.675 183.237 242.7 194.412 252.291C205.587 261.876 216.419 267.872 216.419 267.872" stroke="#665070" stroke-width="3" stroke-miterlimit="10"/>
<path d="M177 224.918C177 224.918 180.025 242.944 191.2 252.535C202.375 262.12 213.206 268.116 213.206 268.116" stroke="#4B3355" stroke-width="3" stroke-miterlimit="10"/>
<path d="M171.562 228.138C171.562 228.138 174.587 246.164 185.762 255.755C196.937 265.34 207.768 271.336 207.768 271.336" stroke="#4B3355" stroke-width="3" stroke-miterlimit="10"/>
<path d="M164.294 152.859C164.294 152.859 175.144 157.942 178.019 156.254C180.894 154.566 183.781 151.584 185.881 147.257C187.981 142.93 189.987 140.211 188.175 138.435C186.362 136.665 184.4 134.852 184.4 134.852C184.4 134.852 186.294 136.322 187.987 134.165C189.681 132.007 195.081 121.885 194.156 119.209C193.231 116.533 191.131 112.737 190.306 111.549C189.481 110.362 188.787 111.156 188.787 111.156C188.787 111.156 188.819 107.917 187.312 106.222C185.806 104.528 182.994 103.471 182.994 103.471C182.994 103.471 183.094 101.22 181.356 99.7949C179.619 98.3694 178.875 98.4194 175.625 97.4878C172.375 96.5562 170.281 96.4999 170.281 96.4999C170.281 96.4999 167.787 94.5492 166.419 94.1928C165.05 93.8364 158.412 92.5109 155.462 94.5054C152.506 96.4937 147.144 103.384 144.987 109.799C142.831 116.214 140.225 133.077 142.975 139.967C145.725 146.863 157.331 151.527 164.294 152.859Z" fill="#992C29"/>
<path d="M173.344 143.543C173.344 143.543 182.206 151.865 184.019 148.37C185.531 145.444 187.4 141.886 187.4 141.886C187.4 141.886 187.969 140.311 187.656 139.104C187.344 137.897 185.6 136.784 185.6 136.784C186.987 135.021 192.169 127.762 191.406 125.567C190.65 123.373 188.931 120.265 188.256 119.296C187.581 118.327 187.012 118.971 187.012 118.971C187.012 118.971 187.037 116.32 185.806 114.932C184.575 113.544 182.269 112.681 182.269 112.681C182.269 112.681 182.35 110.843 180.925 109.674C179.5 108.504 178.894 108.548 176.231 107.785C173.569 107.023 171.856 106.979 171.856 106.979C171.856 106.979 169.812 105.385 168.694 105.091C167.575 104.797 162.137 103.715 159.719 105.347C157.3 106.979 152.906 112.619 151.137 117.877C149.369 123.135 147.419 129.875 151.669 134.214C154.95 137.572 163.475 136.215 173.344 143.543Z" fill="#C94039"/>
<path d="M168.019 95.0618C168.019 95.0618 171.988 98.5319 172.05 100.62C172.113 102.708 168.775 114.138 167.688 117.389C166.6 120.64 166.194 121.259 164.069 121.928C161.944 122.597 158.381 121.785 158.381 121.785C158.381 121.785 159.569 122.823 162.456 122.966C165.344 123.11 166.988 121.466 167.706 121.047C168.425 120.628 169.319 117.202 170.175 113.894C171.038 110.587 173.431 102.321 173.788 100.952C174.144 99.5823 172.544 96.85 168.019 95.0618Z" fill="#121721"/>
<path d="M182.863 103.359C182.863 103.359 182.55 107.986 179.925 117.127C179.069 120.109 178.344 124.592 173.975 123.779C171.2 122.916 166.263 121.285 166.263 121.285L166.038 121.835C166.038 121.835 169.738 123.529 172.213 124.298C174.694 125.067 176.831 125.261 178.163 123.898C179.494 122.535 181.956 114.169 182.681 109.974C183.406 105.772 184.525 104.766 182.863 103.359Z" fill="#121721"/>
<path d="M188.794 111.149C188.794 111.149 186.019 121.797 185.069 124.961C184.125 128.125 182.056 128.887 178.781 130.713L179.806 130.819C179.806 130.819 184.875 128.65 185.65 125.686C186.425 122.723 189.519 110.924 189.519 110.924C189.519 110.924 189.388 110.868 189.144 110.924C188.906 110.981 188.794 111.149 188.794 111.149Z" fill="#121721"/>
<path d="M186.012 136.778C186.012 136.778 179.725 131.001 176.719 128.994C173.712 126.987 170.862 129.05 170.012 130.901C169.169 132.751 166.669 134.84 168.619 136.691C170.562 138.541 174.7 140.342 176.8 142.061C176.8 142.061 176.612 142.205 176.044 143.656C175.475 145.106 174.569 145.4 174.569 145.4L175.956 142.068C175.956 142.068 167.35 137.397 167.194 135.653C167.037 133.908 169.212 130.701 170.462 128.712C171.712 126.724 174.225 126.893 177.519 128.725C180.812 130.551 186.012 136.778 186.012 136.778Z" fill="#121721"/>
<path d="M180.819 276.157C191.606 276.157 200.35 267.409 200.35 256.618C200.35 245.827 191.606 237.079 180.819 237.079C170.032 237.079 161.288 245.827 161.288 256.618C161.288 267.409 170.032 276.157 180.819 276.157Z" fill="#992C29"/>
<path d="M176.863 265.272C180.822 265.272 184.031 262.061 184.031 258.1C184.031 254.139 180.822 250.928 176.863 250.928C172.903 250.928 169.694 254.139 169.694 258.1C169.694 262.061 172.903 265.272 176.863 265.272Z" fill="#4B3355"/>
<path d="M163.756 232.997C163.756 232.997 164.993 251.297 176.118 260.945C187.243 270.592 197.012 274.056 197.012 274.056" stroke="#856792" stroke-width="3" stroke-miterlimit="10"/>
<path d="M158.318 232.009C158.318 232.009 159.556 250.309 170.681 259.957C181.806 269.604 191.575 273.068 191.575 273.068" stroke="#BB83C3" stroke-width="3" stroke-miterlimit="10"/>
<path d="M160.05 236.829C160.05 236.829 162.525 260.945 173.65 270.592C184.775 280.24 194.544 283.704 194.544 283.704" stroke="#665070" stroke-width="3" stroke-miterlimit="10"/>
<path d="M268.425 283.91C262.75 278.639 265.962 279.715 237.569 265.934C220.206 257.506 207.219 253.154 201.3 251.372C199.094 250.71 195.25 251.847 194.731 254.799C193.556 261.439 192.519 265.547 190.612 269.092C188.737 272.568 187.031 273.887 184.087 272.33C181.256 270.83 177.65 266.785 176.587 270.855C175.544 274.875 175.369 284.329 178.869 286.661C186.575 291.807 231.4 321.7 250.944 326.464C273.225 331.897 274.275 289.349 268.425 283.91Z" fill="#C94039"/>
<path d="M245.956 287.368C241.9 283.76 247.7 285.029 227.162 275.375C214.431 269.392 204.831 266.216 200.431 264.903C198.787 264.409 195.912 265.146 195.525 267.178C194.644 271.768 193.869 274.613 192.431 277.057C191.019 279.464 189.731 280.371 187.506 279.252C185.362 278.176 182.631 275.307 181.819 278.145C181.012 280.959 180.869 287.599 183.525 289.262C189.375 292.92 222.962 313.503 237.206 317.092C244.862 319.036 250.125 291.075 245.956 287.368Z" fill="#EE5D4F"/>
<path d="M176.094 278.964L258.081 322.425" stroke="#1D2538" stroke-width="0.5" stroke-miterlimit="10"/>
<path d="M272.762 277.851C272.762 277.851 259.819 271.443 258.006 276.101C257 287.83 250.581 310.483 244.619 325.995C246.344 328.265 254.806 334.88 261.712 332.622C268.944 330.265 272.762 277.851 272.762 277.851Z" fill="#F7BC4B"/>
<path d="M258.837 308.032C256.312 306.444 255.025 303.455 255.569 300.516C257.306 291.088 259.481 272.324 258.006 276.107C257 287.836 250.581 310.489 244.619 326.001C246.344 328.271 254.806 334.886 261.712 332.629C265.45 331.409 267.769 309.676 267.769 309.676C263.362 309.539 260.937 309.351 258.837 308.032Z" fill="#FEED7F"/>
<path d="M153.137 257.762C143.6 251.279 140.037 183.79 141.725 166.715C143.262 151.152 142.668 157.167 142.668 157.167C142.668 157.167 141.987 153.841 149.781 153.841C157.525 153.841 157.512 154.035 158.393 156.167C159.287 158.324 159.781 161.919 160.737 163.332C161.7 164.758 163.468 165.258 165.093 165.22C166.712 165.176 164.412 162.713 169.231 162.694C174.031 162.675 175.793 161.869 177.056 166.94C178.356 172.16 187.375 217.484 189.231 231.102C186.45 230.039 180.137 231.046 172.05 234.847C163.831 238.711 158.462 244.588 156.937 249.847C155.381 255.186 157.212 260.532 153.137 257.762Z" fill="#C94039"/>
<path d="M181.312 187.729L179.419 177.75C179.419 177.75 158.65 171.485 141.175 180.057L141.506 190.611C141.506 190.618 162.194 180.808 181.312 187.729Z" fill="#F7BC4B"/>
<path d="M141.75 195.52L141.625 192.056C141.625 192.056 152.637 187.96 161.775 187.235C172.656 186.372 181.8 189.83 181.8 189.83L182.419 193.419C182.419 193.419 174.706 189.423 161.969 190.324C156.187 190.736 149.362 192.543 141.75 195.52Z" fill="#F7BC4B"/>
<path d="M151.731 254.867C146.45 239.424 143.875 202.903 143.875 202.903C143.875 202.903 143.262 199.902 150.287 199.902C157.269 199.902 171.225 207.493 174.887 211.719C181.894 219.798 184.862 228.044 183.544 228.701C182.225 229.358 176.081 230.771 168.787 234.197C161.375 237.679 156.531 242.982 155.156 247.727C153.756 252.541 153.169 259.082 151.731 254.867Z" fill="#EE5D4F"/>
<path d="M148.593 153.841C144.856 160.775 144.887 193.769 148.925 218.647C152 237.611 157.825 247.59 157.825 247.59" stroke="#1D2538" stroke-width="0.5" stroke-miterlimit="10"/>
<path d="M268.125 277.52C268.125 277.52 282.438 255.755 329.419 252.291C384.469 246.683 410.625 266.978 410.625 266.978L457.494 528.017L242.106 521.683L268.125 277.52Z" fill="#992C29"/>
<path d="M259.444 358.651C259.444 358.651 293.562 335.649 341.781 335.649C390 335.649 427 358.157 427 358.157L433.513 393.94C433.513 393.94 390.738 372.006 344.75 371.269C298.762 370.531 255.406 395.922 255.406 395.922L259.444 358.651Z" fill="#F7BC4B"/>
<path d="M254.212 408.239C254.212 408.239 291.481 387.712 343.3 387.712C395.119 387.712 435.737 407.701 435.737 407.701L442.169 440.602C442.169 440.602 383.156 415.373 345.575 415.704C307.994 416.036 250.462 440.802 250.462 440.802L254.212 408.239Z" fill="#F7BC4B"/>
<path d="M273.188 297.797C273.188 297.797 282.288 287.186 319.525 284.441C368.975 293.345 437.219 462.035 437.219 462.035C437.219 462.035 396.669 444.722 344.744 443.978C292.819 443.234 252.269 469.951 252.269 469.951L273.188 297.797Z" fill="#EE5D4F"/>
<path d="M407.569 397.141C407.569 397.141 411.5 404.894 415.706 413.685C419.2 420.988 422.838 429.016 424.988 433.786C341.281 386.356 256.138 438.782 256.138 438.782L260.125 405.432C260.125 405.432 297.263 387.912 344.913 388.169C375.9 388.331 394.363 393.44 407.569 397.141Z" fill="#FEED7F"/>
<path d="M266.282 354.681L261.588 392.702C261.588 392.702 282.194 377.696 326.819 373.863C371.45 370.031 399.057 380.666 399.057 380.666C399.057 380.666 388.2 359.395 375.157 339.112C375.157 339.106 327.438 324.019 266.282 354.681Z" fill="#FEED7F"/>
<path d="M414.469 285.435C414.469 285.435 386.282 259.957 332.794 264.233C313.225 265.796 290.682 271.911 267.432 285.936" stroke="#1D2538" stroke-width="0.5" stroke-miterlimit="10"/>
<path d="M289.281 274.963L286.475 335.273" stroke="#1D2538" stroke-width="0.5" stroke-miterlimit="10"/>
<path d="M260.375 351.28L260.25 351.386L260.287 350.942C260.287 350.942 265.719 345.634 276.45 339.875C286.356 334.567 302.869 327.833 325.294 325.907C375.431 321.593 415.919 336.017 425.125 347.76L425.244 348.416L425.056 348.185C416.263 336.455 375.688 321.887 325.319 326.214C302.944 328.139 286.469 334.848 276.594 340.144C265.906 345.884 260.431 351.223 260.375 351.28Z" fill="#1D2538"/>
<path d="M436.231 451.406C436.231 451.406 395.106 420.181 340.3 424.689C298.025 428.166 268.1 438.788 254.069 449.936" stroke="#1D2538" stroke-width="0.5" stroke-miterlimit="10"/>
<path d="M342.932 263.833L343.263 293.845C343.263 293.845 369.35 294.22 379.525 296.483C394.363 299.778 397.657 301.76 397.657 301.76L395.019 273.725C395.019 273.725 370.644 262.927 342.932 263.833Z" stroke="#1D2538" stroke-width="0.5" stroke-miterlimit="10"/>
<path d="M396.338 287.249C396.338 287.249 408.207 290.875 412.163 294.502" stroke="#1D2538" stroke-width="0.5" stroke-miterlimit="10"/>
<path d="M343.263 287.249C343.263 287.249 311.944 285.273 288.538 297.14" stroke="#1D2538" stroke-width="0.5" stroke-miterlimit="10"/>
<path d="M397.657 301.76L399.719 333.623" stroke="#1D2538" stroke-width="0.5" stroke-miterlimit="10"/>
<path d="M527.219 140.817L520.544 169.015L525.738 163.82L530.925 140.073L527.219 140.817Z" fill="#3E4C6F"/>
<path d="M517.331 143.124L510.65 171.322L515.844 166.127L521.037 142.386L517.331 143.124Z" fill="#3E4C6F"/>
<path d="M518.4 141.974L524.331 162.75L519.881 169.428L513.206 150.133L514.694 174.624L503.562 172.398L509.5 142.711L518.4 141.974Z" fill="#1D2538"/>
<path d="M503.831 235.303C500.738 234.503 498.775 231.952 498.963 229.126C499.769 216.871 501.5 186.359 501.663 184.327C501.856 181.845 503.006 179.419 506.869 178.738C510.706 178.063 515.45 178.063 515.95 176.055C516.438 174.086 515.894 170.816 519.213 170.578C522.525 170.341 527.056 169.565 528.85 171.21C531.287 173.442 541.356 215.683 542.606 235.147C544.075 258.031 525.669 269.085 524.25 266.972C522.856 264.89 529.019 260 523.619 245.632C520.462 237.223 509.119 236.673 503.831 235.303Z" fill="#1D2538"/>
<path d="M523.756 226.319C523.756 226.319 522.519 244.62 511.394 254.267C500.269 263.915 490.5 267.379 490.5 267.379" stroke="#4B3355" stroke-width="3" stroke-miterlimit="10"/>
<path d="M525.981 226.319C525.981 226.319 525.238 246.352 514.113 255.999C502.988 265.647 492.725 267.379 492.725 267.379" stroke="#665070" stroke-width="3" stroke-miterlimit="10"/>
<path d="M512.119 213.664C512.119 213.664 509.094 231.69 497.919 241.281C486.744 250.866 475.913 256.862 475.913 256.862" stroke="#665070" stroke-width="3" stroke-miterlimit="10"/>
<path d="M515.338 213.914C515.338 213.914 512.313 231.94 501.138 241.531C489.963 251.116 479.131 257.112 479.131 257.112" stroke="#4B3355" stroke-width="3" stroke-miterlimit="10"/>
<path d="M523.369 219.729C523.369 219.729 520.344 237.754 509.169 247.346C497.994 256.931 487.163 262.927 487.163 262.927" stroke="#4B3355" stroke-width="3" stroke-miterlimit="10"/>
<path d="M508.457 156.879C508.457 156.879 497.375 161.2 494.644 159.33C491.913 157.461 489.263 154.31 487.482 149.889C485.7 145.462 483.9 142.63 485.819 141.005C487.732 139.379 489.8 137.722 489.8 137.722C489.8 137.722 487.825 139.041 486.294 136.79C484.763 134.54 480.119 124.148 481.219 121.566C482.319 118.977 484.657 115.37 485.557 114.25C486.457 113.131 487.088 113.963 487.088 113.963C487.088 113.963 487.282 110.755 488.888 109.186C490.494 107.617 493.35 106.766 493.35 106.766C493.35 106.766 493.407 104.534 495.225 103.24C497.044 101.946 497.775 102.046 501.056 101.352C504.338 100.658 506.413 100.745 506.413 100.745C506.413 100.745 509.019 98.9883 510.394 98.7319C511.775 98.4756 518.431 97.619 521.219 99.7948C524.006 101.971 528.838 109.148 530.531 115.651C532.225 122.153 533.644 139.016 530.444 145.644C527.25 152.265 515.438 156.048 508.457 156.879Z" fill="#992C29"/>
<path d="M501.925 148.883C501.925 148.883 493.95 153.416 492.013 152.972C490.075 152.528 488.813 151.671 487.425 148.207C486.038 144.743 484.625 142.53 486.125 141.255C487.625 139.979 487.7 139.717 486.5 137.96C485.3 136.196 481.669 128.068 482.531 126.049C483.394 124.023 485.219 121.203 485.925 120.322C486.631 119.44 487.125 120.096 487.125 120.096C487.125 120.096 487.275 117.589 488.531 116.357C489.788 115.126 492.019 114.463 492.019 114.463C492.019 114.463 492.063 112.719 493.488 111.706C494.913 110.693 495.481 110.774 498.05 110.23C500.613 109.686 502.238 109.755 502.238 109.755C502.238 109.755 504.275 108.379 505.35 108.179C506.425 107.979 511.638 107.31 513.819 109.011C516 110.712 519.782 116.332 521.107 121.416C522.432 126.505 523.294 131.601 520.794 136.784C518.294 141.967 511.038 140.723 501.925 148.883Z" fill="#C94039"/>
<path d="M508.756 99.4697C508.756 99.4697 504.594 102.627 504.381 104.691C504.169 106.754 506.694 118.296 507.55 121.585C508.406 124.873 508.763 125.524 510.819 126.324C512.875 127.124 516.457 126.574 516.457 126.574C516.457 126.574 515.207 127.524 512.344 127.462C509.481 127.406 507.963 125.667 507.281 125.198C506.6 124.73 505.95 121.284 505.331 117.952C504.706 114.619 502.906 106.272 502.644 104.897C502.381 103.521 504.15 100.927 508.756 99.4697Z" fill="#121721"/>
<path d="M493.494 106.654C493.494 106.654 493.482 111.255 495.451 120.484C496.094 123.498 496.501 127.981 500.882 127.474C503.688 126.811 508.682 125.536 508.682 125.536L508.863 126.099C508.863 126.099 505.088 127.518 502.582 128.112C500.076 128.7 497.944 128.743 496.726 127.305C495.507 125.867 493.644 117.414 493.213 113.212C492.788 109.005 491.751 107.929 493.494 106.654Z" fill="#121721"/>
<path d="M487.088 113.956C487.088 113.956 489.106 124.686 489.819 127.881C490.531 131.076 492.525 131.97 495.644 134.002L494.619 134.033C494.619 134.033 489.75 131.538 489.194 128.55C488.631 125.561 486.381 113.675 486.381 113.675C486.381 113.675 486.513 113.625 486.75 113.7C486.988 113.781 487.088 113.956 487.088 113.956Z" fill="#121721"/>
<path d="M488.075 139.51C488.075 139.51 494.694 134.227 497.813 132.451C500.932 130.676 503.607 132.914 504.319 134.802C505.032 136.69 505.863 137.547 503.819 139.954C501.775 142.361 497.538 146.25 497.538 146.25C497.538 146.25 501.306 148.251 502.913 150.127C502.338 147.97 499.356 145.406 499.356 145.406C499.356 145.406 505.888 139.66 506.163 137.941C506.438 136.221 505.125 134.652 504.025 132.595C502.925 130.538 500.425 130.532 497.038 132.12C493.65 133.708 488.075 139.51 488.075 139.51Z" fill="#121721"/>
<path d="M507.769 271.911C518.556 271.911 527.3 263.164 527.3 252.373C527.3 241.582 518.556 232.834 507.769 232.834C496.982 232.834 488.238 241.582 488.238 252.373C488.238 263.164 496.982 271.911 507.769 271.911Z" fill="#992C29"/>
<path d="M510.738 259.05C514.29 259.05 517.169 256.17 517.169 252.616C517.169 249.063 514.29 246.183 510.738 246.183C507.186 246.183 504.307 249.063 504.307 252.616C504.307 256.17 507.186 259.05 510.738 259.05Z" fill="#4B3355"/>
<path d="M526.269 228.707C526.269 228.707 525.031 247.008 513.906 256.656C502.781 266.303 493.013 269.767 493.013 269.767" stroke="#856792" stroke-width="3" stroke-miterlimit="10"/>
<path d="M531.713 227.719C531.713 227.719 530.475 246.02 519.35 255.668C508.225 265.315 498.457 268.779 498.457 268.779" stroke="#BB83C3" stroke-width="3" stroke-miterlimit="10"/>
<path d="M528.744 238.355C528.744 238.355 527.507 256.656 516.382 266.303C505.257 275.951 495.488 279.414 495.488 279.414" stroke="#665070" stroke-width="3" stroke-miterlimit="10"/>
<path d="M412.631 266.128C412.631 266.128 471.8 246.808 480 244.457C487.875 242.194 491.075 243.488 492.044 250.103C493 256.618 496.244 259.725 502.25 260.476C508.044 261.201 509.625 260.995 510.813 261.232C512 261.47 512.744 263.996 512.819 269.967C512.888 275.694 514.825 276.644 502.406 284.322C489.175 292.501 434.588 316.572 434.588 316.572C434.588 316.572 418.463 308.025 413.375 295.802C408.075 283.084 412.631 266.128 412.631 266.128Z" fill="#C94039"/>
<path d="M455.1 281.534C468.644 276.982 485.794 269.01 490.531 269.554C495.119 270.079 501.213 271.855 505.094 271.755C508.95 271.661 510.025 269.842 510.094 274.469C510.156 278.914 505.988 279.858 496.238 285.879C485.875 292.276 438.306 311.927 438.306 311.927C438.306 311.927 431.25 304.18 430.263 294.583C429.725 289.274 441.331 286.161 455.1 281.534Z" fill="#EE5D4F"/>
<path d="M436.282 301.711C436.35 302.836 435.532 303.793 434.444 303.849C433.357 303.905 432.413 303.03 432.338 301.904C432.263 300.773 433.088 299.81 434.175 299.76C435.269 299.703 436.207 300.579 436.282 301.711Z" fill="#3E4C6F"/>
<path d="M426.65 309.488L512.744 273.068" stroke="#1D2538" stroke-width="0.5" stroke-miterlimit="10"/>
<path d="M417.157 263.702C417.157 263.702 407.013 265.546 405.031 267.891C403.038 270.248 405.8 291.563 411.963 304.005C417.863 315.91 424.338 321.405 430.5 318.692C433.513 317.36 436.563 315.747 436.563 315.747C436.563 315.747 430.263 308.744 424.307 290.987C417.75 271.424 417.157 263.702 417.157 263.702Z" fill="#FEED7F"/>
<path d="M417.157 263.702C417.157 263.702 407.013 265.546 405.032 267.891C403.038 270.248 410.025 291.894 410.025 291.894C410.025 291.894 412.65 295.495 424.307 290.987C417.75 271.424 417.157 263.702 417.157 263.702Z" fill="#F7BC4B"/>
<path d="M507.769 227.057C502 227.057 499.282 231.233 499.282 231.233C499.282 231.233 498.725 231.046 499.094 227.169C500.413 210.907 501.644 175.211 501.775 173.498C501.988 170.722 503.232 168.009 507.419 167.246C511.575 166.489 516.719 166.489 517.257 164.245C517.788 162.044 517.2 158.38 520.794 158.117C524.382 157.855 529.294 156.986 531.238 158.824C533.882 161.325 544.788 208.568 546.144 230.345C547.738 255.943 527.257 268.91 525.725 266.547C524.213 264.215 533.9 257.656 528.05 241.581C524.619 232.171 513.538 227.057 507.769 227.057Z" fill="#C94039"/>
<path d="M502.782 199.852C502.782 199.852 514.65 201.334 520.088 198.371C525.525 195.401 519.782 172.335 519.782 172.335L503.65 175.737L502.782 199.852Z" stroke="#1D2538" stroke-width="0.5" stroke-miterlimit="10"/>
<path d="M509.563 225.268C502.7 225.569 501.344 226.181 501.669 222.774C502.244 210.657 535.544 205.379 538.1 205.461C541.263 205.561 544.694 218.322 543.707 234.153C542.719 249.984 534.075 262.996 532.825 248.002C532.163 240.087 525.238 224.587 509.563 225.268Z" fill="#EE5D4F"/>
<path d="M525.075 157.636C526.006 160.362 545.019 217.659 534.638 261.195" stroke="#1D2538" stroke-width="0.5" stroke-miterlimit="10"/>
<path d="M427.031 227.351C424.1 230.277 417.394 235.129 420.713 238.305C423.281 240.768 426.488 238.149 431.931 232.771C435.431 229.314 429.963 224.424 427.031 227.351Z" fill="#CC6D3D"/>
<path d="M424.656 234.76L426.35 237.636L431.175 232.721L424.656 234.76Z" fill="#F5894E"/>
<path d="M437.119 221.817C437.119 221.817 434.219 219.141 430.875 222.692C427.107 226.7 426.925 227 426.925 227L431.925 232.771C431.925 232.771 438.444 222.899 437.119 221.817Z" fill="#C94039"/>
<path d="M420.138 238.28C422.581 239.661 423.706 239.668 425.275 237.673C426.844 235.679 422.625 232.953 416.294 229.62C409.956 226.288 407.825 224.768 406.844 226.212C405.856 227.657 408.663 231.002 413.063 233.859C417.463 236.717 417.694 236.898 420.138 238.28Z" fill="#CC6D3D"/>
<path d="M419.725 237.78C422.169 239.161 423.263 238.411 423.263 238.411L421.556 235.866C421.556 235.866 407.763 229.983 412.163 232.84C416.563 235.697 417.281 236.398 419.725 237.78Z" fill="#F5894E"/>
<path d="M406.675 229.564C405.556 228.82 404.856 228.464 404.206 227.807C403.456 226.688 402.825 224.506 402.256 223.574C401.081 221.661 402.375 220.054 402.881 221.342C403.387 222.63 405.856 224.85 405.856 224.85L404.781 220.967L401.656 217.165C401.656 217.165 401.512 213.864 402.506 214.183C403.5 214.502 405.394 218.453 407.069 218.872C408.744 219.291 410.944 225.981 410.481 227.451C410.019 228.92 408.131 230.439 406.675 229.564Z" fill="#CC6D3D"/>
<path d="M421.119 254.742C421.119 254.742 419.819 259.475 429.956 257.756C440.094 256.037 458.594 251.535 458.594 251.535C458.594 251.535 427.325 247.083 421.119 254.742Z" fill="#EE5D4F"/>
<path d="M434.562 274.319L442.331 286.311L445.762 282.616L439.775 270.292L434.562 274.319Z" fill="#CC6D3D"/>
<path d="M426.25 253.473C425.569 253.642 421.531 254.411 425.369 260.82C429.794 268.21 430.856 269.867 434.65 274.556L439.912 270.655C439.912 270.655 436.919 263.152 435.475 258.894C433.694 253.642 426.931 253.304 426.25 253.473Z" fill="#1D2538"/>
<path d="M434.475 270.861C431.662 270.123 421.531 254.411 425.369 260.82C429.794 268.21 430.856 269.867 434.65 274.556L439.912 270.655C439.912 270.661 437.294 271.599 434.475 270.861Z" fill="#3E4C6F"/>
<path d="M442.025 284.979C442.025 284.979 440.306 292.013 442.175 292.795C444.044 293.576 446.931 284.273 445.763 282.616C444.594 280.959 442.025 284.979 442.025 284.979Z" fill="#CC6D3D"/>
<path d="M441.75 286.142C441.75 286.142 441.225 290.769 442.169 290.831C443.106 290.894 444.775 287.736 445.3 286.78C445.825 285.823 445.156 282.566 445.906 282.447C446.65 282.328 447.844 284.441 447.875 285.379C447.887 285.704 447.219 286.498 446.675 288.424C446.325 289.662 446.213 291.882 445.719 293.051C444.769 295.296 443.075 296.859 442.4 297.203C440.838 298.009 440.469 295.677 440.456 292.676C440.438 289.675 441.75 286.142 441.75 286.142Z" fill="#C94039"/>
<path d="M445.45 285.767C445.544 284.51 445.162 282.572 445.906 282.453C446.65 282.334 447.844 284.448 447.875 285.385C447.887 285.711 447.219 286.505 446.675 288.43C446.325 289.668 446.212 291.888 445.719 293.057C444.769 295.302 443.075 296.865 442.4 297.209C440.837 298.015 445.019 294.645 445 291.644C444.994 290.906 442.894 290.481 442.894 290.481C442.894 290.481 445.281 287.999 445.45 285.767Z" fill="#992C29"/>
<path d="M436.156 246.652C436.156 246.652 427.55 250.453 425.062 253.386C422.575 256.318 422.812 262.495 434.9 257.762C443.25 254.492 451.781 251.285 447.806 250.253C443.837 249.221 440.394 244.563 436.156 246.652Z" fill="#1D2538"/>
<path d="M435.9 292.957C435.9 292.957 434.344 295.652 433.687 297.178C433.119 298.509 431.994 300.273 431.781 301.304C431.325 303.53 431.5 304.762 432.456 304.881C433.412 304.999 435.969 304.162 437.412 302.573C438.225 301.679 439.8 297.49 440.119 295.483C440.375 293.92 438.644 289.168 435.9 292.957Z" fill="#C94039"/>
<path d="M437.406 298.985C436.575 303.011 431.5 304.768 432.456 304.881C433.413 304.999 435.969 304.162 437.413 302.573C438.225 301.679 440.775 296.152 441.1 294.145C441.35 292.576 440.163 291.219 439.819 290.888C439.481 290.562 434.756 295.246 437.406 298.985Z" fill="#992C29"/>
<path d="M437.306 279.439L436.462 291.288C436.462 291.288 433.656 299.172 434.4 299.203C435.144 299.235 437.769 297.365 439.181 294.451C440.094 292.557 442.469 282.272 443.394 279.652C446.494 270.83 437.575 272.187 437.306 279.439Z" fill="#F5894E"/>
<path d="M450.15 249.028C448.268 249.947 440.181 251.716 439.387 257.162C438.406 263.865 437.287 279.683 437.287 279.683L443.256 279.896C443.256 279.896 447.118 271.086 448.225 265.478C449.012 261.489 449.337 258.281 449.337 258.281C449.337 258.281 457.475 252.241 458.168 250.034C458.856 247.827 452.031 248.109 450.15 249.028Z" fill="#1D2538"/>
<path d="M438.506 265.497L437.987 271.293L437.281 279.69L443.256 279.896L439.031 275.307L438.506 265.497Z" fill="#3E4C6F"/>
<path d="M453.894 241.019C454.706 239.993 453.031 238.274 452.806 236.017C452.431 232.19 452.825 227.113 451.812 223.449C451.112 220.904 451.137 220.586 449.456 219.385C448.344 218.591 444.031 220.054 439.662 220.229C435.25 220.411 434.956 220.679 433.312 225.425C431.75 229.933 433.081 230.746 434.844 233.878C436.25 236.379 438.519 239.068 438.519 239.068C438.519 239.068 439.031 242.138 442.956 242.913C448.094 243.938 451.7 243.788 453.894 241.019Z" fill="#CE9436"/>
<path d="M436.206 215.021L437.956 220.554C437.956 220.554 438.906 222.999 440.762 223.018C442.619 223.036 443.769 220.685 443.606 220.11C443.444 219.535 441.312 212.851 441.312 212.851L436.206 215.021Z" fill="#CC6D3D"/>
<path d="M438.994 239.674C436.706 240.831 430.981 246.158 427.438 248.252C419.738 253.798 421.119 254.742 421.119 254.742C421.119 254.742 423.756 252.304 426.881 253.029C428.6 253.429 432.519 256.587 437.675 254.192C441.463 252.435 447.544 251.604 447.544 251.604C447.544 251.604 453.356 252.673 454.437 252.942C457.756 253.767 459.737 251.516 459.737 251.516C458.487 248.096 454.169 238.036 451.156 236.898C448.131 235.766 441.281 238.517 438.994 239.674Z" fill="#F7BC4B"/>
<path d="M454.431 252.948C457.725 253.842 459.731 251.522 459.731 251.522C457.919 246.102 454.55 240.762 454.55 240.762L457.35 249.672L454.431 252.948Z" fill="#CE9436"/>
<path d="M441.025 232.803C439.919 233.422 433.769 229.426 434.337 230.871C434.906 232.309 438.787 240.975 440.494 241.675C442.194 242.375 443.925 238.674 446.15 238.136C448.375 237.598 452.244 239.18 452.125 238.23C452.006 237.279 447.306 229.289 441.025 232.803Z" fill="#F7BC4B"/>
<path d="M438.294 251.673C436.431 252.748 432.612 253.411 432.612 253.411C432.612 253.411 437 251.122 440.525 245.658C440.531 245.658 440.156 250.597 438.294 251.673Z" fill="#CE9436"/>
<path d="M456.919 227.638C456.919 227.638 459.463 232.19 460.432 235.572C461.4 238.955 458.969 240.524 457.444 240.456C455.919 240.393 452.9 232.746 450.944 229.601C448.988 226.456 454.219 222.374 456.919 227.638Z" fill="#CC6D3D"/>
<path d="M450.875 230.564C450.875 230.564 445.981 222.261 449.656 219.823C453.325 217.378 456.519 225.531 457.319 227.882L450.875 230.564Z" fill="#C94039"/>
<path d="M463.575 252.367C463.575 252.367 456.45 242.088 455.394 238.411C454.338 234.735 458.744 234.166 460.35 235.598C461.95 237.023 465.744 247.471 466.544 250.072C467.344 252.673 465.181 253.642 463.575 252.367Z" fill="#CC6D3D"/>
<path d="M462.444 250.159C462.444 250.159 456.956 242.238 456.144 239.411C455.331 236.579 464.119 246.389 464.731 248.396C465.344 250.397 463.688 251.141 462.444 250.159Z" fill="#F5894E"/>
<path d="M463.375 250.928C463.375 250.928 463.038 253.461 463.5 255.118C463.669 255.868 465.063 256.018 466.169 256.206C467.275 256.393 468.388 256.368 469.019 256.324C469.644 256.281 470.538 255.574 468.481 255.074C467.6 254.861 465.763 254.023 465.763 254.023C465.763 254.023 465.488 252.248 465.088 251.354C464.431 249.872 463.375 250.928 463.375 250.928Z" fill="#CC6D3D"/>
<path d="M466.456 254.405C466.456 254.405 469.794 254.155 470.931 254.305C472.138 254.467 474.4 255.105 474.831 254.486C475.25 253.873 473.756 252.942 473.281 252.904C472.819 252.86 469.356 252.679 469.356 252.679C469.356 252.679 462.763 253.042 466.456 254.405Z" fill="#CC6D3D"/>
<path d="M465.369 252.548C465.369 252.548 468.969 251.247 469.613 251.16C470.275 251.072 474.806 254.155 473.381 254.148C472.038 254.142 470.581 252.798 469.438 253.529C468.306 254.248 465.006 254.749 465.369 252.548Z" fill="#CC6D3D"/>
<path d="M465.094 251.354C465.094 251.354 467.556 250.259 468.2 250.503C468.875 250.76 471.319 252.723 469.844 252.723C468.462 252.729 465.25 254.792 465.094 251.354Z" fill="#CC6D3D"/>
<path d="M429.675 214.452C429.675 214.452 432.15 218.578 435.925 216.89C439.7 215.196 440.631 205.586 435.031 205.773C429.431 205.961 427.581 211.632 429.675 214.452Z" fill="#273252"/>
<path d="M432.375 201.559C434.262 199.521 434.969 196.901 439.094 197.758C439.094 197.758 443.319 196.389 447.375 199.29C452.237 202.772 450.394 207.818 450.394 207.818C450.394 207.818 455.744 213.195 449.337 216.79C446.25 218.522 440.594 216.79 438.112 215.996C432.581 214.233 430.487 203.598 432.375 201.559Z" fill="#273252"/>
<path d="M437.944 200.315C435.856 200.84 428.4 199.859 428.231 198.139C428.063 196.42 434.425 194.544 435.369 198.158C435.369 198.158 433.863 194.644 436.013 193.675C438.169 192.7 440.031 199.79 437.944 200.315Z" fill="#273252"/>
<path d="M430.5 207.587C429.612 215.696 434.775 217.634 440.362 216.915C444.562 216.377 445.15 213.708 444.919 208.406C444.687 203.104 442.606 199.152 438.381 198.858C432.8 198.471 431.075 202.322 430.5 207.587Z" fill="#CC6D3D"/>
<path d="M432.263 211.995C433.238 214.852 435.45 216.934 439.288 216.471C442.369 216.102 444.169 213.733 444.306 210.794C444.444 207.855 437.931 205.817 434.875 205.723C430.844 205.605 431.288 209.131 432.263 211.995Z" fill="#F5894E"/>
<path d="M445.881 209.431L442.319 209.25C442.319 209.25 442.162 202.766 438.056 201.209C433.744 199.571 431.775 202.335 431.775 202.335C431.775 202.335 433.831 196.789 440.206 199.115C445.275 200.959 445.881 209.431 445.881 209.431Z" fill="#F7BC4B"/>
<path d="M446.732 209.837C447.16 208.214 446.483 206.628 445.218 206.294C443.953 205.959 442.58 207.003 442.152 208.626C441.723 210.248 442.401 211.835 443.666 212.169C444.93 212.504 446.303 211.459 446.732 209.837Z" fill="#F5894E"/>
<path d="M437.006 204.448C437.006 204.448 435.919 203.729 435.219 203.735" stroke="#1D2538" stroke-width="0.25" stroke-miterlimit="10" stroke-linecap="round" stroke-linejoin="round"/>
<path d="M436.115 206.575C436.252 205.941 436.088 205.366 435.747 205.292C435.406 205.218 435.019 205.673 434.881 206.307C434.743 206.942 434.908 207.516 435.249 207.59C435.589 207.664 435.977 207.209 436.115 206.575Z" fill="#273252"/>
<path d="M432.095 206.052C432.151 205.467 432.018 204.976 431.798 204.955C431.578 204.934 431.354 205.391 431.299 205.975C431.243 206.56 431.376 207.051 431.595 207.072C431.815 207.093 432.039 206.636 432.095 206.052Z" fill="#273252"/>
<path d="M432.581 203.323C432.581 203.323 431.781 203.266 431.388 203.648" stroke="#1D2538" stroke-width="0.25" stroke-miterlimit="10" stroke-linecap="round" stroke-linejoin="round"/>
<path d="M446.075 211.688C446.075 211.688 442.356 210.1 440.187 212.595C438.019 215.09 441.506 221.361 445.744 219.085C449.981 216.821 448.925 212.614 446.075 211.688Z" fill="#273252"/>
<path d="M440.569 200.378C440.569 200.378 440.4 203.16 441.1 205.079C441.632 206.53 442.35 207.374 442.35 207.374L442.525 206.786L443.388 206.868C443.388 206.868 441.688 204.917 441.188 200.515L440.569 200.378Z" fill="#EE5D4F"/>
<path d="M440.607 200.071C440.607 200.071 439.494 202.629 439.494 204.667C439.494 206.211 439.882 207.249 439.882 207.249L440.244 206.755L441.025 207.124C441.025 207.124 440.1 204.711 441.132 200.396L440.607 200.071Z" fill="#EE5D4F"/>
<path d="M440.488 201.859C441.044 202.222 443.888 200.084 442.794 198.971C441.769 197.92 440.419 196.92 439.869 197.92C439.313 198.915 439.925 201.497 440.488 201.859Z" fill="#EE5D4F"/>
<path d="M442.256 200.784C442.256 200.784 443.1 199.521 442.738 199.227C442.375 198.933 442.244 199.69 441.656 200.49C441.075 201.303 441.888 201.309 442.256 200.784Z" fill="#F7BC4B"/>
<path d="M440.582 200.953C440.582 200.953 440.982 200.378 442.169 200.578C443.363 200.772 444.169 201.028 444.369 201.753C444.569 202.479 443.538 203.91 442.675 204.304C441.807 204.698 440.625 202.685 440.438 202.06C440.25 201.434 440.582 200.953 440.582 200.953Z" fill="#EE5D4F"/>
<path d="M443.663 203.023C443.663 203.023 442.863 204.192 442.25 203.929C441.338 203.541 443.575 202.003 443.9 201.735C444.219 201.466 444.469 202.404 443.663 203.023Z" fill="#F7BC4B"/>
<path d="M169.819 485.4C169.819 485.4 91.0376 535.251 68.3626 544.848C44.9001 554.777 89.5688 555.653 89.5688 555.653C89.5688 555.653 68.9313 568.326 83.9876 570.083C99.1314 571.853 107.681 570.083 107.681 570.083C107.681 570.083 72.2126 584.551 99.9251 597.806C128.881 611.656 296.525 659.518 397.769 632.551C491.288 607.635 493.3 599.413 526.688 601.308C560.281 603.215 543.544 588.04 531.763 583.545C531.763 583.545 574.306 586.54 562.319 568.52C538.681 532.988 520.781 522.021 520.781 522.021L169.819 485.4Z" fill="#1D2538"/>
<path d="M333.8 623.86C334.725 621.684 349.825 608.054 342.419 606.747C335.013 605.441 324.263 613.537 324.263 613.537C324.263 613.537 321.957 600.251 318.313 604.14C314.663 608.029 312.482 614.719 312.482 614.719C312.482 614.719 309.813 600.733 305.332 605.015C300.85 609.298 299 613.65 299 613.65C299 613.65 291.988 605.19 289.9 610.092C287.813 614.994 285.494 620.434 285.494 620.434C285.494 620.434 279.738 607.466 275.088 607.473C270.438 607.479 267.694 617.045 267.694 617.045C267.694 617.045 264.925 604.847 260.044 605.397C255.163 605.947 252.744 613.181 252.744 613.181C252.744 613.181 241.95 612.737 239.994 618.877C238.044 625.023 250 618.871 276.069 623.91C296.675 627.899 333.8 623.86 333.8 623.86Z" fill="#3E4C6F"/>
<path d="M140.057 588.003C140.057 588.003 123.875 575.985 128.063 575.416C132.332 574.835 137.463 580.806 137.463 580.806C137.463 580.806 137.25 570.927 141.532 575.054C145.757 579.118 149.663 593.098 149.663 593.098C149.663 593.098 145.05 573.978 151.1 580.575C156.994 587.002 159.119 594.843 159.119 594.843C159.119 594.843 176.994 570.796 185.263 580.306C193.238 589.478 187.644 595.024 187.644 595.024C187.644 595.024 193.469 581.237 198.775 589.628C203.882 597.7 180.05 611.612 140.057 588.003Z" fill="#3E4C6F"/>
<path d="M364.763 630.632C364.763 630.632 339.95 634.971 342.256 629.112C344.556 623.254 354.406 625.436 354.406 625.436C354.406 625.436 347.594 609.792 353.156 611.412C358.719 613.037 359.606 615.076 359.606 615.076C359.606 615.076 360.813 604.84 364.631 608.029C368.45 611.224 368.45 611.224 368.45 611.224C368.45 611.224 373.913 595.893 374.919 601.927C375.931 607.96 375.931 607.96 375.931 607.96C375.931 607.96 385.506 596.506 386.163 609.167C386.819 621.828 392.469 621.797 364.763 630.632Z" fill="#3E4C6F"/>
<path d="M392.219 603.521C392.219 603.521 399.638 590.904 400.375 594.618C401.119 598.325 398.15 607.973 398.15 607.973C398.15 607.973 410.763 592.392 413.725 599.069C416.694 605.747 408.531 611.687 408.531 611.687C408.531 611.687 429.3 599.069 428.556 604.265C427.813 609.461 403.338 625.042 389.988 620.59C376.644 616.139 392.219 603.521 392.219 603.521Z" fill="#3E4C6F"/>
<path d="M457.4 589.128C457.4 589.128 449.263 577.811 445.244 584.595C441.225 591.379 448.919 592.217 448.919 592.217C448.919 592.217 436.438 590.009 440.706 596.762C444.975 603.515 448.031 603.702 448.031 603.702C448.031 603.702 435.631 606.003 441.825 610.892C448.013 615.782 476.425 602.202 485.313 601.301C494.2 600.407 492.625 587.865 486.2 589.816C479.769 591.766 479.769 591.766 479.769 591.766C479.769 591.766 484.756 578.011 477.469 579.362C470.175 580.718 470.175 580.718 470.175 580.718C470.175 580.718 461.169 568.808 457.4 589.128Z" fill="#3E4C6F"/>
<path d="M400.381 523.084C400.381 523.084 382.381 548.362 387.825 553.714C393.356 559.154 422.206 549.825 422.206 549.825C422.206 549.825 429.719 560.173 442.169 560.279C454.625 560.392 470.769 543.904 470.769 543.904C470.769 543.904 497.231 557.841 504.062 555.653C510.85 553.477 522.444 534.288 522.444 534.288C522.444 534.288 546.737 541.147 551.106 537.464C555.425 533.825 509.006 487.551 509.006 487.551L492.019 469.194L400.381 523.084Z" fill="#33A86D"/>
<path d="M462.75 515.093C462.731 516.462 458.394 602.502 458.394 602.502L483.231 593.742L474.612 511.017L462.75 515.093Z" fill="#4B3355"/>
<path d="M462.687 516.212C462.669 517.582 460.175 560.004 460.175 560.004L471.337 542.016L477.437 536.576L475.787 515.962L462.687 516.212Z" fill="#34283A"/>
<path d="M426.156 478.423L403.087 514.149C403.087 514.149 388.875 534.501 391.675 538.977C394.519 543.517 428.887 517.494 428.887 517.494C428.887 517.494 438.544 537.458 446.469 537.658C454.4 537.858 468.769 519.958 468.769 519.958C468.769 519.958 493.825 533.219 501.506 531.712C509.156 530.212 516.437 507.828 516.437 507.828C516.437 507.828 528.287 518.482 533.75 513.43C539.125 508.459 504.144 474.115 497.681 464.724C491.494 455.733 491.494 455.733 491.494 455.733L426.156 478.423Z" fill="#288453"/>
<path d="M433.2 440.658L433.094 442.259C430.994 447.661 409.012 485.644 409.012 485.644C409.012 485.644 408.512 497.511 415.019 497.174C421.512 496.836 437.594 484.881 437.594 484.881C437.594 484.881 451.619 503.682 462.475 501.444C473.256 499.224 478.35 480.28 478.35 480.28C478.35 480.28 495.262 489.652 501.325 485.475C507.306 481.361 502.65 474.54 502.65 474.54C502.65 474.54 514.337 478.673 511.287 474.065C508.281 469.525 475.637 425.146 475.637 425.146C475.637 425.146 460.037 404.363 451.069 414.792C441.731 425.646 431.756 440.658 431.756 440.658" fill="#33A86D"/>
<path d="M433.106 429.766L433.006 431.073C430.981 435.481 408.144 474.99 408.144 474.99C408.144 474.99 412.062 480.623 416 480.336C419.937 480.048 437.319 465.768 437.319 465.768C437.319 465.768 453.762 481.224 461.156 479.198C468.487 477.185 473.919 462.116 473.919 462.116C473.919 462.116 494.869 469.469 497.612 468.3C500.35 467.137 498.693 460.791 498.693 460.791C498.693 460.791 511.469 465.092 508.675 461.385C505.925 457.733 473.987 417.093 473.987 417.093C473.987 417.093 459 400.061 450.337 408.614C441.331 417.505 431.719 429.773 431.719 429.773" fill="#288453"/>
<path d="M455.7 390.801C455.7 390.801 435.863 419.162 423.312 441.077C423.312 441.077 429.081 448.361 433.081 446.767C437.063 445.179 447.531 429.723 447.531 429.723C447.531 429.723 453.744 441.346 461.794 442.953C469.894 444.566 478.156 433.805 478.156 433.805C478.156 433.805 493.506 442.44 492.769 437.938C492.05 433.505 457.025 393.346 455.7 390.801Z" fill="#FFFCF3"/>
<path d="M473.019 546.63L472.281 560.398L473.506 577.23L473.1 593.298L477.6 578.38L475.144 564.606L476.45 536.245L471.375 532.125L473.019 546.63Z" fill="#34283A"/>
<path d="M468.206 576.479L466.887 584.064L470.187 590.991V582.744L469.525 571.534L468.206 576.479Z" fill="#34283A"/>
<path d="M328.594 474.878C328.594 474.878 391.231 570.133 376.394 575.329C361.556 580.525 329.712 562.68 329.712 562.68C329.712 562.68 321.069 581.131 304.844 583.67C288.619 586.208 278.481 568.401 278.481 568.401C278.481 568.401 238.675 574.585 230.512 567.413C222.356 560.242 248.312 527.098 248.312 527.098L297.869 469.982L328.594 474.878Z" fill="#33A86D"/>
<path d="M295.344 538.958L291.875 628.993L310 627.743L304.6 537.708L295.344 538.958Z" fill="#4B3355"/>
<path d="M294.8 535.751L293.318 576.642L297.337 573.841L306.75 573.097L305.618 534.244L294.8 535.751Z" fill="#34283A"/>
<path d="M325.625 470.795C325.625 470.795 384.969 545.042 371.944 549.994C358.919 554.94 326.744 538.715 326.744 538.715C326.744 538.715 313.65 553.658 301.875 554.952C290.1 556.247 275.512 543.141 275.512 543.141C275.512 543.141 243.369 558.297 232.987 546.111C222.6 533.925 279.962 464.017 279.962 464.017L325.625 470.795Z" fill="#288453"/>
<path d="M273.312 466.793C273.312 466.793 297.819 434.887 307.438 412.453C307.438 412.453 321.013 443.222 326.625 452.4C332.238 461.579 343.263 475.44 339.288 477.51C335.313 479.579 322.994 468.156 322.994 468.156C322.994 468.156 314.325 475.972 308.738 477.191C303.15 478.41 298.35 473.971 298.35 473.971C298.35 473.971 285.6 480.924 280.331 480.117C275.063 479.311 273.312 466.793 273.312 466.793Z" fill="#FFFCF3"/>
<path d="M301.062 569.552L299.087 585.22L299.912 594.786L299.744 605.997L301.725 595.606L301.231 585.714L304.194 569.227L301.062 569.552Z" fill="#34283A"/>
<path d="M296.781 577.799L295.787 602.865L296.781 609.792L294.468 601.051L294.8 587.033L296.781 577.799Z" fill="#34283A"/>
<path d="M302.712 606.985L304.694 617.208L306.012 626.28L305.844 615.888L303.7 607.81L303.375 600.063L302.712 606.985Z" fill="#34283A"/>
<path d="M135.987 478.948C126.206 492.797 83.5187 511.204 72.9312 522.04C62.325 532.9 60.3312 540.322 70.9937 545.805C81.7437 551.326 100.956 537.377 100.956 537.377C100.956 537.377 97.9812 554.984 109.631 560.88C134.162 573.291 150.95 558.854 150.95 558.854C150.95 558.854 147.2 575.579 158.456 577.899C169.787 580.231 182.856 569.689 182.856 569.689C182.856 569.689 200.269 595.337 211.65 595.299C223.087 595.262 224.787 580.418 224.787 580.418C224.787 580.418 240.094 595.643 253.769 595.606C267.531 595.562 268.5 567.307 268.5 567.307C268.5 567.307 290.681 589.947 294.144 575.304C297.581 560.761 273.244 530.349 247.012 476.528C222.456 426.146 154.887 452.2 135.987 478.948Z" fill="#288453"/>
<path d="M193.1 495.685L201.093 604.059L170.856 609.611L181.968 489.464L193.1 495.685Z" fill="#665070"/>
<path d="M193.369 492.141L198.581 569.414L181.025 551.364L175.75 554.596L182.906 487.626L193.369 492.141Z" fill="#4B3355"/>
<path d="M122.093 483.6C122.093 483.6 60.0247 529.011 68.8247 532.775C77.681 536.564 111.787 515.8 111.787 515.8C111.787 515.8 110.643 545.924 129.287 549.144C148.125 552.395 162.962 531.481 162.962 531.481L180.418 528.798C180.418 528.798 199.437 567.157 207.1 567.063C219.587 566.913 214.381 546.724 214.381 546.724C214.381 546.724 235.15 571.878 250.087 571.703C265.118 571.528 260.375 545.18 260.375 545.18C260.375 545.18 277.212 565.919 289.187 565.506C301.225 565.088 269.525 513.693 243.787 465.962C220.781 423.301 168.168 448.349 122.093 483.6Z" fill="#33A86D"/>
<path d="M165.781 421.763C165.781 421.763 88.6936 475.947 90.7123 483.112C92.5186 489.527 97.3561 486.907 107.094 486.145C116.869 485.376 128.812 478.542 128.812 478.542C128.812 478.542 130.794 488.508 138.931 490.309C143.7 491.365 160.469 482.668 160.469 482.668C160.469 482.668 163.025 492.647 175.5 496.23C184.444 498.793 203.45 484.788 203.45 484.788C203.45 484.788 206.975 508.034 218.694 507.834C230.475 507.628 244.687 471.32 244.687 471.32L268.469 490.546C268.469 490.546 242.525 421.088 228.337 391.683C214.494 362.991 165.781 421.763 165.781 421.763Z" fill="#288453"/>
<path d="M232.331 460.803C232.331 460.803 226.862 493.973 237.143 499.625C247.506 505.321 244.481 486.507 244.481 486.507C244.481 486.507 259.537 504.527 263.281 499.525C267.018 494.529 258.956 484.062 258.956 484.062C258.956 484.062 272.512 497.63 265.937 481.605C259.35 465.549 257.612 463.873 257.612 463.873L232.331 460.803Z" fill="#288453"/>
<path d="M160.637 422.851C145.506 437.063 100.856 466.181 102.75 473.014C104.656 479.886 135.306 454.088 135.306 454.088C135.306 454.088 122.825 476.597 130.95 476.422C139.075 476.247 157.162 468.169 157.162 468.169C157.162 468.169 163.606 486.032 175.019 485.357C186.419 484.681 206.125 468.119 206.125 468.119C206.125 468.119 215.869 486.476 226.494 485.038C237.094 483.6 242.975 462.861 242.975 462.861C242.975 462.861 269.306 496.155 265.756 481.105C262.931 469.119 217.719 368.53 217.719 368.53C217.719 368.53 175.575 408.821 160.637 422.851Z" fill="#33A86D"/>
<path d="M217.244 359.045L150.237 421.976C150.237 421.976 154.094 424.489 161.469 424.439C168.869 424.383 176.619 414.56 176.619 414.56C176.619 414.56 172.281 425.715 180.444 426.859C188.637 428.009 196.725 413.247 196.725 413.247C196.725 413.247 208.787 431.886 218.906 431.017C229.062 430.141 226.581 417.862 226.581 417.862C236.925 429.841 256.231 453.869 255.919 443.422C255.606 433.036 229.531 386.437 217.244 359.045Z" fill="#F3E7D9"/>
<path d="M155.587 517.331C155.587 517.331 152.787 536.808 163.025 540.565C169.331 542.879 174.5 532.869 181.662 523.559C184.787 519.495 183.275 511.423 178.456 511.704L155.587 517.331Z" fill="#33A86D"/>
<path d="M192.425 560.767L196.243 571.527L196.481 584.245L198.675 600.545L193.95 589.247L193.631 574.253L190.2 560.067L192.425 560.767Z" fill="#4B3355"/>
<path d="M193.919 596.6L190.969 597.819L191.613 604.515L188.6 598.994L188.731 575.198L193.919 596.6Z" fill="#4B3355"/>
<path d="M185.1 548.612L189.469 553.064L185.513 586.208L182.844 574.929L185.1 548.612Z" fill="#4B3355"/>
<path d="M315.419 517.557C370.938 434.881 381.056 437.076 381.056 437.076C381.056 437.076 476.994 557.335 466.344 563.8C447.881 575.004 418.644 551.245 418.644 551.245C418.644 551.245 428.138 574.329 416.944 576.817C405.675 579.318 377.381 570.884 377.381 570.884C377.381 570.884 366.95 587.54 352.656 590.673C338.238 593.83 323.181 552.939 323.181 552.939C323.181 552.939 303.094 574.666 284.413 562.48C278.663 557.103 301.788 537.852 315.419 517.557Z" fill="#288453"/>
<path d="M373.881 516.756L372.5 626.493L397.163 621.003L381.862 508.503L373.881 516.756Z" fill="#665070"/>
<path d="M384.15 567.857L386.281 582.194L385.113 596.125L385.025 609.361L383.5 599.332L384.681 581.025L384.15 567.857Z" fill="#4B3355"/>
<path d="M377.338 545.399L380.75 560.842L379.306 582.613L376.6 615.082L376.1 600.064L376.988 579.931L378.506 559.998L377.338 545.399Z" fill="#4B3355"/>
<path d="M381.919 590.166L380.7 615.082L376.375 623.979L378.75 610.224L381.919 590.166Z" fill="#4B3355"/>
<path d="M373.013 531.099L373.006 554.721L383.444 556.991L390.238 569.533L383.188 522.846L373.013 531.099Z" fill="#4B3355"/>
<path d="M325.931 484.569C368.419 416.517 378.344 429.066 378.344 429.066C378.344 429.066 436.275 504.87 446.131 520.039C457.688 537.814 462.475 539.846 454.919 544.204C447.269 548.618 412.9 528.811 412.9 528.811C412.9 528.811 406.606 542.147 393.213 544.717C379.719 547.312 370.175 535.538 370.175 535.538C370.175 535.538 351.156 553.076 339.225 551.757C327.338 550.444 327.944 532.206 327.944 532.206C327.944 532.206 296.706 546.786 286.213 547.305C275.7 547.831 315.575 501.156 325.931 484.569Z" fill="#33A86D"/>
<path d="M349.7 450.681L313.344 501.325C313.344 501.325 319.113 509.991 329.769 510.423C340.438 510.86 349.656 502.019 349.656 502.019C349.656 502.019 364.962 518.282 372.456 518.238C379.95 518.194 388.331 502.976 388.331 502.976C388.331 502.976 404.887 515.35 411.319 514.268C417.731 513.192 420.363 498.649 420.363 498.649C420.363 498.649 431.969 503.758 433.631 499.093C435.275 494.485 399.794 452.394 393.881 438.539C388.6 426.146 362.894 437.594 349.7 450.681Z" fill="#288453"/>
<path d="M353.912 440.977C340.325 460.416 314.65 486.019 318.044 490.734C321.487 495.517 326.081 490.284 333.619 489.99C341.15 489.696 351.369 474.296 351.369 474.296C351.369 474.296 364.712 494.241 373.581 494.404C382.456 494.566 389 474.252 389 474.252C389 474.252 405.819 493.128 411.537 491.046C417.219 488.983 416.344 475.972 416.344 475.972C416.344 475.972 423.144 483.375 427.075 481.83C430.987 480.286 392.662 431.867 392.662 431.867C392.662 431.867 366.662 422.732 353.912 440.977Z" fill="#33A86D"/>
<path d="M375.862 406.289L339.775 457.577L356.987 452.494C356.987 452.494 361.387 464.005 365.381 464.005C369.381 464.005 383.769 454.013 383.769 454.013C383.769 454.013 390.556 464.205 395.425 463.673C400.281 463.142 403.762 453.926 403.762 453.926C403.762 453.926 418.681 462.542 413.444 456.027C384.444 419.95 375.862 406.289 375.862 406.289Z" fill="#F3E7D9"/>
<path d="M560.844 604.19C560.844 604.19 534.831 582.388 484.206 594.343C433.581 606.297 395.612 630.213 333.037 625.292C270.462 620.371 205.069 609.117 162.181 592.936C119.294 576.761 76.3999 579.574 58.1187 585.202C39.8374 590.829 57.4374 589.184 74.7499 592.148C92.0624 595.112 117.887 606.304 127.731 611.224C127.731 611.224 97.9124 604.465 98.1999 607.71C98.4874 610.949 192.187 657.067 248.669 659.43C319.531 662.4 381.175 650.902 450.081 626.286C502.937 607.391 546.781 600.67 560.844 604.19Z" fill="#856792"/>
</svg>
