<svg id="Layer_1" data-name="Layer 1" xmlns="http://www.w3.org/2000/svg" xmlns:xlink="http://www.w3.org/1999/xlink" viewBox="0 0 1218.77 919.14"><defs><style>.cls-1{fill:#dfddf9;}.cls-1,.cls-18,.cls-19,.cls-2,.cls-20,.cls-21{fill-rule:evenodd;}.cls-2{fill:#5f5fa2;}.cls-3{fill:#13005e;}.cls-4{fill:url(#linear-gradient);}.cls-5{fill:url(#linear-gradient-2);}.cls-6{fill:#ecb7b0;}.cls-7{fill:url(#linear-gradient-3);}.cls-8{fill:url(#linear-gradient-4);}.cls-9{fill:#3a28b1;}.cls-10{fill:url(#linear-gradient-5);}.cls-11{fill:url(#linear-gradient-6);}.cls-12{fill:url(#linear-gradient-7);}.cls-13{fill:#f44234;}.cls-14{fill:url(#linear-gradient-8);}.cls-15{fill:url(#linear-gradient-9);}.cls-16{fill:url(#linear-gradient-10);}.cls-17{fill:#dc847f;}.cls-18,.cls-23{fill:#9494d0;}.cls-19{fill:#7275c1;}.cls-20{fill:#c4c6ea;}.cls-21{fill:#cfd2ee;}.cls-22{fill:url(#linear-gradient-11);}.cls-24{fill:#8383bb;}</style><linearGradient id="linear-gradient" x1="112.95" y1="976.06" x2="86.7" y2="685.4" gradientUnits="userSpaceOnUse"><stop offset="0.01" stop-color="#0f0063"/><stop offset="1" stop-color="#170083"/></linearGradient><linearGradient id="linear-gradient-2" x1="201.69" y1="968.04" x2="175.44" y2="677.39" xlink:href="#linear-gradient"/><linearGradient id="linear-gradient-3" x1="136.61" y1="601.86" x2="142.44" y2="491.06" gradientUnits="userSpaceOnUse"><stop offset="0.01" stop-color="#f44234"/><stop offset="1" stop-color="#ff4e3e"/></linearGradient><linearGradient id="linear-gradient-4" x1="100.74" y1="599.98" x2="106.57" y2="489.17" xlink:href="#linear-gradient-3"/><linearGradient id="linear-gradient-5" x1="785.89" y1="512.22" x2="769.36" y2="713.43" xlink:href="#linear-gradient-3"/><linearGradient id="linear-gradient-6" x1="841.05" y1="641.66" x2="832.3" y2="978.97" xlink:href="#linear-gradient"/><linearGradient id="linear-gradient-7" x1="1027.81" y1="672.42" x2="1088.07" y2="421.62" xlink:href="#linear-gradient"/><linearGradient id="linear-gradient-8" x1="1146.85" y1="647.27" x2="1144.9" y2="1022.48" gradientUnits="userSpaceOnUse"><stop offset="0" stop-color="#fdc130"/><stop offset="1" stop-color="#faa868"/></linearGradient><linearGradient id="linear-gradient-9" x1="343.09" y1="698.96" x2="455.85" y2="459.84" xlink:href="#linear-gradient-8"/><linearGradient id="linear-gradient-10" x1="405.51" y1="978.1" x2="500.77" y2="665.09" gradientUnits="userSpaceOnUse"><stop offset="0" stop-color="#4c46d3"/><stop offset="0.98" stop-color="#615ff4"/></linearGradient><linearGradient id="linear-gradient-11" x1="94.06" y1="526.57" x2="161.13" y2="837.63" xlink:href="#linear-gradient-10"/></defs><title>TEAM-WORK-MODEL-03</title><path class="cls-1" d="M822.84,419.85c-.71,1.81-1.43,3.63-2.13,5.44-1.21-1.53-2.47-3-3.63-4.6s-2.08-4.37-3.07-4.35c-2.8.06-1.5,3.07-2.2,4.75s-1.67,5.08-2.49,5.07c-3,0-2.18-3.16-2.91-5.09-.6-1.63-1.2-4.42-2.13-4.57-2.8-.43-2.12,2.68-3.07,4.23s-2.43,4.68-3.3,4.56c-2.81-.4-1.5-3.28-1.88-5.2s-.93-3.56-1.4-5.34c-1.26,1.32-2.49,2.67-3.79,4s-2.8,2.71-4.21,4.07c-.27-1.94-.59-3.87-.82-5.81s-.33-3.65-.51-5.48c-1.44,1.14-3,2.19-4.33,3.44s-2.32,4.21-4.78,2.87c-.72-.39,0-3.45.07-5.28s3-4,.45-5.55c-.83-.51-3.25,1.64-5,2.48s-3.37,1.49-5,2.22c.32-1.81.57-3.65,1-5.45s2.07-4.68,1.39-5.4c-2-2.14-3.44,1.1-5.31,1.59s-3.59.84-5.38,1.24c.63-1.71,1.19-3.46,1.93-5.13s3-4.26,2.44-5c-1.76-2.63-3.76.37-5.76.67-.31,0-.6.36-.9.37-1.46,0-2.9,0-4.35,0a18.93,18.93,0,0,1,1.87-4.13c.93-1.2,2.47-1.89,3.54-3,.51-.54,1-1.82.76-2.22a3.07,3.07,0,0,0-2.35-1.17c-1.87.17-3.7.95-5.55,1-1.14.05-2.32-.72-3.48-1.12.58-1,1-2.21,1.8-2.89,1.27-1,3-1.55,4.25-2.56a10.41,10.41,0,0,0,1.82-2.73,11.48,11.48,0,0,0-3.08-1.29c-1.52-.16-3.14.39-4.62.14-1.13-.19-2.13-1.15-3.17-1.78.73-.86,1.31-2,2.24-2.5,1.54-.84,3.39-1.09,5-1.91.8-.42,1.25-1.52,1.87-2.32-.75-.56-1.41-1.41-2.23-1.61-1.82-.45-3.78-.37-5.57-.9-1-.29-1.68-1.42-2.52-2.16a10.76,10.76,0,0,1,2.64-2.15c1.31-.52,2.89-.34,4.22-.83a17.75,17.75,0,0,0,3.29-2,23,23,0,0,0-3.12-2.41c-1-.57-2.45-.55-3.43-1.18a17.86,17.86,0,0,1-2.8-2.83,17,17,0,0,1,3.67-1.62c1.49-.27,3.12.15,4.63-.08a8.9,8.9,0,0,0,2.62-1.46,8.69,8.69,0,0,0-1.72-2.48c-1.54-1.05-3.41-1.64-4.91-2.74-.76-.54-1-1.78-1.47-2.7,1-.41,1.91-1.21,2.84-1.16,2,.09,3.93.75,5.9.9a3,3,0,0,0,2.42-1,2.8,2.8,0,0,0-.79-2.45c-1.43-1.38-3.22-2.38-4.63-3.78-.66-.66-.75-1.9-1.09-2.88,1-.29,2.06-1,3-.79,1.81.37,3.51,1.35,5.33,1.79a9.45,9.45,0,0,0,3-.29c-.26-1.06-.26-2.29-.84-3.13-1.06-1.54-2.62-2.74-3.64-4.3a3.56,3.56,0,0,1-.1-3c.2-.41,1.91-.51,2.67-.17,1.82.79,3.45,2,5.25,2.87a7.52,7.52,0,0,0,2.71.18c0-1,.37-2.14,0-3-.88-1.9-2.21-3.59-3.12-5.48-.31-.66-.23-2.11.2-2.39a3,3,0,0,1,2.67-.12c1.67,1.06,3,2.61,4.69,3.68.85.54,2.1.49,3.16.71a9.89,9.89,0,0,0,.17-3c-.39-1.49-1.41-2.83-1.68-4.32a13.82,13.82,0,0,1,.42-3.94,14.23,14.23,0,0,1,3.64,1.66c1.24,1.05,2,2.65,3.22,3.78a2.9,2.9,0,0,0,2.48.71,3,3,0,0,0,.94-2.47c-.21-2.08-.9-4.12-1.09-6.2a2.8,2.8,0,0,1,1.2-2.35,3,3,0,0,1,2.46,1.06c1.19,1.59,2,3.49,3.12,5.09.56.74,1.69,1.05,2.57,1.56a9.19,9.19,0,0,0,1.25-2.74c.17-2-.16-4,0-6,.08-.81.88-2.06,1.5-2.15a2.91,2.91,0,0,1,2.29,1.41c.9,1.76,1.3,3.78,2.17,5.56.44.85,1.46,1.41,2.22,2.1a8.79,8.79,0,0,0,1.76-2.47c.46-1.7.33-3.56.83-5.24.32-1,1.35-1.81,2.06-2.71.77.82,1.87,1.52,2.24,2.49.56,1.42.41,3.1.9,4.55a15.67,15.67,0,0,0,1.9,3.13,13.88,13.88,0,0,0,2.4-2.65c.7-1.35.8-3,1.54-4.37a10.79,10.79,0,0,1,2.54-2.33c.57,1,1.49,1.89,1.66,2.93.25,1.73-.13,3.56.08,5.3.11,1,.92,1.82,1.4,2.73.85-.55,2-.91,2.5-1.68,1.08-1.53,1.69-3.39,2.8-4.9.55-.76,1.75-1.05,2.65-1.55.44.92,1.23,1.86,1.21,2.78,0,1.75-.66,3.49-.73,5.25a12.5,12.5,0,0,0,.79,3.26,10.65,10.65,0,0,0,2.94-1.47c1.12-1,1.78-2.58,2.94-3.59a12.74,12.74,0,0,1,3.36-1.53c.21,1.19.74,2.44.57,3.58-.23,1.5-1.17,2.89-1.49,4.38a13.91,13.91,0,0,0,.16,3.33,12.8,12.8,0,0,0,3.42-1.09c1.46-1,2.59-2.44,4.05-3.41a3,3,0,0,1,2.69-.25,2.9,2.9,0,0,1,.42,2.66c-.74,1.84-2,3.46-2.77,5.28a8.08,8.08,0,0,0-.1,3,8.7,8.7,0,0,0,3-.24c1.79-.85,3.36-2.16,5.17-3a2.87,2.87,0,0,1,2.65.35,2.83,2.83,0,0,1-.11,2.66c-1.08,1.66-2.63,3-3.72,4.66-.52.77-.43,1.93-.63,2.91a8.76,8.76,0,0,0,3,.3c1.8-.49,3.46-1.52,5.27-2,.89-.21,2,.39,3,.63-.27,1-.27,2.26-.88,3-1.24,1.39-3,2.36-4.23,3.73-.63.66-.76,1.81-1.11,2.75,1,.29,2,.9,2.91.81,1.86-.17,3.68-.93,5.54-1,.92-.07,1.91.73,2.86,1.13-.46.93-.69,2.15-1.43,2.72-1.47,1.15-3.31,1.81-4.81,2.94-.75.56-1.07,1.69-1.59,2.56a9.09,9.09,0,0,0,2.74,1.26c1.87.15,3.79-.23,5.64,0,.92.1,1.74,1,2.6,1.59-.61.85-1,2-1.85,2.46-1.65.88-3.58,1.2-5.25,2-.87.42-1.41,1.45-2.09,2.2a8.38,8.38,0,0,0,2.44,1.77c1.8.48,3.76.42,5.55.94.9.27,1.57,1.3,2.33,2-.72.74-1.32,1.79-2.2,2.12-1.42.54-3.09.41-4.54.91a18.43,18.43,0,0,0-3.39,2A22.59,22.59,0,0,0,867.3,367c1.25.67,2.8.76,4,1.46.84.48,1.33,1.55,2,2.36-.83.6-1.6,1.56-2.51,1.73-1.61.29-3.33-.06-5,.16a15.94,15.94,0,0,0-3.39,1.29,17.68,17.68,0,0,0,2.48,3c1.11.88,2.66,1.21,3.75,2.11a11.2,11.2,0,0,1,1.85,2.85c-1.15.44-2.28,1.23-3.44,1.26-1.5,0-3-.68-4.57-.75a12.76,12.76,0,0,0-3.22.73,12.07,12.07,0,0,0,1.59,3.17c1.29,1.35,3,2.31,4.3,3.63.51.52.91,1.93.6,2.32a3.11,3.11,0,0,1-2.51,1c-1.92-.43-3.72-1.43-5.66-1.87-1-.22-2.13.28-3.2.45a9.58,9.58,0,0,0,.85,2.88c1,1.43,2.54,2.53,3.47,4,.55.86.39,2.18.55,3.29-1.12,0-2.39.36-3.36,0-1.63-.63-3-1.87-4.65-2.56-.84-.36-1.95-.08-2.95-.1.07,1-.15,2.15.26,3,.84,1.79,2.16,3.36,3,5.17a2.87,2.87,0,0,1-.32,2.64,2.81,2.81,0,0,1-2.66-.11c-1.74-1.15-3.21-2.73-4.93-3.91a1.91,1.91,0,0,0-3.1,2.22c.47,1.7,1.53,3.24,1.92,4.95.26,1.13-.25,2.43-.41,3.66a12.54,12.54,0,0,1-3.4-1.28c-1.11-.86-1.75-2.32-2.82-3.25a15.85,15.85,0,0,0-3.2-1.73,13.88,13.88,0,0,0-.72,3.51c.1,1.75.76,3.48.86,5.23,0,.83-.52,2.18-1.12,2.4a2.93,2.93,0,0,1-2.5-1c-1-1.26-1.62-2.92-2.64-4.21a18,18,0,0,0-3-2.5c-.44,1.23-1,2.44-1.33,3.7a6.13,6.13,0,0,0,0,1.66Zm8.74-21.14C826,391,820.57,383.49,815,376a3.51,3.51,0,0,0-2.46-.8c-3-.1-5.92-.11-8.86,0a3.26,3.26,0,0,0-2.24.71c-5.58,7.53-11.07,15.13-16.56,22.7C795.92,407.7,818.93,407.78,831.58,398.71ZM764.82,350c-5.26,13.38,2.53,37.47,14.2,44.12,4.81-6.61,9.54-13.3,14.51-19.82,1.89-2.48,3-4.48.83-7.5-1.07-1.48-.94-3.81-1.48-5.71-.25-.84-.67-2.09-1.29-2.3C782.68,355.77,773.74,352.9,764.82,350Zm72.68,44.29c14.09-10.66,18.68-32.51,14-44.23-8,2.58-16,5.25-24,7.71-2.56.79-4.17,1.65-4.2,4.83,0,2.06-1.46,4.1-2.12,6.19-.27.82-.56,2-.16,2.61C826.41,379.08,832,386.67,837.5,394.29ZM767,343c9,2.95,17.88,5.87,26.74,8.62.75.24,1.93-.45,2.72-1,2-1.35,3.75-3.16,5.9-4.19a3.26,3.26,0,0,0,2.15-3.52c-.06-7.43,0-14.86,0-22.29v-4.85C788.31,316.64,772.19,328.34,767,343Zm82.5,0c-5.63-15-24.24-28.28-37.52-26.84,0,8.36.1,16.77-.06,25.17-.06,2.84.42,4.69,3.44,5.75,1.75.61,3.06,2.46,4.69,3.6.77.54,2,1.2,2.71,1C831.6,348.82,840.41,345.89,849.47,342.93Z" transform="translate(-40 -46.86)"/><path class="cls-2" d="M584,465.64a57.14,57.14,0,0,0,6.19-1.08,41.71,41.71,0,0,0,5-2.14,40.68,40.68,0,0,0-4.08-3.49c-1.18-.78-2.82-.92-4-1.75a14.73,14.73,0,0,1-2.47-3.2c1.16-.64,2.28-1.62,3.51-1.82,1.66-.26,3.44.33,5.12.17a25.59,25.59,0,0,0,4.54-1.27,31.4,31.4,0,0,0-3.08-3.93c-1-1-2.64-1.35-3.63-2.35a18.88,18.88,0,0,1-2.28-3.79c1.53-.41,3.06-1.23,4.56-1.14,1.93.12,3.79,1.12,5.74,1.4,1,.14,2.09-.48,3.14-.75-.31-1.14-.3-2.57-1-3.37-1.53-1.78-3.61-3.11-5.12-4.91a4.32,4.32,0,0,1-.53-3.5c.15-.48,2.16-.82,3.11-.53,2.13.63,4.08,1.89,6.22,2.52,1.16.34,2.55-.11,3.85-.2-.24-1.17-.17-2.52-.77-3.48-1.23-2-3-3.71-4.17-5.74-.48-.81-.52-2.57,0-3.13s2.22-.61,3.16-.25c1.45.55,2.61,1.81,4,2.46a57.76,57.76,0,0,0,5.47,1.87,57.26,57.26,0,0,0-1.16-6c-.39-1.37-1.49-2.53-1.84-3.9-.26-1-.1-3,.4-3.18a4.25,4.25,0,0,1,3.52.37c1.8,1.28,3.17,3.17,4.92,4.54.89.69,2.24.8,3.38,1.19.26-1.29.91-2.64.71-3.84-.42-2.31-1.48-4.51-1.94-6.82-.17-.85.34-2.5.91-2.69a3.62,3.62,0,0,1,3.12.65c1.69,1.81,2.94,4,4.59,5.91.67.76,1.92,1,2.89,1.48.52-1.08,1.46-2.17,1.44-3.24-.06-2.35-.81-4.7-.8-7a4.23,4.23,0,0,1,1.91-3c.43-.27,2.17.76,2.72,1.6,1.21,1.86,1.87,4.09,3.1,5.94.68,1,2,1.58,3.12,2.35a12.36,12.36,0,0,0,1.64-3.24c.33-1.8-.07-3.75.35-5.51.36-1.46,1.48-2.73,2.27-4.09,1.06,1.2,2.41,2.25,3.08,3.62.8,1.63.81,3.62,1.56,5.3.46,1,1.64,1.74,2.49,2.59.78-.93,1.91-1.75,2.27-2.82.71-2.11.79-4.44,1.53-6.53.39-1,1.7-1.74,2.58-2.6.82.92,2,1.73,2.36,2.8.54,1.87.31,4,.78,5.87a19.06,19.06,0,0,0,2,3.88,20,20,0,0,0,3.2-3.31c1-1.67,1.34-3.77,2.4-5.4a4.29,4.29,0,0,1,3.13-1.63c.52,0,1.48,1.77,1.52,2.77.12,2.36-.39,4.75-.25,7.1.07,1.08,1,2.11,1.6,3.16,1-.55,2.19-.89,2.8-1.7,1.43-1.87,2.41-4.12,3.92-5.91.69-.82,2.2-.95,3.34-1.39.37,1.05,1.17,2.16,1,3.15-.25,2.21-1.16,4.34-1.41,6.55-.14,1.23.54,2.55.84,3.84,1.2-.52,2.61-.8,3.55-1.62,1.6-1.37,2.74-3.25,4.37-4.56.87-.69,2.33-.62,3.52-.9.24,1.2.93,2.54.62,3.58-.6,2.14-1.91,4.07-2.59,6.18-.36,1.08,0,2.39.1,3.59,1.19-.16,2.58,0,3.51-.56,2-1.23,3.68-3,5.73-4.2.92-.52,2.41,0,3.64,0,0,1.13.29,2.45-.19,3.36-1.1,2.09-2.75,3.88-3.84,6-.48.94-.14,2.31-.17,3.49a12.2,12.2,0,0,0,3.25,0,24.72,24.72,0,0,0,3.13-1.65c2.17-.94,4.62-3.55,6.53-.85.63.89-1.74,4-3,6-.6,1-1.84,1.58-2.41,2.58s-1,2.38-.57,3a3.42,3.42,0,0,0,3,.82c2.44-.54,4.77-1.62,7.2-2.11a2.35,2.35,0,0,1,2.21,4.12c-1.47,1.48-3.43,2.46-5,3.9a19.45,19.45,0,0,0-2.38,3.61,20.51,20.51,0,0,0,4.49,1.17c1.95.06,3.92-.62,5.88-.58,1,0,2,.9,3,1.4-.55,1.09-.82,2.58-1.7,3.2-1.82,1.25-4.06,1.9-5.95,3.09-1,.6-1.53,1.83-2.29,2.77,1.12.69,2.16,1.77,3.35,2,2.06.38,4.25,0,6.32.37,1.11.19,2.09,1.25,3.14,1.93-.85,1-1.49,2.49-2.58,3-1.87.91-4.12,1-6,1.85-1.13.49-1.91,1.77-2.84,2.69,1,.76,1.82,1.82,2.91,2.2,1.72.6,3.73.45,5.39,1.17,1.39.61,2.44,2,3.66,3-1.23.84-2.33,2-3.69,2.43-1.88.51-4,.19-5.88.62-1.1.25-2,1.28-3,2,.76.95,1.33,2.22,2.32,2.77,2.06,1.13,4.43,1.72,6.49,2.87a3.49,3.49,0,0,1,1.64,2.73c-.14.77-1.61,1.71-2.58,1.83-1.8.2-3.68-.35-5.49-.19a29.29,29.29,0,0,0-4.93,1.27,25.46,25.46,0,0,0,3,4c1.25,1.13,3,1.67,4.27,2.82.84.79,1.13,2.19,1.66,3.31-1.15.44-2.29,1.29-3.42,1.25-1.81-.07-3.58-.93-5.4-1.09a26.37,26.37,0,0,0-4.66.41,26.71,26.71,0,0,0,2.26,4.39c1,1.33,2.71,2.17,3.72,3.52.7.92.76,2.33,1.09,3.52-1.31.27-2.75,1-3.89.72-2.14-.58-4-2-6.17-2.63-1-.32-2.32.24-3.5.4.15,1.07,0,2.32.53,3.17,1,1.68,2.67,3,3.56,4.72.68,1.34.6,3.07.86,4.62a26.18,26.18,0,0,1-4.74-.73c-1.2-.42-2.1-1.68-3.29-2.15a34,34,0,0,0-4.85-1.18,22.88,22.88,0,0,0,.7,4.65c.65,1.85,1.93,3.49,2.52,5.35a3.53,3.53,0,0,1-.6,3.12c-.64.48-2.36.2-3.15-.36-1.69-1.23-3-3-4.65-4.27a17.9,17.9,0,0,0-4-1.68,20,20,0,0,0-.36,4.58c.26,1.81,1.31,3.49,1.57,5.29.17,1.14-.48,2.38-.76,3.58-1.29-.42-2.9-.47-3.74-1.3-1.58-1.56-2.53-3.73-4-5.35-.74-.79-2.15-.94-3.26-1.38-.39,1-1.11,2.07-1.08,3.09,0,2.1.8,4.19.72,6.26-.06,1.35-1.09,2.67-1.69,4-1.09-.79-2.52-1.38-3.24-2.43-1.17-1.73-1.74-3.85-2.85-5.64-.53-.87-1.68-1.37-2.56-2-.71,1-1.86,1.88-2,2.93-.39,2.33-.07,4.77-.48,7.1-.18,1-1.43,1.87-2.2,2.8-.84-.73-2.09-1.28-2.46-2.19-.9-2.18-1.24-4.59-2.15-6.76-.42-1-1.71-1.61-2.59-2.41-.73.83-1.8,1.55-2.12,2.52-.64,2-.62,4.23-1.39,6.15-.5,1.25-1.92,2.13-2.93,3.19-.77-1.12-1.88-2.13-2.24-3.37-.5-1.74-.21-3.71-.7-5.46a16.35,16.35,0,0,0-2.14-3.71,17.23,17.23,0,0,0-2.79,2.81c-.77,1.2-.85,2.87-1.7,4a29.49,29.49,0,0,1-3.93,3.71,27.42,27.42,0,0,1-1.64-4.82c-.22-1.4.45-2.92.25-4.32a18.61,18.61,0,0,0-1.54-4,14.6,14.6,0,0,0-3.24,2.29c-1.26,1.51-2,3.46-3.27,4.93-.76.87-2.15,1.17-3.26,1.73-.48-1.24-1.37-2.51-1.3-3.72.1-1.94,1.06-3.82,1.29-5.76a15.31,15.31,0,0,0-.62-3.95c-1.32.53-2.87.8-3.93,1.65-1.51,1.23-2.53,3.08-4.05,4.3-.88.72-2.34.72-3.53,1.05-.25-1.32-1-2.75-.66-3.92.59-2.13,2-4,2.62-6.16.31-1-.28-2.32-.46-3.49-1.07.18-2.33.08-3.16.61-2.12,1.35-4,3.11-6.05,4.44-.74.47-2.48.56-2.86.09a3.69,3.69,0,0,1-.53-3.15c.68-1.68,2.11-3,2.84-4.71a31.13,31.13,0,0,0,1.38-5.12,40,40,0,0,0-5.28,1c-1.6.53-3,1.73-4.62,2.18-1,.28-2.64.06-3.14-.59s-.27-2.39.3-3.16c1.41-1.89,3.34-3.38,4.78-5.24.69-.89.75-2.27,1.08-3.43-1.17-.25-2.42-.88-3.52-.66-2.06.39-4,1.51-6,1.84-1.23.2-2.61-.54-3.92-.84.49-1.26.69-2.79,1.55-3.68,1.35-1.4,3.3-2.21,4.71-3.57.91-.86,1.32-2.27,2-3.43-1.24-.43-2.47-1.17-3.71-1.19-1.68,0-3.39.76-5.06.67A19.54,19.54,0,0,1,586,494.7c.89-1.29,1.56-2.9,2.75-3.79,1.55-1.17,3.64-1.59,5.25-2.7.9-.61,1.29-2,1.91-3-1-.53-1.87-1.41-2.88-1.53-3-.37-6-.43-9.06-.62v-4c2.84-.94,5.72-1.76,8.49-2.89.9-.36,2-1.55,2-2.32s-1.28-1.86-2.19-2.16c-2.72-.88-5.54-1.45-8.32-2.13ZM661,527a55.28,55.28,0,1,0-55.07-54.86A55.24,55.24,0,0,0,661,527Z" transform="translate(-40 -46.86)"/><path class="cls-2" d="M656.37,524.5c1.88-10.78,3.64-21.27,5.66-31.73.21-1.12,1.79-2.22,3-2.88,2.4-1.33,5.25-1.95,7.36-3.59s3.61-1.76,5.9-.49c9.09,5,18.3,9.84,27.45,14.71C698,516,673.38,528,656.37,524.5Z" transform="translate(-40 -46.86)"/><path class="cls-2" d="M702.29,438c12.34,13.1,15.82,36.76,8,54.34l-24.65-13a21.79,21.79,0,0,0-2.79-1.46c-2.74-1-3.77-2.63-3.22-5.7a9.14,9.14,0,0,0-.79-5.76c-2.12-3.66-.34-5.58,2.17-7.92C688.19,451.82,695.19,444.89,702.29,438Z" transform="translate(-40 -46.86)"/><path class="cls-2" d="M609.44,483.43c10.92-1.53,21.62-3.07,32.33-4.42.94-.12,2.23.76,3,1.53,2.34,2.26,4.58,4.63,6.73,7.07a4.43,4.43,0,0,1,1.3,2.86c-1.77,10.78-3.68,21.53-5.57,32.26C631.5,521.55,611.47,500.84,609.44,483.43Z" transform="translate(-40 -46.86)"/><path class="cls-2" d="M608.15,474.2c-2.17-17.87,8.88-38.72,25.43-48,.82,1.57,1.71,3.13,2.5,4.72,3.9,7.93,7.72,15.89,11.67,23.78,1,2,1.15,3.42-.64,5.17a10,10,0,0,0-3,5c-.72,4.09-3.24,5-6.82,5.39C627.63,471.37,618,472.84,608.15,474.2Z" transform="translate(-40 -46.86)"/><path class="cls-2" d="M694.38,430c-7.48,8.2-14.74,16.22-22.13,24.11a4.38,4.38,0,0,1-3.39.7c-3.71-.59-7.37-1.45-12-2.39-4.56-9.38-9.61-19.76-14.66-30.12C656.39,414.22,682.75,418.67,694.38,430Z" transform="translate(-40 -46.86)"/><path class="cls-2" d="M661.25,482.68a10.81,10.81,0,0,1-11-10.61,10.86,10.86,0,1,1,11,10.61Z" transform="translate(-40 -46.86)"/><path class="cls-3" d="M118.89,724.68c-1.75.48-2.93,2.51-3.74,7a59.78,59.78,0,0,0,11.59-1.37C123,725.46,120.53,724.23,118.89,724.68Z" transform="translate(-40 -46.86)"/><path class="cls-4" d="M117.62,820.73c-4-38.27-4.38-52.81-3.83-70.9.25-8.4.66-14.2,1.36-18.11-9.59.15-19.11-2.29-26.16-9.16a49.42,49.42,0,0,1-12.92-21.07c-3.5,8.8-9.52,25.42-7.3,54,2.37,30.62,16.58,84.39,23,113.36,6,27.43,20.72,76.07,22.28,81.19.09.29.13.47.13.47h11.31c6.92,0,7.29-1.46,7.29-1.46S121.62,859,117.62,820.73Z" transform="translate(-40 -46.86)"/><path class="cls-5" d="M253,945.74c-2.55-7.73-33.12-100.24-40.28-125.92C205.28,793,189.06,745.28,183,730.15c-4.09-10.31-8.18-19.75-10.38-24.74a85,85,0,0,1-7.11,6.57c-2.44.78-5.22-1.82-6.89-3.77a35.61,35.61,0,0,1-14,15.46,64.38,64.38,0,0,1-17.91,6.68c3.74,4.88,8.74,13.39,15.48,27.5,13.48,28.26,40.82,88.77,52.67,115.37S236.82,947,236.82,947l16.39-.73Z" transform="translate(-40 -46.86)"/><path class="cls-6" d="M119.51,545.69l-.35.07a15.58,15.58,0,0,1-2.22.24,23.54,23.54,0,0,1-3.36,0,7,7,0,0,1-.16,1,39.65,39.65,0,0,0-1,5.55,5.27,5.27,0,0,0,.33,1.3,3.09,3.09,0,0,0,1.39,1.66c2.13,1.19,3.82.75,4.69-.68a3.79,3.79,0,0,0,.48-1.12,5.21,5.21,0,0,0,.18-1.23C119.58,550.28,119.55,547.34,119.51,545.69Z" transform="translate(-40 -46.86)"/><path class="cls-6" d="M165.55,712c2.23.5-4.87,5.23-10.58,9s-10.32,2.7-10.32,2.7,6.58-4.06,9.3-9.34a32.17,32.17,0,0,0,3.21-8.06S160.68,710.89,165.55,712Z" transform="translate(-40 -46.86)"/><path class="cls-6" d="M298.25,492.49c0-1.59,1-7.11-3.18-10.15s-7.52-3.53-8.25-2.43,5.71,4.62,5.71,4.62-12.76-7.9-16.59-7.17c-3.56.67,8.2,6.44,8.2,6.44s-10.7-6-12.41-4.74,8,5.53,8,5.53-7-3.14-8-1.89c-1.16,1.52,11.66,6.32,11.66,6.32a25.7,25.7,0,0,0,7.11,2C295.57,491.88,298.25,492.49,298.25,492.49Z" transform="translate(-40 -46.86)"/><path class="cls-6" d="M554.05,429.92c-1.72-.52-5.75-17.08-4.29-18.18s5,9.36,5.47,8.81,2.3-13.55,4-14.76,1.33,12.88,1.33,12.88,3-15.55,5.35-14.46-.6,14.7-.6,14.7,2.79-9.72,4.86-8.51S568.72,423,568.72,423s3.16-6,4.37-5.1-.85,12.39-.85,12.39S555.41,430.33,554.05,429.92Z" transform="translate(-40 -46.86)"/><path class="cls-6" d="M675.16,548c-.73-3.16-1.1-10.32-3.16-10.45s0,6.8,0,6.8-7.42-8.74-9.11-8.5,4.37,10.69,4.37,10.69-8.07-9.08-9.48-8c-1.13.85,6.8,12.52,6.8,12.52s-6.31-5.83-7.65-4.74,6.8,10.39,6.8,10.39-5.51-4.44-6.94-3.95S666,563,666,563a23.24,23.24,0,0,1,3.24-8.14A39.9,39.9,0,0,1,675.16,548Z" transform="translate(-40 -46.86)"/><path class="cls-6" d="M1124.05,424.29c-3.65-5.1-24.22-29.32-33.33-36.13s-12.88-10.44-14.34-11.05-10.81,1.46-12-1,10.68-2.55,11.17-3.39-12-12.64-11.27-14.7,11.51,8,12.36,6.68-8.38-9.86-7-12.52,11.55,9.72,11.68,9.23-4.51-7.28-3-8.5,7.29,7.65,7.41,7.17-2.56-6.8-.86-7.17,8,11.54,9.85,13.12,12.87,8.75,25.39,18.47a284.5,284.5,0,0,1,24.07,21.39,111.13,111.13,0,0,1-11.18,10.81C1127.65,420.85,1124.05,424.29,1124.05,424.29Z" transform="translate(-40 -46.86)"/><path class="cls-7" d="M151.7,560.19c-2.38-2.32-5.84-4.47-9.24-6.6s-6.67-4.24-8.72-6.52c-2.41-2.68-2.61-6.6-2.37-9.4a17,17,0,0,1-11.86,8c0,1.65.07,4.59,0,6.76a5.21,5.21,0,0,1-.18,1.23,3.79,3.79,0,0,1-.48,1.12,8.36,8.36,0,0,0,1.79,3.2c3.38,3.74,9,3.65,9.84,9.39s-3.06,13.22,4.12,21.32,18.39,6.65,22-2.36S156.43,564.84,151.7,560.19Z" transform="translate(-40 -46.86)"/><path class="cls-8" d="M128.91,492.21c-5.56-4.28-9.94-5.47-18.77-3.92-8.24,1.45-11.3,6.29-13,14.49S93,515.17,87,521.09s-8.48,8-7.85,15.68c.52,6.29,2.48,13.08,1.19,18.84a13.24,13.24,0,0,1-1.29,3.58c-3.54,6.38-10.19,12.58-4.63,24.61s12.12,15,22,14.38,19.15-12.29,19.53-20.95-3.39-18.59-3.6-21.87c0-.5,0-1,0-1.54s0-.86.08-1.3a39.65,39.65,0,0,1,1-5.55,7,7,0,0,0,.16-1c-.23,0-.48,0-.71,0-10-1-15.14-8.82-16.22-18.3-1.21-10.69,2.51-13.73,9-16.15,3.57-1.34,10.56,0,16.28.35s8.63-2.3,10.44-1.45c.76.35,1.43,1.15,1.84,3a10.59,10.59,0,0,0,.8-2.19C136.2,505.33,134.47,496.49,128.91,492.21Z" transform="translate(-40 -46.86)"/><path class="cls-6" d="M133.72,530.19a21.9,21.9,0,0,1-1.2,5,18.09,18.09,0,0,1-1.17,2.42,14.34,14.34,0,0,1-1.6,2.27,17.63,17.63,0,0,1-10.24,5.78,2.58,2.58,0,0,0-.36,0,13.72,13.72,0,0,1-2.2.24,21.18,21.18,0,0,1-3.38,0l-.7,0c-10-1-15.14-8.84-16.22-18.32-1.22-10.7,2.51-13.73,9-16.15,3.58-1.34,10.58,0,16.29.35s8.64-2.3,10.44-1.46c.76.35,1.43,1.14,1.82,3.06C134.77,516.13,134.77,521,133.72,530.19Z" transform="translate(-40 -46.86)"/><path class="cls-9" d="M125.45,950.51H114.14s0-.18-.13-.47c-3,.39-9,1.8-11.25,4.11-2.37,2.46-.28,5.11,7.38,5s23.52-.26,24.42-1.08.27-7.11-1.82-9C132.74,949.05,132.37,950.51,125.45,950.51Z" transform="translate(-40 -46.86)"/><path class="cls-9" d="M265.86,949.23c-2.07-2.37-12.83-3.49-12.83-3.49h0l.18.57-16.39.73,3.72,7.38h25.32S267.92,951.61,265.86,949.23Z" transform="translate(-40 -46.86)"/><path class="cls-6" d="M819.75,483.31c-6.8,0-6.8-6.07-8-10.32s-7.9-7.91-11.45-6.32-4.71-4.63-5.21-6.93c-.42-2-4.79-2.37-9.78-1.84-.06,5.69.28,22.31,5.65,31.49,5.83,10,12.52,10.32,18.72,9.35a7.63,7.63,0,0,0,3-1.26,20.57,20.57,0,0,0,6.43-7.64,16.3,16.3,0,0,0,2.06-7A2.65,2.65,0,0,1,819.75,483.31Z" transform="translate(-40 -46.86)"/><path class="cls-10" d="M893,624.24c-.15-5.23-1.13-37.65-3.26-57.94-2.3-22.11-13-60.51-19.55-68.53s-16.29-8-33.79-2.31a158.87,158.87,0,0,0-14.92,5.8,5.24,5.24,0,0,1-4.16,4.41c-.6.13-1.21-.53-1.83-1.63-9.42,4.54-18,9.47-24.66,13.54-11.41,6.92-19.55,19.42-25,31.83S745.64,590.12,740,594.49s-18,7.9-28.06-3.77S682.57,554.88,675.16,548A28.87,28.87,0,0,0,665.32,563c-.18.63,9.72,15.67,17.61,29.65s16.77,31,36.34,37.23,33.41-.79,45.56-16.58S780.51,579.79,786,582s6.57,14.81,7.3,35.22,1,59.06,1,59.06,19.56,3.53,55.53-13.12S893,625,893,625,893,624.71,893,624.24Z" transform="translate(-40 -46.86)"/><path class="cls-6" d="M821.45,499.71c-.38-2.46-1.52-6.85-2.36-9.87a20.57,20.57,0,0,1-6.43,7.64,62.83,62.83,0,0,0,2.83,6.56c.62,1.1,1.23,1.76,1.83,1.63a5.24,5.24,0,0,0,4.16-4.41A5.82,5.82,0,0,0,821.45,499.71Z" transform="translate(-40 -46.86)"/><path class="cls-3" d="M824.74,453.18c-3.65-16.16-13.37-18.84-20.18-20.54s-10.32-1.09-12.14,1.58-5.55,6.93-7.1,4-5.9-1.09-9.67,6.44,1.86,14.34,7.63,13.49c.68-.11,1.35-.19,2-.26,5-.53,9.36-.2,9.78,1.84.5,2.3,1.66,8.51,5.21,6.93s10.23,2.06,11.45,6.32,1.21,10.32,8,10.32a2.65,2.65,0,0,0,1.4-.46C825.17,480.4,828,467.69,824.74,453.18Z" transform="translate(-40 -46.86)"/><path class="cls-9" d="M783.91,955.25a64.4,64.4,0,0,1-11.71-.5h0c-5.05,0-11,2.08-13.56,4.87s-1.45,5.35,5.6,5.71,21,.61,26-2.07,4-9.89,4-10.3c0,.6,0,.94,0,.94A53.69,53.69,0,0,1,783.91,955.25Z" transform="translate(-40 -46.86)"/><path class="cls-9" d="M910.41,946.88c-.79.5-3,1.61-8,2.17a43.36,43.36,0,0,1-13.12-.85s0,0,0,0c-3.89,1.71-10.86,7-11.16,8.78-.37,2.19,5.71,3.46,18.35,2.28s14.45-2.22,14.82-3.89C911.56,953.9,912.39,949.25,910.41,946.88Z" transform="translate(-40 -46.86)"/><path class="cls-11" d="M896.06,872.13c-3.28-17.85-10.2-63.66-10.33-85.29s4.68-40.83,8.69-63.43,3.83-50.85,2.19-72.91S893,624.24,893,624.24c0,.47,0,.74,0,.74s-7.29,21.51-43.25,38.16-55.53,13.12-55.53,13.12c-1,4.37-11.91,34-19.08,55.64s-15.31,41.69-15.79,66.6,3,75.28,4.73,95.51c1.91,22.31,7.42,60.63,7.42,60.63l.68.11a64.4,64.4,0,0,0,11.71.5,53.69,53.69,0,0,0,10.33-1.35s0-.34,0-.94c.08-7.76.63-62.29,1-85,.37-24.42,4-62.34,10.45-83.61s21-54.18,25.16-62.32,11.78-19,13.12-16.77-2.2,59.89-1.1,75.33-2.19,41.55,15.07,90.4c7.38,20.91,30.92,76.14,31.33,77.12,0,0,0,0,0,0a43.36,43.36,0,0,0,13.12.85c5-.56,7.24-1.67,8-2.17a3.25,3.25,0,0,0,.36-.27S899.35,890,896.06,872.13Z" transform="translate(-40 -46.86)"/><path class="cls-6" d="M976.92,469.32a6.21,6.21,0,0,0,1.16-.22c-2.19-7.18-9.6-34.88-11.67-42.54S963.86,416,965,413.93s4.61-7.78,3.76-9.12-5.71,4.38-5.71,4.38-3.4-14.58-5.1-14.47,1.09,14,0,14.1-4.86-15.55-6.69-15.67.24,15.31,0,15.92-4.74-12.52-5.71-11.79,2.07,13.37,2.07,13.37-3.62-7.41-4.74-7,2.55,12.52,2.79,15.07,4.26,22.23,6.2,33.77c1.62,9.6,3.73,18.35,4.41,21h0Z" transform="translate(-40 -46.86)"/><path class="cls-6" d="M1090.6,524c.39-1,.68-5.24.87-8.87a8.13,8.13,0,0,1-3.75-.13,15,15,0,0,1-6,1.75c.25,3.28,1,8.59,1,8.59h.18c2.42-.32,4.89-.62,7.37-.93A1.07,1.07,0,0,0,1090.6,524Z" transform="translate(-40 -46.86)"/><path class="cls-6" d="M1084.89,513.72c-4.6-3-2.31-7.94-1.34-13.53s-3.64-12.14-8.87-16.52c-4-3.39-6.34-5.19-8.3-8.82-2.09,3.5-4.3,18.65-1.92,27.78,2.57,9.71,8.64,14.1,15.2,14.21a17.06,17.06,0,0,0,2-.08,15,15,0,0,0,6-1.75A10.1,10.1,0,0,1,1084.89,513.72Z" transform="translate(-40 -46.86)"/><path class="cls-9" d="M1090.25,524.43c-2.48.31-5,.61-7.37.93C1083.85,525.41,1088.8,525.62,1090.25,524.43Z" transform="translate(-40 -46.86)"/><path class="cls-9" d="M1101.26,474.43c-5.06-7.21-17.61-21.51-29.23-18.19-4.91,1.4-9.59,8.32-7.21,14.77a29.5,29.5,0,0,0,1.64,3.7c1.93,3.65,4.21,5.47,8.23,8.89,5.2,4.41,9.77,11,8.75,16.59s-3.33,10.5,1.26,13.53a9.9,9.9,0,0,0,2.81,1.31,8.09,8.09,0,0,0,3.74.16c3.67-.69,7.67-4.05,11-12.56C1107.83,488.45,1106.3,481.65,1101.26,474.43Z" transform="translate(-40 -46.86)"/><path class="cls-12" d="M1176.87,449.41c-10.81-19.81-33-43.81-32.8-43.5s-20.79,17.37-20.79,17.37,17.5,22.73,23.58,43.38,5.65,53.52-16.65,55.78c-11.8,1.19-26.21.35-40,2-1.45,1.19-6.4,1-7.37.93-6.49.84-12.7,1.71-18.29,2.42-19.19,2.43-34.87,7.89-45.92,3.15s-22.36-16.76-31.59-38.87-9-23-9-23l-1.16.22-20.68,4.14c.7,5.84,4.59,32.81,14.92,53.1s32.31,33.91,46.77,42.29,29.41,11.54,31.24,17.86,3.52,30.62,4,47.75,1.2,25.88,1.2,25.88,23.83,6,46.91,6.69,45.93-9.36,45.93-9.36-1.21-49.45-1-66.58-.12-26.26,7.66-33.79,28.43-22.35,32.2-47.75S1186.21,466.52,1176.87,449.41Z" transform="translate(-40 -46.86)"/><path class="cls-13" d="M1071.81,705.9c11.91,2,11.8-20,11.8-20l-18.95-4S1059.91,703.9,1071.81,705.9Z" transform="translate(-40 -46.86)"/><path class="cls-13" d="M1118.06,683.49s9.11,23.14,16.77,17.86,2-22.23,2-22.23S1118.79,682.94,1118.06,683.49Z" transform="translate(-40 -46.86)"/><path class="cls-6" d="M1055.14,946.27c.17.05,0,5.45,0,7.06,3.9-.79,7.48-1,9.68-.09a3.12,3.12,0,0,1,.93.58l.9-4.75a19.75,19.75,0,0,1-5.22-.93Z" transform="translate(-40 -46.86)"/><path class="cls-6" d="M1238.85,951.44l-1.59-5.39a51.89,51.89,0,0,1-6.56-.1,37.27,37.27,0,0,0-9.58,1l3,7.85a37.22,37.22,0,0,1,12.94-3.33C1237.64,951.44,1238.23,951.43,1238.85,951.44Z" transform="translate(-40 -46.86)"/><path class="cls-14" d="M1213.38,848.07c-6-24.42-33.35-97.32-42.28-122.66l-23.88-67.74s-22.84,10.08-45.93,9.36-46.91-6.69-46.91-6.69c-.6,6.44-3,31.95.62,70.12s6.68,52.85,6.43,77.39.32,57.18-2.24,76.86-6.93,60.7-6.93,60.7l2.88.86,6.3,1.87a19.75,19.75,0,0,0,5.22.93c2.81.08,3.46-.93,3.46-.93s20.78-52.5,28.44-88.59,8.74-82.19,7.83-102.42-2.37-35.73-2.18-39,2.18-7.29,7.65.54,31.35,62.89,43.19,91.31,35.55,79.48,45.75,100.25,18.42,37.18,18.42,37.18l1.9-.44a37.27,37.27,0,0,1,9.58-1,51.89,51.89,0,0,0,6.56.1c1,0,1.64-.1,1.64-.1S1219.4,872.49,1213.38,848.07ZM1071.81,705.9c-11.9-2-7.15-24-7.15-24l18.95,4S1083.72,707.91,1071.81,705.9Zm63-4.55c-7.66,5.28-16.77-17.86-16.77-17.86.73-.55,18.77-4.37,18.77-4.37S1142.48,696.07,1134.83,701.35Z" transform="translate(-40 -46.86)"/><path class="cls-3" d="M1065.76,953.82a3.12,3.12,0,0,0-.93-.58c-2.2-.87-5.78-.7-9.68.09a49.62,49.62,0,0,0-10.54,3.38c-6.93,3.09-9.48,9.47-5.83,9.29s27.33-1.27,27.33-1.27S1068.8,956.5,1065.76,953.82Z" transform="translate(-40 -46.86)"/><path class="cls-3" d="M1238.85,951.44c-.62,0-1.21,0-1.77,0a37.22,37.22,0,0,0-12.94,3.33c.28.73,1.28,9.55,2.91,9.18s31.72.91,31.72-3.64C1258.77,956.11,1246.83,951.54,1238.85,951.44Z" transform="translate(-40 -46.86)"/><path class="cls-6" d="M458.29,526.7a55.42,55.42,0,0,0-1.9,6.89,4.82,4.82,0,0,0,0,2.7c.91,1.56,4.25,1,5.92-.95a5.08,5.08,0,0,0,.41-.51,21,21,0,0,0,1.82-4.09A13.64,13.64,0,0,1,458.29,526.7Z" transform="translate(-40 -46.86)"/><path class="cls-6" d="M491.69,512.69a70.22,70.22,0,0,1-5.78,9.48c-2.63,3.59-5.86,6.68-9.91,8.17l-1.08.35a18.37,18.37,0,0,1-10.34.06,13.6,13.6,0,0,1-6.29-4.06,12.91,12.91,0,0,1-2.21-3.29c-1.44-3.06-1.66-7-1.49-10.41a46,46,0,0,1,1-7.44c-3.76,1.08-4-4.75-1.93-8s4.12-3.29,4.84.73a47.22,47.22,0,0,0,6.45-.49c3-.5,4.87-1.46,8.29-4.87a5.36,5.36,0,0,1,3-1.6,9,9,0,0,1,1.8-.91c.94,0,1.35.82,1.84,1.43,1.61,3.06,3.67,7.67,6.22,6.06s4.64-2.68,5.34-.23a7.67,7.67,0,0,0,3.87,3.71C495.6,504.16,494.8,506.77,491.69,512.69Z" transform="translate(-40 -46.86)"/><path class="cls-3" d="M508,482.09c-2.92-4.12-5.84-1-9.11-5.47s-7.41-6.32-10.09-3.64-7.17,4.74-10,1.95-21.63-4.38-20.9,11.17c.21,4.42-.85,4.74-3,6.93s-1.13,5.1-2.5,7.16-4.18,2.69-3.21,7.91c.75,4,3.37,5.87,5.44,4.88a45.68,45.68,0,0,1,1-7.43c-3.77,1.09-4-4.74-1.94-8s4.13-3.28,4.85.72a48.29,48.29,0,0,0,6.45-.48c3-.49,4.85-1.46,8.26-4.86a5.46,5.46,0,0,1,4-1.71c1.18-.39,2.17-.3,2.65.61v0c1.61,3,3.69,7.66,6.22,6.06s4.62-2.68,5.35-.24a7.61,7.61,0,0,0,3.86,3.72,7.88,7.88,0,0,0,9.38-1.69C510.64,494,510.88,486.23,508,482.09Z" transform="translate(-40 -46.86)"/><path class="cls-15" d="M578.75,474.32c-3.09-26.49-6.51-44-6.51-44l-18.19-.41s1.9,28.48,3,52-1.46,35.71-15.86,50.66-23.5,19.87-42.1,13.66c-11.58-3.85-24.77-7.42-36.74-10.9-1.67,2-5,2.51-5.92.95a4.82,4.82,0,0,1,0-2.7c-5-1.51-9.7-3-13.8-4.48-15.13-5.46-32.62-10-45.38-4.92s-42.47,20.59-55.78,25.89-23.87,10.21-30.62-4.93-12.56-52.66-12.56-52.66L283.47,489c-.9,7.84-3.46,41.37,2.74,62.33S305.9,582,320.1,585.8s38.83-4.92,49.4-11.48,16.23-12,17-7.48-7.85,14.58-15.14,40.1-11.66,47.57-11.66,48.3S374.78,668,407.05,673.1s50.31-1.64,50.31-1.64-2.92-10.94,5.64-29.35,22.06-43.74,24.79-47.94,3.1-4.36,19-4.54,59-18.78,68.89-48.12S581.56,498.46,578.75,474.32Z" transform="translate(-40 -46.86)"/><path class="cls-3" d="M361.78,944.43s.06-.3.15-.86h0a10.23,10.23,0,0,0-2.69,7.3c.23,1,4,5.1,12.5,7s13.13,2.06,13.49.61c.32-1.24-7.6-7.21-10-9l-.34.52C368.6,948.69,361.78,944.43,361.78,944.43Z" transform="translate(-40 -46.86)"/><path class="cls-3" d="M545.75,953.9c-7-1.56-9.8-3.06-10.62-3.6h0c-.67,1.06-1.51,8.59,0,10.29s24.72,2.67,30.07,2.31,4.87-6.41-7.83-10.86h0C556.41,953,553,955.53,545.75,953.9Z" transform="translate(-40 -46.86)"/><path class="cls-16" d="M537,810.77c-19.19-56.62-79.64-139.31-79.64-139.31s-18.06,6.74-50.31,1.64S359.66,656,359.66,655.24c-3.22,10.2-9.78,37.43-4,73.39s18.71,57.83,23.57,74.12,3.17,27.46,0,51.52-8.52,41.07-11.43,56.38c-2.53,13.36-5.27,29.11-5.92,32.92-.09.56-.15.86-.15.86s6.82,4.26,13.12,5.65l.34-.52c2.46-3.92,18.88-30.19,33.45-56.4,15.79-28.44,27.7-51,20.89-79.48s-18.46-65.85-20.41-80.44.73-21.38,8.27-20.16,28.68,28.43,51.51,59.3,31.6,42,41.56,83.1,24.3,94.6,24.3,94.6l.32.22c.82.54,3.58,2,10.62,3.6,7.28,1.63,10.66-.94,11.6-1.86.18-.17.31-.32.31-.32S556.2,867.39,537,810.77Z" transform="translate(-40 -46.86)"/><path class="cls-17" d="M455,502.79l-.11,0a.37.37,0,0,1-.24-.46,14.52,14.52,0,0,0,.46-3.92.37.37,0,0,1,.73,0,14.36,14.36,0,0,1-.5,4.17A.35.35,0,0,1,455,502.79Z" transform="translate(-40 -46.86)"/><path class="cls-18" d="M782.87,265.61c-6.18.28-12.41.21-18.52,1-2.65.35-5.07,2.47-7.59,3.78,1.5,2.4,2.52,5.43,4.62,7,3.16,2.42,7.54,3.31,10.57,5.84s5,6.29,7.42,9.51c-3.83,1.1-7.64,3-11.49,3.09-4.26.09-8.54-1.94-12.84-2.13-2.36-.1-6,1.08-6.86,2.8-.79,1.57.7,5.27,2.32,6.9,3.26,3.29,7.8,5.35,10.85,8.78,2.37,2.68,3.3,6.66,4.86,10.07-3.65.51-7.39,1.74-10.93,1.32s-6.9-3-10.52-3.67c-3.25-.6-6.73.1-10.12.23,1.18,3.44,2,7.11,3.67,10.28,1.27,2.38,4.28,3.85,5.49,6.25,1.94,3.84,3,8.11,4.46,12.19-4.53-.52-9.1-.82-13.57-1.66-1.7-.33-3.06-2.31-4.78-2.82-4.08-1.19-8.3-2-12.47-2.9.89,4.09,1.32,8.36,2.8,12.21s4.66,6.79,5.85,10.54a10.59,10.59,0,0,1-1.4,8.28c-.73,1-5.25.11-7.45-1.06-3-1.57-5.11-4.63-8-6.33-3.93-2.3-8.26-3.92-12.41-5.83.4,4.78.49,9.62,1.32,14.33.54,3,2.79,5.74,3.13,8.72.32,2.77-.89,5.71-1.43,8.57-3-.82-6.81-.77-8.94-2.62-3.94-3.43-6.65-8.23-10.4-11.93-1.69-1.66-4.62-2.07-7-3-1,2.63-3,5.35-2.83,7.87.5,5.53,2.67,10.94,3,16.47.17,2.48-1.81,5.88-3.89,7.38-1,.72-5.27-1.44-6.67-3.32-3.31-4.47-5.43-9.83-8.77-14.28-1.52-2-4.79-2.73-7.26-4-1.16,2.31-3.07,4.56-3.3,7-.37,4.29,1,8.82.27,13-.67,3.82-3.17,7.31-4.86,10.94-2.66-2.69-5.79-5.07-7.81-8.17-1.8-2.78-1.9-6.67-3.65-9.52-1.87-3.06-4.79-5.47-7.26-8.16-1.8,3.25-4.13,6.33-5.24,9.79s-.32,7.66-1.67,11c-1.23,3-4.21,5.32-6.41,7.94-2.07-2.41-5-4.51-6-7.3-1.55-4.33-1.28-9.29-2.73-13.67-.93-2.78-3.58-5-5.46-7.46-2.12,2.34-4.92,4.37-6.23,7.1-2,4.18-2.34,9.16-4.52,13.19-1.37,2.54-4.82,4-7.32,5.9-1.56-2.48-4.1-4.83-4.45-7.47-.69-5.2.31-10.61-.33-15.82-.31-2.54-2.74-4.81-4.23-7.2-2.12,1.41-4.85,2.4-6.25,4.34-2.34,3.25-3.27,7.6-5.85,10.56-2.74,3.15-6.71,5.22-10.15,7.75-.92-3.94-2.51-7.86-2.59-11.81s1.95-7.94,2-11.92c0-2.61-1.88-5.23-2.93-7.85-2.38,1-5.36,1.41-7,3.12-3.65,3.8-6.2,8.69-10,12.23-2.09,1.92-5.9,2-8.94,2.88-.6-2.86-2.12-5.92-1.59-8.55.91-4.52,3.65-8.66,4.58-13.17.64-3.14-.46-6.63-.79-10-3.18,1.14-6.74,1.69-9.43,3.53-4.08,2.78-7.28,6.86-11.4,9.57-1.9,1.25-6,1.7-7.42.5s-1.93-5.24-1.1-7.38c1.77-4.59,5.06-8.58,6.92-13.15,1.23-3,1-6.64,1.47-10-3.32.38-6.92.09-9.89,1.32-4,1.64-7.21,5.05-11.19,6.62-2.81,1.09-6.32.37-9.52.47.53-3.39.14-7.3,1.76-10,2.49-4.22,6.68-7.41,9.47-11.48,1.35-2,1.15-5,1.65-7.5-2.74-.49-5.71-1.91-8.17-1.3-4.49,1.11-8.53,4.17-13,5-3.45.64-7.32-.87-11-1.43,1.38-3.2,2.19-6.83,4.27-9.47,2.25-2.87,6.14-4.42,8.45-7.26s3.4-6.39,5-9.64c-3.33-.56-6.69-1.73-10-1.54-4.3.25-8.56,2.23-12.81,2.22-2.93,0-5.84-2.13-8.75-3.3,1.61-2.76,2.66-6.25,5-8.1,3.85-3.05,8.78-4.74,12.8-7.62,2-1.42,2.93-4.25,4.35-6.43-2.42-1.5-4.72-4-7.26-4.29-4.58-.5-9.41,1.06-13.93.38-3.53-.53-6.72-3.16-10.07-4.85,2.38-2.56,4.33-5.88,7.22-7.51,4-2.24,8.95-2.78,13.06-4.91,2.33-1.21,3.78-4.12,5.63-6.27-2.32-1.71-4.41-4.26-7-4.93C436.09,242,430.32,242,425,240.54c-2.17-.6-5.09-3.6-5.08-5.5s2.86-4.93,5-5.59c5.33-1.59,11.09-1.7,16.43-3.25,2.55-.73,4.52-3.39,6.76-5.18-1.94-2.06-3.51-4.92-5.89-6-4.76-2.21-10.2-3-14.9-5.32-2.34-1.16-3.66-4.36-5.45-6.64,2.37-1.62,4.6-4.26,7.15-4.61,5.19-.72,10.61.26,15.82-.38,2.6-.32,5-2.62,7.44-4-1.56-2.38-2.64-5.37-4.76-7-3.18-2.41-7.58-3.28-10.56-5.84s-4.88-6.35-7.25-9.61c3.9-1,7.79-2.77,11.72-2.85,4.26-.08,8.55,1.86,12.85,2,2.32.07,6-1.25,6.69-2.92s-.9-5.26-2.58-6.88c-4-3.87-9-6.71-12.89-10.72-1.76-1.83-1.68-5.43-2.42-8.23,2.55-.65,5.29-2.23,7.62-1.76,4.82,1,9.31,3.59,14.14,4.55,3.15.61,6.63-.49,10-.82-.95-2.94-1.36-6.24-3-8.72-2.22-3.32-6-5.64-8-9.07-1.76-3.09-1.93-7.1-2.79-10.7,3.76.22,7.78-.31,11.21.87,4,1.39,7.37,4.74,11.37,6.31,2.44,1,5.57.15,8.38.14-.23-2.82.25-6-.84-8.39-1.77-3.94-5.25-7.16-6.71-11.15-1.23-3.33-.57-7.34-.75-11,3.66.94,7.52,1.43,10.92,2.94,2.45,1.09,4,4,6.45,5.28,3.7,1.91,7.79,3.08,11.72,4.56-.25-4,0-8-.89-11.83s-3.36-7.47-4-11.38c-.44-2.62,1.08-5.58,1.72-8.38,2.8.79,6.34.79,8.26,2.55,4.09,3.76,7.07,8.71,11.06,12.6,1.63,1.61,5.33,3,6.93,2.22s2.93-4.54,2.71-6.83c-.56-5.54-2.58-11-3-16.5-.19-2.58,1.93-5.36,3-8,2.62,1.2,6,1.76,7.66,3.76,2.95,3.53,4.45,8.24,7.3,11.87,2,2.61,5.27,4.28,8,6.37,1.34-3.42,3.4-6.75,3.86-10.29.53-4.25-.86-8.76-.28-13,.36-2.65,2.82-5,4.34-7.51,2.54,1.87,6,3.23,7.41,5.73,2.3,4,2.87,8.9,5,13,1.39,2.69,4.22,4.63,6.4,6.9,1.89-2.82,4.63-5.41,5.49-8.51,1.86-6.81,2.78-13.88,4.09-20.85h7.47c1.72,7.19,3.18,14.47,5.32,21.53.78,2.6,3.18,4.71,4.85,7,2.25-2.08,5.15-3.8,6.6-6.35,1.81-3.17,1.83-7.36,3.68-10.49,2-3.44,5.24-6.18,7.94-9.23,1.73,3.6,4.24,7,5,10.82.84,4.18-.31,8.73.25,13,.31,2.38,2.32,4.54,3.56,6.8,2.42-1.42,5.64-2.28,7.09-4.36,3.36-4.82,5.55-10.43,8.84-15.3,1.15-1.71,4.86-3.56,6.08-2.91,2,1.06,4,4.19,4,6.37-.16,5.54-2,11-2.16,16.58-.11,2.88,1.73,5.84,2.69,8.77,2.55-1.24,5.55-2,7.54-3.85,2.69-2.5,4.13-6.43,7-8.68,3.28-2.61,7.46-4.07,11.25-6,.21,4.33,1,8.72.43,13-.48,3.59-3.07,6.87-3.71,10.48-.48,2.63.68,5.57,1.12,8.37,2.74-.65,6-.59,8.12-2.11,4.52-3.21,8.21-7.62,12.79-10.77,1.91-1.32,6-1.75,7.59-.56s1.9,5.31,1,7.42c-2.13,5.13-5.67,9.67-7.88,14.76-1.05,2.4-.37,5.55-.48,8.37,2.81-.1,5.87.46,8.37-.46,3.12-1.16,5.6-4.14,8.75-5.24,4.32-1.51,9-2,13.55-2.92-1.53,4.6-2.63,9.42-4.75,13.72-1.47,3-4.77,5-6.47,7.88-1.23,2.08-1.2,4.91-1.72,7.4,2.73.53,5.72,2,8.13,1.4,5-1.36,9.66-4.45,14.74-5.62,2.77-.64,6.1,1.21,9.18,1.93-.89,2.78-1.11,6.13-2.84,8.22-2.74,3.29-6.94,5.35-9.72,8.62-2.29,2.69-3.41,6.37-5.05,9.61,3.38.57,6.79,1.74,10.12,1.56,4-.23,7.91-2.34,11.83-2.27,3.23.06,6.42,2.11,9.63,3.28-1.6,2.77-2.62,6.2-4.92,8.14-3.26,2.77-7.79,4-11.13,6.7-2.52,2-4,5.36-6,8.12,2.92,1.16,5.79,3.13,8.77,3.33,6.17.43,12.43-.07,18.64-.19v11.22c-5.82,2-11.8,3.76-17.4,6.31-2.12,1-4.7,3.92-4.59,5.82s3.28,4.4,5.47,4.85c5.4,1.12,11,1.21,16.52,1.71V235.7c-5.45,1-11,1.51-16.29,3-2.18.63-5.21,3.27-5.25,5.06s2.67,4.72,4.79,5.57c5.4,2.15,11.14,3.42,16.75,5Zm-243.66,73.7c36.21,27.28,101.66,24.38,130.32-.53-3.93-5.44-7.9-10.92-12.17-16.81-17,9-34.51,15.55-53.07,13.67-17.92-1.83-35.5-6.82-54.72-10.72C547.05,328.41,543.12,333.88,539.21,339.31ZM482.92,203.13c-15.74,34.54,5.8,101.78,39.54,123.91l12.1-17c-31.34-39.67-33.1-45.09-32.29-95.84,0-2.07-1.92-5.23-3.75-6.05C493.52,206,488.08,204.72,482.92,203.13ZM687,327.39c42.34-33.65,51.55-96.27,38.93-124.21-2.94.86-5.86,2-8.89,2.56-8.37,1.58-11.2,5-9.79,14.64,3.19,21.78-.66,43-12.13,62.09-5.86,9.74-13.2,18.59-20.21,28.29Zm33.14-144.34c-12.66-39.8-66.18-78.34-105.46-75.72,0,3.53.36,7.21-.07,10.79-.93,7.79,2,10.46,9.9,12.94,14.61,4.59,30,9.84,41.95,18.89,13.5,10.19,23.61,24.87,36.3,38.82ZM489.26,183c3.7,1.32,7.57,2.39,11.18,4.06,6.45,3,10.13,1.79,13.68-5.07,8.44-16.34,20.7-29.86,37.14-38.22,13.36-6.79,27.8-11.45,42.19-17.23V107C552.21,106.77,499.18,145.47,489.26,183Zm81.32,113.17c23.5,10.63,45,11.34,67.52-.32-4.16-5.91-7.89-10.83-11.21-16s-6.58-7.53-13.63-5.69c-6.3,1.64-13.5-.22-20.29-.22-2.47,0-6,.08-7.2,1.59C580.65,281.62,576.2,288.34,570.58,296.13Zm-35.43-77.34c-6.89,21.5,2.48,50.67,18,62.71,25.77-13.31,9.67-33.1,8.19-50.85Zm139,1.17c-5.78,1.84-11.53,4-17.47,5.46-6.13,1.49-9.13,4-9.62,11.18-.46,6.52-4.33,12.77-6.29,19.27-.71,2.3-1.28,5.61-.16,7.35,4.29,6.74,9.27,13,14,19.51C671.8,268.56,680.9,239.51,674.16,220ZM668,200c-9.44-21.36-33.21-38.13-53.36-37.75,0,5.16.5,10.41-.12,15.53-1,8.39,1.09,13.72,10,16.7,4.91,1.64,8.57,6.85,13.12,10,2.23,1.54,5.48,3.33,7.73,2.79C652.86,205.49,660.07,202.68,668,200Zm-126.58-2.31c20.32,20.42,34.34,1,50.2-6.71,1.18-9.64,2.37-19.28,3.75-30.45C569.44,165.64,552.45,178,541.46,197.72Z" transform="translate(-40 -46.86)"/><path class="cls-19" d="M413.81,231.85c-2.43-.09-4.86-.32-7.28-.23-.94,0-1.84.76-2.76,1.18a10.78,10.78,0,0,0,1.5,2.57c.77.76,2,1,2.77,1.78a52,52,0,0,1,3.38,4,37,37,0,0,1-5.09.68c-1.18,0-2.36-.69-3.55-.75a9.06,9.06,0,0,0-2.65.7c.3.95.35,2.13,1,2.8,1.25,1.38,3,2.35,4.16,3.78.63.77.56,2.12.81,3.21-1,.15-2.13.63-3,.38-1.69-.46-3.22-1.51-4.9-2a9.68,9.68,0,0,0-3.23.19,11,11,0,0,0,.84,3.16c1,1.58,2.42,2.89,3.37,4.48a2,2,0,0,1-2.58,2.92c-1.6-.71-3-2-4.55-2.7a15,15,0,0,0-3.54-.72,13.38,13.38,0,0,0,.33,3.55c.64,1.74,1.83,3.29,2.43,5.05a3,3,0,0,1-.71,2.56c-.33.34-1.76.07-2.34-.39-1.65-1.28-3.05-2.89-4.7-4.16-.67-.52-1.75-.48-2.64-.69-.22,1-.76,2-.58,2.9.38,1.82,1.37,3.53,1.67,5.36.17,1-.55,2.15-.86,3.22-1-.4-2.18-.57-2.85-1.26-1.29-1.34-2.19-3.06-3.44-4.45a7.58,7.58,0,0,0-2.44-1.24c-.41.91-1.16,1.82-1.15,2.73,0,1.75.72,3.5.68,5.23,0,1.12-.88,2.22-1.37,3.33-.93-.63-2.14-1.09-2.75-1.95-1-1.43-1.47-3.24-2.47-4.67-.51-.74-1.68-1-2.55-1.52a7.6,7.6,0,0,0-1.26,2.42c-.24,2,0,4-.28,5.94-.11.83-1.1,2.2-1.56,2.15a3.48,3.48,0,0,1-2.42-1.67c-.83-1.79-1.09-3.83-1.85-5.66-.32-.77-1.28-1.29-2-1.93-.66.74-1.66,1.36-1.95,2.22-.62,1.87-.72,3.91-1.35,5.79-.25.8-1.25,1.35-1.9,2-.71-.73-1.8-1.35-2-2.22-.5-1.79-.37-3.74-.83-5.54-.27-1-1.23-1.8-1.88-2.69a10.93,10.93,0,0,0-2.17,2.12c-.65,1.13-.72,2.63-1.44,3.68a24.13,24.13,0,0,1-3.24,3.23,19.94,19.94,0,0,1-1.46-4.08c-.18-1.39.4-2.87.25-4.28a8.23,8.23,0,0,0-1.33-2.69,8.59,8.59,0,0,0-2.54,1.57c-1.21,1.57-2,3.44-3.24,5a1.92,1.92,0,0,1-3.54-1.47c.19-2,.9-3.88,1.11-5.84a8.79,8.79,0,0,0-.71-2.9,8,8,0,0,0-2.76,1c-1.25,1.08-2.06,2.65-3.32,3.68a12.49,12.49,0,0,1-3.41,1.41c-.14-1.32-.61-2.7-.35-3.93.34-1.59,1.38-3,1.85-4.59a8,8,0,0,0-.17-2.68c-1,.1-2.17-.09-2.92.38-1.58,1-2.83,2.51-4.44,3.44-.87.51-2.19.25-3.3.34,0-1-.28-2.21.12-3.06.8-1.69,2.13-3.11,3-4.78.4-.82.17-2,.22-2.94a8.36,8.36,0,0,0-3,.1c-1.82.74-3.47,1.95-5.31,2.67a2.84,2.84,0,0,1-2.63-.4,2.91,2.91,0,0,1,.25-2.69c1.16-1.59,2.75-2.87,3.94-4.45.56-.74.56-1.9.82-2.86-1-.19-2-.71-2.92-.52-1.94.4-3.76,1.32-5.69,1.71a2.85,2.85,0,0,1-2.51-.84,2.91,2.91,0,0,1,.65-2.6c1.42-1.38,3.22-2.34,4.64-3.71.67-.64.82-1.81,1.21-2.74a7.66,7.66,0,0,0-2.59-.91c-1.75.08-3.49.73-5.24.68-1.13,0-2.24-.86-3.37-1.34a12.4,12.4,0,0,1,1.95-2.79c1-.81,2.47-1.06,3.49-1.85a23.4,23.4,0,0,0,2.81-3.06,20.64,20.64,0,0,0-3.68-1.41c-1.39-.26-2.92.12-4.29-.21a10.57,10.57,0,0,1-2.83-1.79c.78-.83,1.42-2,2.37-2.43,1.58-.74,3.43-.9,5-1.62.86-.38,1.43-1.39,2.13-2.11-.79-.65-1.47-1.59-2.37-1.87-1.88-.61-3.92-.73-5.8-1.35a2.85,2.85,0,0,1-1.73-2c0-.66,1.11-1.66,1.89-1.86,1.91-.47,4-.41,5.88-.87.91-.22,1.65-1.14,2.46-1.73-.65-.78-1.14-1.83-2-2.27-1.75-.91-3.74-1.37-5.48-2.31a2,2,0,0,1,.78-3.86c1.74-.16,3.53.29,5.28.16a14.58,14.58,0,0,0,3.43-1.15,13,13,0,0,0-2-2.94c-1.35-1.12-3.08-1.77-4.42-2.89a3,3,0,0,1-1-2.51,2.85,2.85,0,0,1,2.4-1.11c2,.19,3.87.93,5.84,1.15a8.38,8.38,0,0,0,2.9-.76c-.35-.95-.46-2.12-1.08-2.81-1.33-1.46-3-2.58-4.36-4a2.82,2.82,0,0,1-.51-2.6,2.85,2.85,0,0,1,2.56-.7c2,.56,3.87,1.62,5.86,2.23a1.9,1.9,0,0,0,2.34-3c-.71-1.23-2-2.12-2.65-3.36a23,23,0,0,1-1.37-4.38,20.88,20.88,0,0,1,4.45.71c1.31.49,2.32,1.7,3.6,2.32a8.21,8.21,0,0,0,2.71.3c.07-1,.47-2.13.13-3-.76-1.94-2-3.69-2.8-5.62-.27-.67-.08-2.12.38-2.37a3,3,0,0,1,2.66.05c1.69,1.22,3.06,2.86,4.71,4.14a7.52,7.52,0,0,0,2.6.77c.25-1,.86-2,.68-2.88-.38-1.82-1.36-3.52-1.74-5.34-.19-.93.37-2,.59-3,1.07.33,2.44.34,3.16,1,1.33,1.29,2.19,3,3.44,4.44a7.24,7.24,0,0,0,2.45,1.17c.4-.9,1.15-1.82,1.12-2.71-.08-2-.72-3.93-.75-5.89a3.58,3.58,0,0,1,1.48-2.58c.36-.24,1.85.59,2.33,1.28,1,1.43,1.53,3.2,2.54,4.63a13,13,0,0,0,2.74,2.27,15.76,15.76,0,0,0,1.41-3.34c.26-1.62-.08-3.35.23-4.95.18-.93,1.11-1.71,1.72-2.56.8.66,1.93,1.16,2.31,2,.79,1.69,1,3.63,1.74,5.35.38.87,1.37,1.5,2.08,2.23.66-.76,1.63-1.42,1.92-2.31.58-1.77.63-3.72,1.23-5.48.3-.89,1.34-1.53,2.05-2.27.75.82,1.87,1.55,2.15,2.51.49,1.79.32,3.76.77,5.57.2.88,1.2,1.56,1.83,2.34.68-.61,1.63-1.08,2-1.85.84-1.67,1.2-3.59,2.15-5.19.49-.87,1.77-1.28,2.71-1.9.48.91,1.31,1.8,1.39,2.74.13,1.86-.32,3.76-.2,5.62.07.92.9,1.78,1.38,2.66a7.9,7.9,0,0,0,2.31-1.45c.95-1.2,1.43-2.81,2.47-3.91a17,17,0,0,1,3.56-2.27,17.41,17.41,0,0,1,.75,3.91c0,1.29-.79,2.56-.85,3.86a15,15,0,0,0,.7,3.48,11.92,11.92,0,0,0,3-1.45c1.32-1.15,2.25-2.75,3.6-3.86.71-.58,1.94-.5,2.94-.72a15.19,15.19,0,0,1,.49,3c0,.73-.62,1.42-.79,2.17-.41,2-3.31,4-.8,5.74.81.57,3.53-1.56,5.33-2.53.67-.36,1.2-1.15,1.88-1.3a4.74,4.74,0,0,1,3,.09c.37.18.37,1.9,0,2.64-.89,1.77-2.21,3.31-3.13,5.07a7.53,7.53,0,0,0-.29,2.69c1,.06,2.13.47,3,.14,1.74-.7,3.23-2,5-2.61.94-.34,2.19.17,3.31.3-.2,1-.12,2.23-.68,3-1.16,1.59-2.75,2.87-4,4.43-.47.58-.82,1.93-.5,2.27a3,3,0,0,0,2.48.85c1.93-.42,3.73-1.44,5.67-1.8,1-.18,2.14.53,3.22.84a9.09,9.09,0,0,1-1.2,2.86c-.94,1-2.4,1.62-3.36,2.66a20.88,20.88,0,0,0-2.23,3.53,22.74,22.74,0,0,0,3.86.71c1.31,0,2.64-.66,3.92-.55a12.61,12.61,0,0,1,3.37,1.34,11,11,0,0,1-1.89,2.81c-1,.82-2.45,1.08-3.47,1.87a23.79,23.79,0,0,0-2.84,3.08,24.43,24.43,0,0,0,3.69,1.35c1.71.33,3.48.36,5.23.52v4c-2,.56-4.07,1-6,1.73-.68.25-1.65,1.29-1.54,1.77a3,3,0,0,0,1.75,1.93,53.44,53.44,0,0,0,5.81,1.21v4.64a45.49,45.49,0,0,0-5.51.48c-.91.18-1.66,1.06-2.49,1.62.72.82,1.28,1.94,2.19,2.38a52.42,52.42,0,0,0,5.81,2.16Zm-27.17-16v1.65c-.06,4.45,1.7,6.37,6,6.53,3,.12,4.47-1.65,4.55-5.94a46.3,46.3,0,0,0-13-34.07c-3.44-3.62-6.1-3.21-8.61,1-1.45,2.46-.75,4.3,1.06,6.21A35.29,35.29,0,0,1,386.64,215.88Zm-31.5,40.84c-.05,4.42,2.11,6.19,6.7,5a46.2,46.2,0,0,0,29.71-23.14c1.7-3.06,1.31-5.24-1-6.61-3.3-1.95-6.36-1.5-8,1.48a36.28,36.28,0,0,1-23.72,18.22C356.25,252.27,355.09,253.85,355.14,256.72Zm-7.81.3c.07-2.24-.79-4.44-3.87-5.11a36.48,36.48,0,0,1-24-16.8c-1.9-3-4.71-3.22-8-.86-2.53,1.78-2.34,4-.85,6.37,7.35,11.6,17.69,18.93,31.19,21.66C345.24,263,347.3,261.15,347.33,257Zm2.82-88.13c0,.27-.11.53-.17.8a46.83,46.83,0,0,0-20.12,4.82c-2.22,1.07-3.59,2.66-2.79,5.26,1.21,3.94,4.53,5.37,8.3,3.73,1-.44,2-.89,3.07-1.25a37,37,0,0,1,25,.23c3.2,1.13,5.79-.49,7-4.2.94-3-.62-4.78-3.28-5.46C361.5,171.37,355.82,170.18,350.15,168.89Zm-46.37,48c.08,1,.16,2.77.34,4.52.33,3.4,1.94,5.22,4.45,5.11,3.74-.17,6.21-2.57,5.92-6a37,37,0,0,1,8.06-27.22c2.15-2.7,1.48-5.46-1.66-7.94-2.09-1.65-4.33-1.17-6.51,1.49C307.44,195.38,304,205.19,303.78,216.92Zm39.85,13.18c6.21,3.75,14.53,1.47,18.77-4.75,4.69-6.9,2-16.57-3.14-19.26Q351.48,218.08,343.63,230.1Zm12.91-26.17c-7.81-3.45-15.82-.76-19.59,6.14-3.38,6.19-1.72,14.39,3.83,18.1C346,220.16,351.19,212.17,356.54,203.93Z" transform="translate(-40 -46.86)"/><path class="cls-20" d="M987,175.81c1.21,7,2.7,14.06,3.59,21.14.6,4.86,4.13,4.56,7.34,5.12s6.26,1.68,8.42-2.7c3.12-6.39,7.1-12.36,11-19l9.64,3.4c-1.17,7.34-1.85,14.65-3.61,21.68-1.5,6,3.41,6.19,6.19,8.47s5,2.06,7.71-.44c5.28-4.8,11-9.15,16.84-14l7.93,6.63c-3.85,6.88-7.33,13.58-11.29,20-3.15,5.09,1.85,6.67,3.82,9.22a7.35,7.35,0,0,0,6.14,2.2c4.42-.94,8.63-2.9,12.94-4.44,9-3.2,9-3.19,13.39,6.25-5.34,4.52-10.65,9.27-16.24,13.69-2.72,2.15-3.88,4.12-2.1,7.47s1.52,8.33,7.79,7.86c6.91-.53,13.88-.12,21.32-.12.66,3.59,1.24,6.81,1.89,10.32-7.26,2.73-14,5.63-21,7.81-5.23,1.63-3.3,5.55-3.6,8.78-.28,3-.44,5.84,3.63,7,4.38,1.2,8.6,3.08,12.89,4.66,9,3.32,9,3.32,5.85,13.41-7.07,0-14.41.32-21.7-.12-4.53-.28-5.27,2.54-6.15,5.62s-3.68,6.16.79,9.4c5.91,4.29,11.25,9.4,17,14.27-1.8,3.08-3.37,5.8-5.22,9-6.7-2.37-13.41-4.21-19.61-7.12-5.41-2.54-7.23.91-10.15,3.94s-2.94,5.4-.77,8.81c3.69,5.84,6.91,12,10.51,18.29L1054.2,389c-5.75-4.75-11.53-9.21-16.93-14.1-2.8-2.54-5-2.53-7.77-.32s-7.81,2.44-6.1,8.41c1.47,5.12,1.81,10.57,2.82,15.84.7,3.63.76,6.14-3.79,7.7-4.25,1.45-6.07.4-7.94-3.2-2.57-4.93-5.88-9.48-8.33-14.46-2-4.06-4.89-3.2-8-2.52-3.34.71-7,.22-7.6,5.54-.73,7.07-2.48,14-3.83,21.31H976.33c-1.29-6.89-3.08-13.81-3.73-20.84-.56-5.93-4.78-5.21-8.41-6.2s-5.93-.35-7.66,3.28c-1.87,3.93-4.41,7.55-6.63,11.31-4.79,8.07-4.78,8.07-13.87,3.26,1.17-7.07,2-14.36,3.67-21.47,1.4-6.07-4-5.86-6.6-8.21s-4.72-1.8-7.24.45c-5.34,4.75-11,9.18-16.94,14.14-2.64-2.18-5.17-4.24-8-6.6,3.75-6.61,7.2-13.05,11-19.28,1.77-2.88,1.87-5-.89-7.17s-3.36-7.57-9.18-5c-6.53,2.86-13.44,4.86-20.78,7.45l-5.51-8.82c5.62-4.8,10.87-9.6,16.47-14,3-2.36,3.94-4.59,2-8-1.73-3.18-1.19-8-7.32-7.4-6.29.62-12.71.19-19.07.22V308.33c5.72-2.19,11.55-4.12,17.08-6.72a6.67,6.67,0,0,0,3.07-5.2c-.11-3.19-.49-8.08-2.47-9.17-5.42-3-11.72-4.36-17.68-6.37V267.74c6.54.17,13.1.13,19.61.56,6.11.41,5.16-4.85,7-7.94s.75-5-1.8-7.07c-5.69-4.59-11.16-9.43-16.82-14.26l5.22-8.9c7.25,2.54,14.25,4.75,21,7.49,3.32,1.34,5.27.56,6.85-2.27,1.71-3.08,6.7-4.74,3.23-9.94-4-6.07-7.3-12.67-11-19.27l7.91-6.67c6.14,5.07,12,9.51,17.41,14.49,4.06,3.75,6.41,0,9.34-1.33s5.09-2.49,4.15-6.63c-1.63-7.13-2.5-14.44-3.75-22.09l9.58-3.58c4,6.68,8,12.62,11.14,19,2.51,5.19,6.12,2.7,9.57,2.53,3.62-.17,5.7-1.57,6.28-5.54,1-6.88,2.48-13.68,3.75-20.52Zm-8.69,44.53c-14.66-.7-36.06,7.68-41.37,15.79l31.25,37.15c10.12-3.56,10.12-3.56,10.12-13.44v-39.5Zm-19.24,145c15.33,4.45,29.7,4.57,44.83,0-5.59-15.4-10.76-29.93-16.26-44.33-.51-1.33-3.26-2.61-4.89-2.5-2.57.16-6.72.86-7.34,2.46C969.75,335.25,964.68,349.83,959.09,365.32Zm67.51-129.9c-11.6-9.91-31.58-16.83-42-14.5v39.67c0,10,0,10,10.48,12.39Zm28.62,49c-16,2.85-31.4,5.51-46.74,8.39-1.09.21-2.32,1.83-2.76,3.06-1.77,4.89-1.71,8.94,4.32,11.3,4.38,1.7,8.28,4.62,12.41,7l25.22,14.45C1054.52,314.33,1057.54,300.24,1055.22,284.43Zm-139.47,44c13.84-8,27.4-15.76,40.87-23.68a4.18,4.18,0,0,0,1.68-3.31c-.5-4.93-1.09-9.9-8.1-9.65-2.33.08-4.69-.77-7-1.17l-34.9-6.06C905.06,296.49,908.3,315.63,915.75,328.44Zm47.5-50.95L931.16,239.3c-11.38,11.19-19.18,23.28-22.08,38.91L947.79,285C957.83,286.72,957.83,286.72,963.25,277.49ZM918.72,334.2A75.41,75.41,0,0,0,953,363.09c5.59-15.42,11.11-30.06,16-44.92.51-1.53-2.52-4.61-4.44-6.4-1.08-1-3.74-1.71-4.87-1.08C946.22,318.22,932.87,326,918.72,334.2Zm113-94.75-31.85,37.93c5.12,9.5,5.12,9.49,14.74,7.74,3.52-.63,7-1.2,10.55-1.83l29-5.21A72.28,72.28,0,0,0,1031.69,239.45Zm12.58,94.79-42.94-24.87c-8.49,6.45-8.5,6.46-5.17,15.71,3.84,10.63,7.65,21.27,11.53,31.88.71,1.94,1.61,3.82,2.55,6A76.62,76.62,0,0,0,1044.27,334.24Z" transform="translate(-40 -46.86)"/><path class="cls-21" d="M204.37,357.41q-1.08,2.71-2.15,5.45c-1.21-1.53-2.46-3-3.62-4.61s-2.07-4.36-3.06-4.34c-2.82,0-1.51,3.07-2.21,4.75s-1.67,5.07-2.48,5.06c-3,0-2.19-3.15-2.92-5.08-.6-1.64-1.2-4.43-2.13-4.57-2.8-.43-2.12,2.67-3.07,4.23s-2.44,4.68-3.3,4.55c-2.81-.4-1.52-3.28-1.88-5.19s-.93-3.57-1.41-5.35c-1.25,1.33-2.49,2.68-3.78,4s-2.8,2.71-4.22,4.07c-.27-1.94-.58-3.87-.82-5.81s-.33-3.65-.49-5.47c-1.46,1.14-3,2.18-4.35,3.43s-2.31,4.22-4.77,2.88c-.73-.39-.05-3.46.07-5.29s2.94-4,.44-5.54c-.82-.51-3.24,1.64-5,2.48s-3.38,1.48-5.06,2.22c.32-1.82.57-3.66,1-5.45s2.07-4.69,1.4-5.4c-2-2.15-3.44,1.09-5.3,1.59s-3.6.83-5.39,1.24c.63-1.72,1.19-3.47,1.93-5.14s3-4.26,2.44-5c-1.76-2.62-3.77.38-5.75.68-.32,0-.62.37-.92.37-1.44,0-2.9,0-4.34,0a18.67,18.67,0,0,1,1.87-4.13c.92-1.19,2.46-1.89,3.54-3,.51-.54,1-1.81.75-2.21a3,3,0,0,0-2.36-1.17c-1.85.16-3.67.95-5.53,1-1.14.06-2.32-.72-3.48-1.12.58-1,1-2.21,1.79-2.89,1.27-1,3-1.54,4.26-2.56a10.35,10.35,0,0,0,1.82-2.72,11.52,11.52,0,0,0-3.08-1.3c-1.52-.16-3.14.39-4.63.15-1.12-.19-2.11-1.17-3.16-1.78.74-.87,1.31-2,2.23-2.51,1.55-.83,3.4-1.09,4.95-1.91.81-.42,1.27-1.52,1.88-2.32-.73-.56-1.4-1.41-2.22-1.61-1.83-.45-3.78-.36-5.57-.9-1-.29-1.7-1.42-2.52-2.16a10.8,10.8,0,0,1,2.64-2.15c1.31-.51,2.89-.34,4.22-.82a18.22,18.22,0,0,0,3.3-2.05,23.74,23.74,0,0,0-3.13-2.41c-1.05-.57-2.46-.54-3.44-1.18a17.74,17.74,0,0,1-2.79-2.82,16.35,16.35,0,0,1,3.67-1.63c1.49-.27,3.11.15,4.63-.08a8.7,8.7,0,0,0,2.61-1.45c-.56-.85-.94-1.95-1.71-2.48-1.54-1.06-3.42-1.65-4.92-2.74-.75-.55-1-1.78-1.47-2.7,1-.42,1.92-1.21,2.85-1.17,2,.09,3.91.76,5.9.9a2.92,2.92,0,0,0,2.41-1,2.8,2.8,0,0,0-.78-2.45c-1.43-1.37-3.23-2.37-4.63-3.77-.67-.67-.75-1.9-1.09-2.89,1-.29,2.06-1,3-.78,1.81.37,3.5,1.34,5.33,1.78a9.66,9.66,0,0,0,3-.28c-.26-1.06-.26-2.3-.83-3.13-1.07-1.54-2.63-2.74-3.64-4.31a3.47,3.47,0,0,1-.11-3c.21-.42,1.92-.51,2.68-.18,1.82.79,3.44,2,5.24,2.88a8,8,0,0,0,2.71.18c0-1,.38-2.15,0-3-.88-1.9-2.21-3.58-3.11-5.48-.31-.65-.23-2.11.2-2.38a3,3,0,0,1,2.67-.12c1.67,1.05,3,2.6,4.69,3.67.85.55,2.08.49,3.15.71a9.26,9.26,0,0,0,.17-3c-.38-1.48-1.41-2.83-1.67-4.31a14.24,14.24,0,0,1,.41-4,13.92,13.92,0,0,1,3.64,1.66c1.26,1,2,2.65,3.24,3.78a2.86,2.86,0,0,0,2.47.71,3,3,0,0,0,.94-2.46c-.22-2.09-.91-4.13-1.09-6.21a2.83,2.83,0,0,1,1.18-2.35,3,3,0,0,1,2.48,1.07c1.19,1.58,1.94,3.49,3.12,5.08.56.75,1.69,1.05,2.56,1.56a8.62,8.62,0,0,0,1.25-2.74c.18-2-.15-4,0-6,.08-.8.89-2.06,1.51-2.14a2.91,2.91,0,0,1,2.28,1.41c.91,1.76,1.31,3.77,2.18,5.55.42.86,1.46,1.42,2.22,2.11a8.79,8.79,0,0,0,1.75-2.48c.46-1.7.33-3.56.84-5.24.3-1,1.35-1.81,2.06-2.71.77.83,1.86,1.52,2.24,2.5.55,1.42.42,3.09.89,4.55a16.15,16.15,0,0,0,1.9,3.13,13.85,13.85,0,0,0,2.4-2.65c.71-1.36.81-3,1.55-4.37.52-1,1.66-1.57,2.53-2.34.58,1,1.5,1.9,1.66,2.94.27,1.73-.13,3.55.08,5.3a9.07,9.07,0,0,0,1.41,2.72c.85-.55,2-.91,2.5-1.68,1.08-1.53,1.69-3.38,2.79-4.89.55-.76,1.74-1,2.66-1.55.43.92,1.23,1.85,1.21,2.77,0,1.75-.66,3.5-.73,5.25a11.75,11.75,0,0,0,.79,3.26,11.07,11.07,0,0,0,2.94-1.46c1.12-1.05,1.78-2.6,2.94-3.59a12.76,12.76,0,0,1,3.36-1.54,12.37,12.37,0,0,1,.57,3.58c-.23,1.5-1.17,2.89-1.49,4.39a12.89,12.89,0,0,0,.16,3.32,12.9,12.9,0,0,0,3.42-1.08c1.45-1,2.58-2.45,4.05-3.42a2.93,2.93,0,0,1,2.67-.24,2.81,2.81,0,0,1,.43,2.66c-.74,1.83-2,3.45-2.78,5.28a8.71,8.71,0,0,0-.09,3,8.47,8.47,0,0,0,3-.24c1.79-.85,3.36-2.16,5.17-3a2,2,0,0,1,2.53,3c-1.08,1.66-2.62,3-3.72,4.66-.52.77-.43,1.93-.61,2.91,1,.12,2.08.55,3,.3,1.8-.49,3.47-1.52,5.28-2,.89-.22,2,.39,3,.62-.27,1-.27,2.27-.89,3-1.24,1.4-2.94,2.37-4.22,3.73-.64.67-.76,1.82-1.12,2.75,1,.29,2,.9,2.92.82,1.85-.18,3.67-.93,5.53-1.06.93-.06,1.92.73,2.87,1.13-.47.93-.69,2.15-1.44,2.73-1.46,1.14-3.32,1.81-4.81,2.93-.74.56-1.06,1.69-1.59,2.57a9.36,9.36,0,0,0,2.75,1.25c1.86.16,3.78-.23,5.64,0,.91.11,1.73,1,2.59,1.59-.61.84-1,2-1.85,2.47-1.64.87-3.58,1.2-5.26,2-.85.42-1.39,1.45-2.08,2.2.81.61,1.53,1.52,2.45,1.76,1.8.49,3.76.43,5.55.95.89.26,1.57,1.3,2.33,2-.73.74-1.33,1.8-2.2,2.13-1.43.53-3.09.4-4.54.9a18.18,18.18,0,0,0-3.4,2,23.7,23.7,0,0,0,3.32,2.58c1.25.67,2.82.77,4.05,1.46.84.48,1.33,1.55,2,2.36-.83.61-1.61,1.57-2.51,1.73-1.61.3-3.33-.06-5,.17a14.66,14.66,0,0,0-3.4,1.29,18.06,18.06,0,0,0,2.49,3c1.11.88,2.65,1.22,3.74,2.11a11.5,11.5,0,0,1,1.86,2.85c-1.15.45-2.28,1.23-3.44,1.27-1.51,0-3-.69-4.57-.75a11.93,11.93,0,0,0-3.23.73A12.16,12.16,0,0,0,242.4,324c1.29,1.35,3,2.31,4.31,3.64.51.51.91,1.93.59,2.31a3.08,3.08,0,0,1-2.5,1c-1.93-.42-3.74-1.43-5.66-1.86-1-.22-2.13.28-3.21.45a9.39,9.39,0,0,0,.86,2.88c1,1.43,2.53,2.53,3.46,4,.55.86.4,2.17.55,3.28-1.12,0-2.38.36-3.36,0-1.63-.63-3-1.87-4.64-2.56a8.31,8.31,0,0,0-3-.09,8.59,8.59,0,0,0,.27,3c.83,1.79,2.16,3.36,3,5.17a2,2,0,0,1-3,2.54c-1.76-1.16-3.22-2.73-5-3.92a1.91,1.91,0,0,0-3.1,2.23c.48,1.69,1.54,3.23,1.93,4.94.25,1.13-.25,2.44-.41,3.66a12.41,12.41,0,0,1-3.41-1.28c-1.11-.86-1.74-2.32-2.81-3.25a16.13,16.13,0,0,0-3.2-1.73,13.87,13.87,0,0,0-.72,3.52c.09,1.75.76,3.47.85,5.22a2.91,2.91,0,0,1-1.12,2.41,3,3,0,0,1-2.5-1c-1-1.26-1.61-2.92-2.64-4.2a17.59,17.59,0,0,0-3-2.51c-.44,1.23-1,2.44-1.33,3.7a5.75,5.75,0,0,0,0,1.66Zm8.72-21.14c-5.57-7.68-11-15.22-16.54-22.68a3.58,3.58,0,0,0-2.47-.8c-3-.1-5.91-.11-8.86,0a3.19,3.19,0,0,0-2.23.72c-5.58,7.53-11.07,15.13-16.57,22.69C177.44,345.26,200.44,345.34,213.09,336.27Zm-66.76-48.71c-5.26,13.39,2.54,37.47,14.2,44.12,4.82-6.6,9.55-13.3,14.51-19.82,1.89-2.48,3.05-4.47.84-7.5-1.07-1.47-.93-3.8-1.48-5.71-.25-.84-.67-2.08-1.3-2.29C164.2,293.34,155.25,290.46,146.33,287.56ZM219,331.85c14.1-10.66,18.68-32.51,14-44.23-8,2.58-16,5.26-24,7.71-2.57.79-4.17,1.65-4.21,4.83,0,2.07-1.45,4.1-2.12,6.19-.27.83-.56,2-.15,2.62C207.92,316.64,213.49,324.24,219,331.85Zm-70.54-51.34c9.07,2.95,17.88,5.87,26.75,8.63.75.23,1.93-.46,2.71-1,2-1.34,3.75-3.16,5.91-4.18a3.29,3.29,0,0,0,2.16-3.53c-.07-7.43,0-14.86,0-22.29V253.3C169.81,254.21,153.72,265.91,148.48,280.51Zm82.5,0c-5.62-15-24.23-28.28-37.52-26.84,0,8.37.11,16.78-.05,25.18-.06,2.83.4,4.68,3.43,5.74,1.76.61,3.07,2.46,4.7,3.6.77.54,2,1.21,2.71,1C213.12,286.38,221.93,283.45,231,280.49Z" transform="translate(-40 -46.86)"/><path class="cls-2" d="M338.58,288c.82,2.85,2,5.65,2.36,8.55.49,4.32,1.93,7.67,6.48,8.52s7.21-1.89,8.8-5.91c1.29-3.31,2.66-7.6,7-6.37s3.25,5.8,2.48,9.13c-1,4.52-.49,8.29,3.95,10.31s7.79-.05,10.3-3.92a7.6,7.6,0,0,1,2.9-3c1.66-.68,4.11-1.41,5.3-.66s1.67,3.34,1.49,5c-.2,2-1.35,4-2.27,5.88-1.82,3.74-1.11,7,2,9.48,3,2.38,6.16,2.27,9.28,0s6.88-6.58,10.49-2.46c3.17,3.61-.89,7-3.47,9.89s-3.3,6.28-.9,9.66,5.51,4.25,9.32,2.62c.49-.21,1-.42,1.47-.6,3.18-1.08,7-3,9.05.8s-1.43,6.09-4.27,7.86c-3.77,2.36-6.57,5.13-5,9.92,1.7,5,5.72,5.67,10.37,5a10.23,10.23,0,0,1,4.71.19c1.33.47,3.18,1.7,3.32,2.79a5.56,5.56,0,0,1-1.81,4.42c-1.94,1.42-4.45,2-6.72,3-3.53,1.46-5.87,4.35-4.75,7.84.8,2.56,3.54,4.8,5.92,6.47,1.58,1.12,4.32.53,6.06,1.53,1.59.93,3.6,3.07,3.48,4.5s-2.52,2.88-4.15,4c-.77.52-2.06.38-3.12.36-4.72-.12-8.59,1.21-9.53,6.39-.9,4.91,2.08,7.49,6.31,9.09a8,8,0,0,1,3.6,2.11c1.09,1.41,2.46,3.56,2.05,4.88s-2.77,2.58-4.44,2.81c-2,.28-4.31-1.22-6.18-.74-3,.75-6.48,1.83-8.33,4-2.42,2.83-1.07,6.36,1.68,9,1.78,1.69,3.8,3.22,5.2,5.2.77,1.09,1.13,3.42.48,4.31a5.73,5.73,0,0,1-4.41,1.93,15.81,15.81,0,0,1-5.87-2.2c-3.76-2-7.17-1.93-10,1.38s-2.34,6.75.18,10.14a15.38,15.38,0,0,1,2.88,5c.4,1.53.39,4.13-.53,4.81-1.25.93-3.7,1-5.3.47s-3.17-2.18-4.54-3.53c-3.06-3-6.44-3.78-10-1.35s-4.07,5.93-2.56,9.87c.7,1.79,1.64,3.69,1.58,5.52,0,1.67-.87,4.2-2.09,4.74s-3.7-.33-5.15-1.3-2.24-2.68-3.14-4.19c-2.18-3.63-5.26-5.41-9.36-4s-5.53,4.62-5,8.86c.25,1.91.64,4,.13,5.77s-1.87,3.86-3.2,4.13-3.6-1.17-4.64-2.5c-1.23-1.6-1.62-3.86-2.32-5.85-1.25-3.56-3.67-5.69-7.5-5.55-4.08.15-6.45,2.59-7.26,6.51-.36,1.73,0,3.82-.93,5.15-1.2,1.85-3.27,3.13-5,4.65a34.24,34.24,0,0,1-3.88-5.11c-.6-1.14-.24-2.78-.32-4.19-.24-4.11-1.91-7.26-6.22-8.14s-7,1.44-8.67,5.25c-.86,1.93-1.66,4.05-3.09,5.49-1,1.05-3.31,1.9-4.57,1.48s-2.43-2.51-2.6-4c-.21-2.2.4-4.53.79-6.77.72-4-.69-7-4.33-8.74s-6.48-.4-9,2.37a33.12,33.12,0,0,1-5.15,5.23c-1.06.76-3.44,1-4.32.32a5.73,5.73,0,0,1-1.82-4.46,16.67,16.67,0,0,1,2.27-5.85c2-3.73,2-7.22-1.26-10.1s-6.75-2.53-10.09.16c-1.11.9-2.2,2.19-3.45,2.41a41,41,0,0,1-6.93.1c.27-2.32-.17-5.06.94-6.83,1.83-2.94,4.68-5.24,7.05-7.76-4.13-8.91-6.37-9.64-15.62-6.93-2.34.69-5.32-.83-8-1.33a59.1,59.1,0,0,1,3.55-7c.72-1.07,2.37-1.47,3.52-2.32,3.08-2.29,4-5.41,2.62-8.91s-4.25-5.08-8.06-4.67c-1.06.11-2.23.73-3.12.43-2.6-.9-5.09-2.14-7.61-3.23,1.78-2.08,3.47-4.26,5.41-6.17.67-.66,2-.59,3-.94,3.73-1.34,6-3.89,5.58-8s-3-6.24-6.91-6.88-9.46-.18-9.08-5.7c.35-5,5.66-4.22,9.46-4.44,4-.22,6.84-2,7.67-6,.89-4.34-1.31-7.08-5.14-8.77-3.5-1.53-8.6-2.7-7.06-7.57s6.44-2.93,10.13-2c4.22,1,7.37-.2,9.29-4.05s.45-6.79-2.57-9.35-8-4.93-4.94-9.53c2.86-4.24,7-.79,10.38.93,3.84,2,7.22,1.56,10-1.79s2.05-6.51-.34-9.7-6.1-6.65-2.43-10.14c3.83-3.66,6.95.71,9.73,3.2,3.12,2.81,6.42,3.83,10.06,1.27s4-5.92,2.45-9.86c-1.44-3.54-4-8,.55-10.31,4.26-2.14,6.34,2.52,8.36,5.52,2.3,3.41,5.12,5.39,9.37,4.15s4.77-4.7,4.63-8.46c-.07-1.77-.42-3.7.15-5.27.7-1.93,2.23-3.58,3.4-5.34,1.73,1.28,3.76,2.32,5.09,3.93,1.06,1.27,1.21,3.28,1.88,4.91,1.4,3.46,3.9,5.56,7.75,5.19,4.06-.39,6.19-2.94,7-6.85.63-3.07,1.48-6.09,2.23-9.13Zm31.79,105.23a39.23,39.23,0,0,0-78.46-.48c-.11,21.43,17.76,39.55,39,39.52C352.48,432.27,370.32,414.63,370.37,393.25Z" transform="translate(-40 -46.86)"/><path class="cls-2" d="M355.59,398.1c.05,5-17.85,21.81-21.4,20.82-7.44-2.09-18.05-2.54-21.33-7.59-5-7.59-7.19-18.91-5.84-27.95.86-5.75,10.21-10.32,15.92-15.22a5.71,5.71,0,0,1,4.15-.73,38.26,38.26,0,0,1,6.33,2c5.59,2,13.8,2.43,16.2,6.37C353.64,382.42,354,391.31,355.59,398.1Z" transform="translate(-40 -46.86)"/><path class="cls-9" d="M159.51,672.52l.13.05a1.77,1.77,0,0,0,0-.21A.86.86,0,0,1,159.51,672.52Z" transform="translate(-40 -46.86)"/><path class="cls-9" d="M158.14,661.94c-.4.65-1.23,1-1.61,1.71s-.64,1.59-.37,2a2.3,2.3,0,0,0,2,.54c.2-.06.4-.14.6-.18-.18-1.38-.37-2.77-.55-4.17A.73.73,0,0,0,158.14,661.94Z" transform="translate(-40 -46.86)"/><path class="cls-9" d="M83.19,659.76c-.06.68-.13,1.33-.18,2a5.35,5.35,0,0,1,.56-.07A16,16,0,0,0,83.19,659.76Z" transform="translate(-40 -46.86)"/><path class="cls-22" d="M191.68,611.37c-8.28-30.49-19.33-48.23-23.58-52.85-4-4.29-11.49-4.7-25.64-4.93,3.4,2.13,6.86,4.28,9.24,6.6,4.73,4.65,8.56,17.14,4.92,26.16s-14.86,10.47-22,2.36-3.29-15.58-4.12-21.32-6.46-5.65-9.84-9.39a8.36,8.36,0,0,1-1.79-3.2c-.87,1.43-2.56,1.87-4.69.68a3.09,3.09,0,0,1-1.39-1.66h-.41c0,.53,0,1,0,1.54.21,3.28,4,13.22,3.6,21.87s-9.64,20.32-19.53,20.95-16.44-2.36-22-14.38,1.09-18.23,4.63-24.61a13.24,13.24,0,0,0,1.29-3.58c-6.66,2.44-13.31,6.73-20.51,18.59C51.57,587.8,40.7,604.69,40,631.91S48.17,673,56.55,685.37a76.36,76.36,0,0,0,14.16,16.2c.91.75,1.43,1.12,1.43,1.12a31.73,31.73,0,0,0,3.21-3.85,28.21,28.21,0,0,0,2.1-3.39,53.37,53.37,0,0,0,3.15-7A70.4,70.4,0,0,1,74.85,679c-.45-.87-.93-1.82-1.4-2.81A96.94,96.94,0,0,1,67,658.53c-4.75-18.36-3.29-33,.73-44S78,596.43,80.3,599.47,79.15,607,77.09,612.1s-3.4,10.46.49,15.44,6.8,6.43,6.93,15.67c0,2.17-.35,6.41-.78,10.84a9.39,9.39,0,0,0,1.36.86,37.53,37.53,0,0,0,3.66,1.25c-.26-1.34-.4-2.7-.78-4-.27-.92-1-1.69-1.23-2.61-.17-.67-.06-2,.27-2.1a2.82,2.82,0,0,1,2.34.24c1.2.86,2.12,2.11,3.29,3a7.66,7.66,0,0,0,2.23.8,7.25,7.25,0,0,0,.47-2.56c-.27-1.53-1-3-1.28-4.54-.12-.57.23-1.66.61-1.79a2.34,2.34,0,0,1,2.07.43c1.14,1.21,2,2.69,3.06,3.93a6.28,6.28,0,0,0,1.93,1c.34-.73,1-1.45,1-2.16,0-1.57-.54-3.13-.52-4.69a2.81,2.81,0,0,1,1.26-2c.29-.18,1.46.51,1.82,1.06.8,1.24,1.24,2.73,2.06,4a8,8,0,0,0,2.08,1.56,8.13,8.13,0,0,0,1.09-2.16c.22-1.19-.06-2.5.24-3.66a11.48,11.48,0,0,1,1.51-2.73,12,12,0,0,1,2,2.42c.53,1.08.53,2.4,1,3.51.31.69,1.09,1.16,1.67,1.73a7.14,7.14,0,0,0,1.51-1.88c.47-1.4.52-2.95,1-4.34.26-.69,1.13-1.17,1.73-1.74.53.62,1.35,1.15,1.57,1.87.36,1.25.2,2.64.52,3.91a12.7,12.7,0,0,0,1.29,2.58,13.05,13.05,0,0,0,2.14-2.2c.66-1.11.88-2.51,1.59-3.6a2.87,2.87,0,0,1,2.09-1.09c.34,0,1,1.18,1,1.85.07,1.57-.26,3.16-.17,4.73,0,.72.69,1.41,1.06,2.11a6.41,6.41,0,0,0,1.87-1.14c1-1.25,1.6-2.74,2.6-3.94.47-.55,1.47-.63,2.24-.91.24.69.77,1.43.7,2.08-.18,1.48-.78,2.89-.94,4.36a7.7,7.7,0,0,0,.55,2.56,9,9,0,0,0,2.37-1.07c1.06-.91,1.82-2.17,2.91-3,.57-.46,1.55-.41,2.34-.6.16.8.62,1.69.42,2.39-.41,1.42-1.29,2.7-1.75,4.11a7.81,7.81,0,0,0,.08,2.4,6.46,6.46,0,0,0,2.34-.38c1.34-.82,2.46-2,3.82-2.79.61-.35,1.6,0,2.42,0a5.49,5.49,0,0,1-.12,2.24c-.73,1.39-1.84,2.59-2.56,4a5.71,5.71,0,0,0-.11,2.32,8.23,8.23,0,0,0,2.16,0,20,20,0,0,0,2.09-1.1c.6-.26,1.23-.71,1.87-1-1.06-8.35-1.89-16.06-1.68-18.74.6-8,2.06-9.12,5-11.67a14.22,14.22,0,0,0,4.5-12.4c-.61-5.46-5.72-16.28-4.5-16.88s4.74,7.29,9.23,22.72a90.87,90.87,0,0,1,2.55,41.44,115.84,115.84,0,0,1-5.07,19.47,5.9,5.9,0,0,1,.59.06,6.82,6.82,0,0,1,2.09,1.27c-.56.7-1,1.67-1.71,2a12.85,12.85,0,0,1-2.56.77c-.53,1.29-1.06,2.48-1.6,3.62a1.11,1.11,0,0,0,.19.09c1.15.4,2.49.3,3.59.78a11.44,11.44,0,0,1,2.44,2,9.82,9.82,0,0,1-2.46,1.61c-1.24.35-2.64.12-3.91.42a6.84,6.84,0,0,0-2,1.31c.51.62.89,1.46,1.54,1.83,1.38.75,3,1.15,4.32,1.91a2.28,2.28,0,0,1,1.09,1.81c-.09.53-1.06,1.15-1.71,1.23-1.2.13-2.45-.24-3.66-.12a19.51,19.51,0,0,0-3.28.84,16.55,16.55,0,0,0,2,2.64c.82.76,2,1.11,2.84,1.88a7.11,7.11,0,0,1,1.11,2.2,6.41,6.41,0,0,1-2.28.84c-1.2-.06-2.38-.62-3.59-.73a3.76,3.76,0,0,0-.58,0c1.61,1.52,3.63,2.84,5.46,2.25a85,85,0,0,0,7.11-6.57c5.74-5.85,13.56-15.2,18-26.35C198.36,660,199.94,641.87,191.68,611.37Z" transform="translate(-40 -46.86)"/><path class="cls-23" d="M168.14,699.11c-1.37-.76-2.94-1.16-4.32-1.91-.65-.37-1-1.21-1.54-1.83a6.84,6.84,0,0,1,2-1.31c1.27-.3,2.67-.07,3.91-.42a9.82,9.82,0,0,0,2.46-1.61,11.44,11.44,0,0,0-2.44-2c-1.1-.48-2.44-.38-3.59-.78a1.11,1.11,0,0,1-.19-.09,10.58,10.58,0,0,1-1.74-1.37c.61-.61,1.13-1.46,1.88-1.79a8.25,8.25,0,0,1,1.46-.46,12.85,12.85,0,0,0,2.56-.77c.72-.35,1.15-1.32,1.71-2a6.82,6.82,0,0,0-2.09-1.27,5.9,5.9,0,0,0-.59-.06c-1.21-.11-2.43,0-3.6-.18a7.71,7.71,0,0,1-2.25-1.33,8.29,8.29,0,0,1,1.53-1.85c1.25-.78,2.75-1.21,4-2.06.58-.4.77-1.4,1.13-2.13-.65-.32-1.31-.91-2-.93-1.3,0-2.62.43-3.91.39a12.64,12.64,0,0,1-2.87-.74l-.13-.05a.86.86,0,0,0,.1-.16,11.26,11.26,0,0,1,1.49-2.23c1-1,2.32-1.62,3.3-2.6a1.56,1.56,0,0,0-1.46-2.75c-1.43.28-2.8.85-4.2,1.24-.2,0-.4.12-.6.18a2.3,2.3,0,0,1-2-.54c-.27-.42,0-1.43.37-2s1.21-1.06,1.61-1.71a.73.73,0,0,1,.05-.09c.82-1.34,2.33-3.34,1.91-3.92a1.7,1.7,0,0,0-2.47-.47c-.64.32-1.27.77-1.87,1a20,20,0,0,1-2.09,1.1,8.23,8.23,0,0,1-2.16,0,5.71,5.71,0,0,1,.11-2.32c.72-1.4,1.83-2.6,2.56-4a5.49,5.49,0,0,0,.12-2.24c-.82,0-1.81-.34-2.42,0-1.36.77-2.48,2-3.82,2.79a6.46,6.46,0,0,1-2.34.38,7.81,7.81,0,0,1-.08-2.4c.46-1.41,1.34-2.69,1.75-4.11.2-.7-.26-1.59-.42-2.39-.79.19-1.77.14-2.34.6-1.09.87-1.85,2.13-2.91,3a9,9,0,0,1-2.37,1.07,7.7,7.7,0,0,1-.55-2.56c.16-1.47.76-2.88.94-4.36.07-.65-.46-1.39-.7-2.08-.77.28-1.77.36-2.24.91-1,1.2-1.65,2.69-2.6,3.94a6.41,6.41,0,0,1-1.87,1.14c-.37-.7-1-1.39-1.06-2.11-.09-1.57.24-3.16.17-4.73,0-.67-.68-1.85-1-1.85a2.87,2.87,0,0,0-2.09,1.09c-.71,1.09-.93,2.49-1.59,3.6a13.05,13.05,0,0,1-2.14,2.2,12.7,12.7,0,0,1-1.29-2.58c-.32-1.27-.16-2.66-.52-3.91-.22-.72-1-1.25-1.57-1.87-.6.57-1.47,1-1.73,1.74-.49,1.39-.54,2.94-1,4.34a7.14,7.14,0,0,1-1.51,1.88c-.58-.57-1.36-1-1.67-1.73-.5-1.11-.5-2.43-1-3.51a12,12,0,0,0-2-2.42,11.48,11.48,0,0,0-1.51,2.73c-.3,1.16,0,2.47-.24,3.66a8.13,8.13,0,0,1-1.09,2.16,8,8,0,0,1-2.08-1.56c-.82-1.24-1.26-2.73-2.06-4-.36-.55-1.53-1.24-1.82-1.06a2.81,2.81,0,0,0-1.26,2c0,1.56.48,3.12.52,4.69,0,.71-.61,1.43-1,2.16a6.28,6.28,0,0,1-1.93-1c-1.1-1.24-1.92-2.72-3.06-3.93a2.34,2.34,0,0,0-2.07-.43c-.38.13-.73,1.22-.61,1.79.31,1.54,1,3,1.28,4.54a7.25,7.25,0,0,1-.47,2.56,7.66,7.66,0,0,1-2.23-.8c-1.17-.91-2.09-2.16-3.29-3a2.82,2.82,0,0,0-2.34-.24c-.33.13-.44,1.43-.27,2.1.23.92,1,1.69,1.23,2.61.38,1.3.52,2.66.78,4a37.53,37.53,0,0,1-3.66-1.25,9.39,9.39,0,0,1-1.36-.86,5.73,5.73,0,0,0-1.32-.78,2.37,2.37,0,0,0-2.1.17,2.25,2.25,0,0,0,0,2.09c.8,1.35,2,2.48,2.77,3.81a1.48,1.48,0,0,1,.14.42,16,16,0,0,1,.38,1.9,5.35,5.35,0,0,0-.56.07,5.09,5.09,0,0,1-2,.07c-1.42-.42-2.71-1.26-4.13-1.68-.64-.2-2,0-2.07.35a2.82,2.82,0,0,0,.35,2.33c1,1.21,2.38,2.09,3.42,3.27.45.53.44,1.48.66,2.25a6.22,6.22,0,0,1-2.1.5c-1.29-.18-2.53-.86-3.82-.93a10.1,10.1,0,0,0-3,.75,12.35,12.35,0,0,0,1.53,2.53c.65.65,1.71.92,2.4,1.57a20.12,20.12,0,0,1,2.06,2.6,20.79,20.79,0,0,1-2.81.81c.47,1,1,1.94,1.4,2.81a70.4,70.4,0,0,0,5.75,9.47,53.37,53.37,0,0,1-3.15,7,28.21,28.21,0,0,1-2.1,3.39,31.73,31.73,0,0,1-3.21,3.85s-.52-.37-1.43-1.12a4.52,4.52,0,0,0-.52.32,10.08,10.08,0,0,0-1.83,2.52,12.4,12.4,0,0,0,3,.92c1.11.06,2.24-.48,3.37-.45a9,9,0,0,1,2.47.79A9.16,9.16,0,0,1,76,708c-.94.9-2.24,1.43-3.14,2.37a7.13,7.13,0,0,0-1,2.45,7.22,7.22,0,0,0,2.62.56c1.37-.21,2.64-1,4-1.23a6.76,6.76,0,0,1,2.35.44,6.77,6.77,0,0,1-.73,2.29c-1,1.24-2.24,2.24-3.19,3.5a2.29,2.29,0,0,0-.2,2.09,2.34,2.34,0,0,0,2.1.4c1.07-.31,2-1.1,3.08-1.46a25.71,25.71,0,0,1,3.52-.66,21.28,21.28,0,0,1-.92,3.4c-.49,1.11-1.44,2-1.9,3.14a2.46,2.46,0,0,0,.36,2.1c.25.32,1.4.24,1.9-.06,1.4-.88,2.63-2.06,4-2.95a6,6,0,0,1,2.1-.42,5.77,5.77,0,0,1,.32,2.33c-.44,1.42-1.36,2.69-1.75,4.1-.21.78.27,1.74.43,2.61a6.52,6.52,0,0,0,2.36-.7c1-.81,1.68-2,2.7-2.86a9.92,9.92,0,0,1,2.62-1.1,9.74,9.74,0,0,1,.39,2.63c-.13,1.29-.77,2.55-.85,3.84a7.16,7.16,0,0,0,.87,2.48,6.89,6.89,0,0,0,2.17-1.15c.85-1,1.34-2.28,2.17-3.28a9.5,9.5,0,0,1,2.17-1.53,12.24,12.24,0,0,1,1,2.64c.12.94-.32,1.95-.17,2.88a19.18,19.18,0,0,0,1.09,3.2,19.79,19.79,0,0,0,2.62-2.46c.57-.74.61-1.85,1.13-2.66a12.17,12.17,0,0,1,1.86-1.87,10.84,10.84,0,0,1,1.43,2.47c.31,1.17.13,2.47.47,3.65a8.49,8.49,0,0,0,1.49,2.24c.67-.71,1.61-1.29,2-2.13.51-1.29.49-2.77.92-4.09.21-.65.92-1.13,1.41-1.68.59.53,1.44,1,1.72,1.6.62,1.45.83,3,1.43,4.51.26.6,1.09,1,1.65,1.44.51-.61,1.34-1.16,1.46-1.85.27-1.55.06-3.18.32-4.73.12-.7.89-1.3,1.36-1.94.59.44,1.35.76,1.71,1.35.73,1.19,1.11,2.6,1.9,3.75a8.23,8.23,0,0,0,2.15,1.61,8.08,8.08,0,0,0,1.13-2.64c.06-1.38-.45-2.78-.49-4.18a6.1,6.1,0,0,1,.73-2c.73.29,1.67.39,2.17.92,1,1.07,1.64,2.52,2.68,3.56.56.56,1.65.59,2.49.86a6.56,6.56,0,0,0,.52-2.39c-.17-1.18-.87-2.31-1.06-3.51a13.85,13.85,0,0,1,.25-3,11.83,11.83,0,0,1,2.64,1.11c1.12.84,2,2,3.11,2.85a2.34,2.34,0,0,0,2.09.24,2.31,2.31,0,0,0,.41-2.08c-.4-1.24-1.24-2.34-1.68-3.57a15.45,15.45,0,0,1-.47-3.09,22.19,22.19,0,0,1,3.24.79c.78.31,1.38,1.15,2.17,1.43a15.86,15.86,0,0,0,3.17.48,11.15,11.15,0,0,0-.58-3.07c-.59-1.15-1.68-2-2.37-3.14a6.06,6.06,0,0,1-.35-2.11,5.85,5.85,0,0,1,2.33-.27c1.41.44,2.69,1.36,4.1,1.74.78.22,1.73-.29,2.61-.47a7.52,7.52,0,0,0-.73-2.35c-.67-.9-1.79-1.45-2.48-2.34a16.75,16.75,0,0,1-1.5-2.92c.84-.08,1.69-.23,2.52-.25a3.76,3.76,0,0,1,.58,0c1.21.11,2.39.67,3.59.73a6.41,6.41,0,0,0,2.28-.84,7.11,7.11,0,0,0-1.11-2.2c-.81-.77-2-1.12-2.84-1.88a16.55,16.55,0,0,1-2-2.64,19.51,19.51,0,0,1,3.28-.84c1.21-.12,2.46.25,3.66.12.65-.08,1.62-.7,1.71-1.23A2.28,2.28,0,0,0,168.14,699.11Z" transform="translate(-40 -46.86)"/><path class="cls-6" d="M72.14,702.69c.37,1.2,4,12.33,5.56,11.36S76,706.76,77,707.37s5.72,8.37,6.82,6.74-4.38-8.45-4.38-8.93,6.79,8.38,8.26,6.31-6.44-10.2-6.44-10.2,7.17,7.16,7.65,5c.65-2.89-7.28-11.54-6.31-13.49s6.43,1.46,6.43-.24c0-1.39-8.13-5.1-8.13-5.1a25.84,25.84,0,0,1-3.41,8C75,699,72.14,702.69,72.14,702.69Z" transform="translate(-40 -46.86)"/><path class="cls-24" d="M103.71,691.15A15.84,15.84,0,1,1,119.55,707,15.85,15.85,0,0,1,103.71,691.15Z" transform="translate(-40 -46.86)"/></svg>