<svg id="Layer_1" data-name="Layer 1" xmlns="http://www.w3.org/2000/svg" xmlns:xlink="http://www.w3.org/1999/xlink" viewBox="0 0 1896.07 351.06"><defs><style>.cls-1{fill:#f44234;}.cls-2{fill:#3a28b1;}.cls-3{fill:#a9a8e1;}.cls-4{fill:url(#linear-gradient);}.cls-5{fill:url(#linear-gradient-2);}.cls-6{fill:url(#linear-gradient-3);}.cls-7{fill:#ecb7b0;}.cls-8{fill:#13005e;}.cls-9{fill:#fdc130;}.cls-10{fill:#687986;}.cls-11{fill:#dc847f;}.cls-12{fill:#f3bfbc;}.cls-13{fill:#dca19d;}.cls-14{fill:#f1beba;}.cls-15{fill:#4f1d1b;}</style><linearGradient id="linear-gradient" x1="1282.73" y1="1155.39" x2="1911.66" y2="735" gradientUnits="userSpaceOnUse"><stop offset="0" stop-color="#a0b9cd"/><stop offset="1" stop-color="#c9dae9"/></linearGradient><linearGradient id="linear-gradient-2" x1="365.26" y1="1406.26" x2="1787.18" y2="455.81" xlink:href="#linear-gradient"/><linearGradient id="linear-gradient-3" x1="1692.12" y1="510.6" x2="531.47" y2="1272.85" gradientUnits="userSpaceOnUse"><stop offset="0" stop-color="#aabfe8"/><stop offset="1" stop-color="#c9dae9"/></linearGradient></defs><title>TEAM-WORK-MODEL-01</title><path class="cls-1" d="M1510.43,1039.47h-4.86l-.17-.46h0c-2.15.46-7.86,2.6-8.28,3.7s-.28,2.55,3.59,2.35,15.23-.34,15.72-.62,0-4.17-1.46-5.82h0c0,.14,0,.23,0,.23S1514.36,1039.47,1510.43,1039.47Z" transform="translate(-15 -709.26)"/><path class="cls-1" d="M1590.36,1039.09l-.08.38s-.41.93-4.24.63-5-1.35-5-1.35,0-.13,0-.3c-.29,1.17-.6,6.13,0,6.27s16,.69,17,0S1594.23,1040,1590.36,1039.09Z" transform="translate(-15 -709.26)"/><path class="cls-2" d="M1603.45,1041.73s0-.18-.1-.49c-2,.61-6.56,2-6.31,3.26.27,1.39,2.75,1.8,5.86,1.24s8.48-1.51,8.48-1.51a7.25,7.25,0,0,0-.51-2.5h0C1608.9,1043,1603.45,1041.73,1603.45,1041.73Z" transform="translate(-15 -709.26)"/><path class="cls-2" d="M1721.87,1039.05h0c-4.31,2-9.52.43-9.52.43.27.7,1.58,4.9,1.86,5s15.38.89,16.41-.42S1726.17,1039.93,1721.87,1039.05Z" transform="translate(-15 -709.26)"/><path class="cls-3" d="M1741.78,1044.86h-36.13S1725,1045.64,1741.78,1044.86Z" transform="translate(-15 -709.26)"/><path class="cls-4" d="M1911,781.94c-.59-2.64-8.41-30.62-14.75-47.44s-11.6-24-12.14-24.13c-1.31-.44-4.07-.67-5.81-1.11,2,.46,4.9,4.18,7.19,9.7,4.28,10.34,19.86,57.75,20.69,62.71s-2.63,3-11.73,2.21C1894.45,783.88,1912.24,787.5,1911,781.94Z" transform="translate(-15 -709.26)"/><path class="cls-5" d="M1894.46,784.19s-5.53,0-9.25,16.68c-1.87,8.39-10.66,36.41-19.2,63-.15.42-.28.83-.41,1.24l-.45,1.41v0l-.4,1.21c0,.1,0,.19-.08.27-7.94,24.69-15.37,47.18-16.42,50.23-2.2,6.48-21.8,73.51-36.82,96.4s-21.65,36.67-50.2,41.92-145.91,3.46-145.91,3.46L22.9,1060l-7.9-9.88,1690.64-.31s19.38.78,36.15,0H1749l.48-.49A84.32,84.32,0,0,0,1759,1048c15.72-3.31,32.27-24.15,41.78-45.66.3-.68.63-1.48,1-2.38l.6-1.46c.61-1.54,1.31-3.35,2.08-5.36.24-.6.47-1.21.7-1.84.46-1.21.92-2.49,1.44-3.81.18-.53.38-1,.59-1.6.44-1.23.92-2.48,1.39-3.81q1.13-3,2.34-6.42c1.68-4.66,3.51-9.75,5.41-15.13.27-.74.53-1.49.8-2.23.64-1.86,1.32-3.73,2-5.63.59-1.7,1.21-3.42,1.82-5.16.83-2.34,1.66-4.72,2.5-7.12l3.38-9.68,1.18-3.39c2.51-7.2,5-14.51,7.55-21.8l1.35-3.87c3.85-11.19,7.63-22.18,11.1-32.33.15-.41.28-.82.42-1.24s.37-1.05.54-1.58.28-.78.41-1.18c0-.08,0-.16.09-.25.15-.41.28-.82.43-1.24.57-1.7,1.16-3.37,1.7-5,.46-1.36.93-2.68,1.38-4,1.25-3.7,2.44-7.17,3.55-10.44.48-1.4,1-2.76,1.39-4.06,1.51-4.43,2.83-8.3,3.93-11.51.2-.59.39-1.17.58-1.72s.39-1.14.57-1.67.35-1,.5-1.49c.73-2.15,1.28-3.71,1.57-4.6,4.27-12.54,10.76-33.1,12.26-35.59S1885.35,783.36,1894.46,784.19Z" transform="translate(-15 -709.26)"/><path class="cls-6" d="M1906.27,783.06c.06,1.07-.24,1.66-.87,2-1.53.72-5.05-.29-10.94-.82-9.11-.83-15.59-2.9-17.12-.42s-8,23.05-12.26,35.59c-1.39,4-7.59,22.34-15.69,46-.13.4-.26.78-.41,1.18s-.34,1.06-.54,1.58-.27.83-.42,1.24c-16.9,49.36-40.94,118.85-47.22,133-9.51,21.51-26.06,42.35-41.78,45.66a84.32,84.32,0,0,1-9.59,1.29c-2.43.22-5,.38-7.64.49L15,1050.12v-21.73l1505-.5h149c25.91,0,57.1,4.55,71-8.28s21.38-25.78,35-62.34c11.83-31.66,26.76-77.82,33.68-99.72.15-.44.28-.87.41-1.28.27-.83.5-1.61.75-2.35.13-.47.28-.91.41-1.34.38-1.25.73-2.34,1-3.3,4.82-15.57,19.85-64.4,18.75-67s-24.42-1-29.79-3.85-.14-7.59,7.45-12.7,34.88-27.15,40.26-31.16c0,0,19.73-18.75,24.82-23,1.86-1.53,3.46-2.33,5-2.23h0l1.25.3h0c2,.89,3.89,3.54,6,8.36.15.33.28.66.43,1,.73,1.78,1.8,4.67,3.08,8.25,6.1,17.24,16.92,50.69,17.61,54.79A7.45,7.45,0,0,1,1906.27,783.06Z" transform="translate(-15 -709.26)"/><path class="cls-2" d="M1587.18,946c-7.14-18.21-19.72-46.84-24.76-53.93,1.35,2.6,2.21,4.28,2.21,4.28-3,.83-11.17.72-12.41,0-.61-.36-3.53-3.79-7.16-8l-2.07-2.4-29.47,7.2c0,.61,0,1.21-.08,1.8-.43,9-1.21,15.55-3.53,16.72s-10.24.84-10.52.82c-1.68,6.64-6.33,23.48-8.51,42.72-2.28,20.07,0,30.2,3.1,45.62,2.85,14.16,10.24,35,11.42,38.22l.17.46h4.86c3.93,0,4.55-.62,4.55-.62s0-.09,0-.23c-.2-3-2.61-39.44-3.3-50.24-.73-11.28-2-22.76,5.27-43.14s11.63-33.18,17.56-33.61,13,9.72,23.06,25.55,17.41,28.75,19.07,44.16c1.57,14.69,4.19,53.49,4.42,57.11,0,.17,0,.3,0,.3s1.13,1,5,1.35,4.24-.63,4.24-.63l.08-.38c.6-3,4.6-23.48,4.88-39.75C1595.56,981.76,1594.32,964.17,1587.18,946Z" transform="translate(-15 -709.26)"/><path class="cls-3" d="M1381,866.22a87.65,87.65,0,0,1-12,5.34c-7.73,2.9-10.7,3.51-14.07,2s-4.49-10.21-6.14-18.62-4.62-18-10.41-21c-4.71-2.4-13.28-5.14-22.8-7.34-1.45-.33-2.92-.66-4.41-1l-2.31-.46c-12.06-2.34-19-2.62-23.93.76s-13.55,13.9-15.78,16.76c-12.9,16.5-7.66,25.86-2.55,33.58,4.58,6.95,13.29,13.16,15,14.33a23.77,23.77,0,0,1,.52-2.54s6.27,7.1,21.93,8.76,21.58.55,21.58.55,1.45-15.1,2.62-23.14,2.21-13,3.17-13.27,3,10.34,4.62,15.17,2.48,12.62,10.07,14.9,16.21-.63,26-5.66,12.89-11.14,12.89-11.14C1384.44,872.46,1381,866.22,1381,866.22Zm-96.57-.66a33.57,33.57,0,0,0-1.75,10.55,30.53,30.53,0,0,1-5.36-8.34c-1.86-4.62-.58-8.76,2.18-12.83s10.4-12.34,11.13-11.16C1292,845.92,1286.38,859.49,1284.46,865.56Z" transform="translate(-15 -709.26)"/><path class="cls-7" d="M1717.72,864.48c2.37-1.16,6.41-1.22,6.72,0s-3.36,2-3.36,2l-.82,4.49-2.8,1s0-.45.22-3.41A26.29,26.29,0,0,0,1717.72,864.48Z" transform="translate(-15 -709.26)"/><path class="cls-8" d="M1717.44,872.25a66.1,66.1,0,0,1-24.82,4.9c-13.11-.28-26.62-4.13-32.55-11.73s-9.94-20.47-11.38-20.21-.48,5,.76,12.08c1.1,6.21,2.67,14.16,3,15.9,0,.24.07.37.07.37l.55-.08h0c3.18-.49,13.06-1.57,13.06-1.57s0,.31.31,2.89a27.09,27.09,0,0,0,1.66,5.93c-1,.58-11.82,4.32-13.17,4.78l-.1,0,0,0c0,.13.05.25.07.39a99.54,99.54,0,0,0,3.49,11.33c.18.53.3.83.3.83-5.72,5.37-19,9.31-32.68,9.59s-22.57-3.8-22.57-3.8c1.53-8.13-.06-15.1-2.58-23.17s-7.61-18.27-10.37-27.94-1.44-18.06,2.45-19.3,15.21-3,19.76-3.51l5.56-.71c.38,1.31,1,2.28,1.92,2.09.73-.15,1-1.19,1.09-2.45,7.14-.85,16.87-1.87,21.7-1.82,8.14.07,12.2.9,14.89,3.85s7.24,12.55,13,21.8,18.49,13.09,26.22,13.34,20.4-2,20.68-1.6S1717.44,872.25,1717.44,872.25Z" transform="translate(-15 -709.26)"/><path class="cls-2" d="M1457.44,857c-.21.1-2,1-8.09,2.21-6.47,1.29-11.43,2.52-13.45-2.18s-7.19-16.65-9.45-21.88-4.26-7.86-8.64-7.35c-2.85.35-6.94,2.24-11.49,4.6.84.65,5,9.5,2.84,11.13-1.73,1.32-7.31-3.58-9.61-5.85.3,2.11-1.22,4.16-2.65,5.23-1.85,1.4-2.43,2.43-1.7,3.73s3.11,2.21,3.31,6.21-3.87,7.13-9.15,8.12a10.06,10.06,0,0,1-4.9-.33,92.2,92.2,0,0,0,2.61,18c2.58,9.69,5.6,13.38,13.54,11h0l.22-.06s0,.15,0,.4a20.82,20.82,0,0,0,.76,5.13s3.66,2.11,11.58-1.34,19.7-12.57,21.16-14.22a64.78,64.78,0,0,1-5.86-9.93c-1.66-3.94-3.79-9.55-3.35-11.07v0a.6.6,0,0,1,.25-.35l.2-.07c1.05-.24,1.46,1.94,3,6.28,1.59,4.6,4.44,6.52,8.43,7.71s10.58-1.36,14.11-3.57a77.34,77.34,0,0,0,7.78-5.86C1458.4,861.48,1456.91,857.38,1457.44,857Zm-54.17,14.39v0a.34.34,0,0,1-.08.17,12.77,12.77,0,0,1-.91,1.21c-1.25,1.51-3.34,3.68-4.09,3.43-1-.35-.92-5.59-.64-9.72s.42-11.78,1.3-11.95c1.18-.19,2.69,3.46,3.86,7.8C1403.82,866.46,1403.77,870.25,1403.27,871.42Z" transform="translate(-15 -709.26)"/><path class="cls-9" d="M1508.36,860.22a13.68,13.68,0,0,1,4.34,3.15c2.07,2.22,1.66,3.7,1.66,3.7l-2.79,2.46c1.55,4.44,2.37,13.34,2,23.37v.21l29.47-7.2c-3.33-3.84-7-8-9.91-10.9-6.93-6.93-15.52-14.07-20.68-27s-10.73-31.28-8.38-32.37l.51-.24h0s-3.9,1.23-7.38,2.36c.12,1.31.1,2.38-.27,2.53s-1.08-.7-1.71-1.89c-1.74.57-3.1,1-3.36,1.17,0,0,5.07,13.55,8.28,20.78S1508.36,860.22,1508.36,860.22Z" transform="translate(-15 -709.26)"/><path class="cls-3" d="M1653.1,873.48a81.2,81.2,0,0,1-16.47,1.92c-5.13,0-10.38-.72-14.05-3-8.19-5.11-13.82-20.25-16.2-26.72-.5-1.33-.86-2.29-1.08-2.75a.22.22,0,0,1,.1-.28.22.22,0,0,1,.27.09c.23.48.59,1.47,1.09,2.8,2.38,6.42,8,21.49,16,26.51,8.47,5.28,25.62,2,29.67,1.14,0,.24.07.37.07.37Z" transform="translate(-15 -709.26)"/><path class="cls-3" d="M1654.9,886c-8.94,2.26-16.35,3.42-22.67,3.42-9.92,0-17.15-2.85-23.34-8.71-9-8.52-15.58-23.28-17.77-29.89a.21.21,0,0,1,.39-.13c2.19,6.57,8.71,21.25,17.67,29.72,10,9.49,22.85,10.94,45.69,5.18l0,0C1654.85,885.69,1654.88,885.81,1654.9,886Z" transform="translate(-15 -709.26)"/><path class="cls-1" d="M1512.7,863.37a13.68,13.68,0,0,0-4.34-3.15s-5.07-12.62-8.27-19.87-8.28-20.78-8.28-20.78c-2.15,1-12.48,5.73-17.44,8.21s-6.47,4.82-7,10.47a246.62,246.62,0,0,0-.51,33c.84,11.42,3.11,18.34,7.88,20.21s15.3-1.55,23.88-9c0,0,4.25,6,4.45,11.27.18,4.51-2.65,14.94-3.49,17.9h0c-.06.25-.13.55-.2.82.28,0,8.09.4,10.52-.82s3.1-7.71,3.53-16.72c0-.59.06-1.19.08-1.8v-.21c.41-10-.41-18.93-2-23.37l2.79-2.46S1514.77,865.59,1512.7,863.37Zm-29.58,10.09c-2.58-1.25-2.69-6.41-2.89-11.17s-.35-16.25,1.24-15.73c3.1,1,12.41,22.27,12.41,22.27S1485.71,874.7,1483.12,873.46Z" transform="translate(-15 -709.26)"/><path class="cls-2" d="M1626.84,796.78c-2.48,0-5.53,1.79-8.73,1.22s-12.68.41-11.62,12.82a4.82,4.82,0,0,0,1.13,2.85c.61.73,1.27,1.19,1.49,2,.41,1.44,1.76,2.12,1.91,0s-1.14-6,1.45-8.69,4.71-2.9,7.91-2.44a14.37,14.37,0,0,0,4.44,0c1.69-.29,3.09-1,3.63-2.21C1629.43,800,1629.33,796.78,1626.84,796.78Z" transform="translate(-15 -709.26)"/><path class="cls-7" d="M1626.9,816.56a18.38,18.38,0,0,1-1.41,4.75,8.38,8.38,0,0,1-4.33,4.63,6,6,0,0,1-1.4.36,6.6,6.6,0,0,1-2.1-.15c-4.63-1.11-7.31-7.2-7.31-7.2s-1.24.92-2.68-.73-1.66-4.7,0-4.55c.6.73,1.26,1.19,1.48,2,.41,1.44,1.75,2.12,1.92,0s-1.14-6,1.43-8.69,4.71-2.9,7.92-2.44a14.13,14.13,0,0,0,4.45,0c1.39,1.39,1.72,3.61,2.16,6.49A17.78,17.78,0,0,1,1626.9,816.56Z" transform="translate(-15 -709.26)"/><path class="cls-7" d="M1621.15,825.94a5.35,5.35,0,0,1-1.39.35,6.07,6.07,0,0,1-2.1-.14,20.23,20.23,0,0,0,.6,3.12c.39,1.31,1,2.28,1.92,2.09.73-.15,1-1.2,1.08-2.45A18.15,18.15,0,0,0,1621.15,825.94Z" transform="translate(-15 -709.26)"/><path class="cls-9" d="M1321.61,797.28c-1-3.78-5.54-2-8-2.28a11.45,11.45,0,0,0-10.14,3c-3.77,3.57-4.14,6.25-3.25,9.94s2.22,5,3.2,9,1.55,5.85,4,5.22a3,3,0,0,0,1.84-1.33,7.92,7.92,0,0,0,1-3.89c0-1.08-1.19-1.71-2.38-2.64a1.79,1.79,0,0,1,.1-3c1.09-.72,2.28,1.39,2.86,1.76s1.49.41,1.54-1.24-.83-3.52.42-6.47,4.85-2.37,6.35-2.58a4.05,4.05,0,0,0,.5-.12C1321.06,802.15,1322.48,800.64,1321.61,797.28Z" transform="translate(-15 -709.26)"/><path class="cls-8" d="M1281.94,872.42c-1.55-8.79-11.79-30.51-15.31-34.85s-12-4.35-26.58-2.07c-2.32.36-4.72.74-7.12,1.14a7.23,7.23,0,0,1,.6,2.06,2.94,2.94,0,0,1-3.87,3c-.85-.39-2.2-2.21-3.31-3.91-10.29,1.91-19.48,4.21-21.78,7-3.31,4-11,18.14-15,27.66-2.55,6.07-5.49,7.2-6.93,7.62a17,17,0,0,1,2.56,5.92.06.06,0,0,1,0,0,26.12,26.12,0,0,1,1.13,6.4,14.9,14.9,0,0,1,0,3.26c11.69-2.28,15.21-11.18,20-19.65s5.8-10,7.56-9.94,5,9.41,7.45,17.38c2.26,7.27,5.3,23.77,5.81,26.58l.08.42c3.51,3,12,5.79,29.79.72,14.45-4.11,15.53-9.12,15.42-10.85h0a2.55,2.55,0,0,0-.11-.62c-.73-2.58-1.86-6.68-1.86-6.68C1282.81,891.55,1283.49,881.21,1281.94,872.42ZM1227,868.21a1.31,1.31,0,0,1,.21-1.4c-.73.73-1.66,1.5-2,1-.51-.93,1.56-2.69,1.56-2.69s-2.59,2.17-2.8,1.76.31-2.8,2.59-5,4-2.38,6.93,0,5.59,3,12.51,7.45a50.94,50.94,0,0,0,17.69,7.29s2.38,1.81,3.83,7a26.59,26.59,0,0,1,.93,9.42c-4.14.41-13.55-1.76-21.82-8.28a82.72,82.72,0,0,1-14.07-14.48c-2.69-.1-2.94-3.52-2.94-3.52S1227.63,869.21,1227,868.21Z" transform="translate(-15 -709.26)"/><path class="cls-7" d="M1232.93,836.64a71,71,0,0,0-4.16-7.92c-.11,2.12-.77,4.31-2.17,5.54a6.56,6.56,0,0,1-1.77,1c.32.6.87,1.53,1.52,2.52,1.11,1.7,2.46,3.52,3.31,3.91a2.94,2.94,0,0,0,3.87-3A7.23,7.23,0,0,0,1232.93,836.64Z" transform="translate(-15 -709.26)"/><path class="cls-7" d="M1229.63,821.06v.14c0,2-3,1.39-2.61,2.39.23.6.79,1.76,1.52,2a10.54,10.54,0,0,1,.23,3.09c-.11,2.12-.77,4.32-2.18,5.55a6.33,6.33,0,0,1-1.75,1,10.83,10.83,0,0,1-7.26.09,9.79,9.79,0,0,1-3.19-1.74c-.4-.31-.76-.66-1.12-1-3.12-3-5.07-7-5.17-9.27a9.47,9.47,0,0,0,4.12-.78c4.34-1.87,6-4.55,6.66-6.32s1.72-2,3.17,0,3.45,3.71,4.24,2.88c.54-.58,1.87-.43,2.69.43a5.69,5.69,0,0,1,.41.63,1.85,1.85,0,0,1,.18.58A2.11,2.11,0,0,1,1229.63,821.06Z" transform="translate(-15 -709.26)"/><path class="cls-8" d="M1227.32,814c-4.75-4.24-9.62-7.45-13.24-5.38S1201.36,814.91,1203,820c.64,1.95,2.6,3.25,5.1,3.37a9.21,9.21,0,0,0,4.11-.79c4.34-1.85,6-4.55,6.65-6.3s1.73-2,3.18,0,3.44,3.69,4.24,2.87a2,2,0,0,1,2.69.44,2.35,2.35,0,0,1,.59,1.2,2.47,2.47,0,0,1,.06.29s0,0,0,.05,0,0,0,.08c.06,2.07-3,1.4-2.62,2.41.24.59.8,1.74,1.53,2,.52.19,1.14-.08,1.79-1.39C1231.13,822.61,1232.08,818.22,1227.32,814Z" transform="translate(-15 -709.26)"/><path class="cls-7" d="M1581.49,869.94c.31.1,6.1,1.76,8.89,1l4.17-3.85-6.44-4.83a12.41,12.41,0,0,0-5.49,4C1580.87,868.83,1581.49,869.94,1581.49,869.94Z" transform="translate(-15 -709.26)"/><path class="cls-7" d="M1666.32,872.52c.26-.82,4.92-1.44,7.06-1.13,1.47.21,7.16,2.44,6.79,4.09-.24,1-3.31-.2-3.31-.2s2.45,1.12,1.83,2-4.18-.35-4.18-.35,2.59,1.86,1.14,2.35c-2.15.72-8,.36-8,.36S1665.85,874,1666.32,872.52Z" transform="translate(-15 -709.26)"/><path class="cls-3" d="M1264,876.83h-.28a.21.21,0,0,1,0-.42h0a1.63,1.63,0,0,0,1.67-.64c.85-1.39.22-5.72-7.61-18.5a.2.2,0,0,1,.07-.28.19.19,0,0,1,.28.06c6.37,10.41,8.93,16.78,7.62,18.94A1.93,1.93,0,0,1,1264,876.83Z" transform="translate(-15 -709.26)"/><path class="cls-7" d="M1186.34,892.44a37.85,37.85,0,0,0-.71-4.6c-.13-.66-.28-1.27-.43-1.84a27.88,27.88,0,0,0-2.56-5.92c-3.21-.11-6.72-3.21-10.86-7.14s-10-10.9-10-10.9h0c.53,1.27-5.35,4.69-5.81,4.09,1.35,3.26,5.48,12.93,11.1,20.15,6.93,8.9,16.14,10.14,19.24,9.42A29.05,29.05,0,0,0,1186.34,892.44Z" transform="translate(-15 -709.26)"/><path class="cls-7" d="M1182.64,880.08a27.88,27.88,0,0,1,2.56,5.92A17,17,0,0,0,1182.64,880.08Z" transform="translate(-15 -709.26)"/><path class="cls-7" d="M1186.34,892.44a29.05,29.05,0,0,1,0,3.26A14.9,14.9,0,0,0,1186.34,892.44Z" transform="translate(-15 -709.26)"/><path class="cls-7" d="M1228.15,865.8a5.48,5.48,0,0,0-.93,1C1227.74,866.3,1228.15,865.8,1228.15,865.8Z" transform="translate(-15 -709.26)"/><path class="cls-8" d="M1229.57,820.77a2.11,2.11,0,0,1,.06.29A2.47,2.47,0,0,0,1229.57,820.77Z" transform="translate(-15 -709.26)"/><path class="cls-8" d="M1225.05,1034.2c-3.21.93-5,0-5,0s-.21-.28-.54-.79h0c-3,1.3-6.81,3.86-5.64,5.23s6.83.49,10.48-.61,4.83-1.94,5-2.76.41-2.92-.49-3.9h0C1228.73,1032.35,1227.72,1033.42,1225.05,1034.2Z" transform="translate(-15 -709.26)"/><path class="cls-8" d="M1304.86,1024.91c0,1-1,1.26-2.34,2.36a24.39,24.39,0,0,1-5,3c-1.39,2.53-4.71,8.25-3.07,9.89,1.86,1.85,8-4.21,10.43-6.9s3.78-4.35,3.78-4.35S1306.75,1025.91,1304.86,1024.91Z" transform="translate(-15 -709.26)"/><path class="cls-1" d="M1304,1022.51c-1.87-3.52-16.13-30.82-20.17-40.45s-7.14-19.86-7.45-38.47-1.12-34.85-3.92-43.23c.11,1.73-1,6.74-15.42,10.85-17.79,5.07-26.28,2.28-29.79-.72l-.08-.42c-1.78,4.45-13.47,30-16.68,36.93s-8.06,18.41-6.93,30.31a207.31,207.31,0,0,0,8.69,40.33,73.69,73.69,0,0,0,7.33,15.77c.33.51.54.79.54.79s1.75.93,5,0c2.67-.78,3.68-1.85,3.82-2.84a1.88,1.88,0,0,0,0-.58,196.29,196.29,0,0,1-4.86-33.09c-1.24-19.14-.25-28.87,5.1-39.11s16.21-27.61,20.14-27.2,6,15,7.45,29.69,6.52,28.75,17.79,42.82,22.45,26.48,22.75,26.48a.84.84,0,0,0,.28-.09,24.39,24.39,0,0,0,5-3c1.38-1.1,2.37-1.31,2.34-2.36A6.24,6.24,0,0,0,1304,1022.51Z" transform="translate(-15 -709.26)"/><path class="cls-7" d="M1315.65,823.08s5.18-.62,6.21-6.82c.92-5.54-.54-11.56-2.19-13.67a4.05,4.05,0,0,1-.5.12c-1.5.21-5.11-.36-6.35,2.58s-.37,4.81-.42,6.47-1,1.6-1.54,1.24-1.77-2.48-2.86-1.76a1.79,1.79,0,0,0-.1,3c1.19.93,2.43,1.56,2.38,2.64a7.92,7.92,0,0,1-1,3.89,42.86,42.86,0,0,1,1.92,4.86c1.49.31,3,.64,4.41,1Z" transform="translate(-15 -709.26)"/><path class="cls-3" d="M1282.18,888.11a23.77,23.77,0,0,0-.52,2.54l.31.22Z" transform="translate(-15 -709.26)"/><path class="cls-8" d="M1279.45,1028.3c0-.1.06-.23.08-.35h0c-.93,1.39-2,6-1.55,6.67s14.9,6.93,16.69,7.13,3.65-.34,1.86-2.41a39.19,39.19,0,0,0-5.86-6c-.16.27-.24.44-.24.44C1287.94,1031.51,1279.45,1028.3,1279.45,1028.3Z" transform="translate(-15 -709.26)"/><path class="cls-8" d="M1392.82,1031.3s-10.86.83-11,.52c0,0,1.07,4.83,2.79,5.45s17.78-.28,18.27-1.24S1398.79,1031.2,1392.82,1031.3Z" transform="translate(-15 -709.26)"/><path class="cls-2" d="M1370.17,985.69c-7-13.35-22.35-46-29.38-59.07s-15.1-29.2-15.1-29.2-5.93,1.1-21.58-.55-21.93-8.76-21.93-8.76-.33,2.67-.52,2.54a41.22,41.22,0,0,0,.88,16.32c2.19,8.9,9.74,21.21,14.4,30.72s9.62,20.27,9.1,24.21-6,18.1-12.4,29.37c-6.32,11.09-12.82,30.06-14.11,36.68,0,.12-.06.25-.08.35s8.49,3.21,11,5.49c0,0,.08-.17.24-.44,1.63-3,11.47-20.88,18.27-32,7.45-12.2,17.69-30.1,18.83-35.47s1.45-8.38-.83-12.31a129.14,129.14,0,0,1,11.69,17c4.45,8.17,18.82,31.14,28.76,43.65s14.37,17.38,14.48,17.69,11-.52,11-.52S1377.2,999,1370.17,985.69Z" transform="translate(-15 -709.26)"/><path class="cls-7" d="M1406.32,832.44l0-.05c-.73-.31-2.59,2-2.59-.2a33.51,33.51,0,0,0-.2-3.45,7.57,7.57,0,0,1-5,2.9h0c1.63,1.37,2.87,3.23,2.25,3.55a18,18,0,0,0-1.85.94l.14.21a4,4,0,0,1,.48,1.38c2.3,2.26,7.88,7.16,9.61,5.84C1411.29,841.94,1407.17,833.08,1406.32,832.44Z" transform="translate(-15 -709.26)"/><path class="cls-7" d="M1404.93,825.25a3.38,3.38,0,0,1-.17.75,7.44,7.44,0,0,1-6.23,5.64,6.77,6.77,0,0,1-4.79-1,13,13,0,0,1-1.7-1.49c-.5-.53-1-1.06-1.39-1.6-2.17-2.9-3.26-6.26-1.87-6.89s7.56-3.87,8.64-6.11c.59-1.2.56-4,.64-4.21a3.09,3.09,0,0,1,2,.54,11.16,11.16,0,0,1,1.47,1.77,16.92,16.92,0,0,1,3.56,8.51A16.44,16.44,0,0,1,1404.93,825.25Z" transform="translate(-15 -709.26)"/><path class="cls-1" d="M1397.53,806.23c-2.17-1.76-5.79-.94-8.38.82s-5.9,4.14-5.79,9.78,2,8.32,0,11-4.34,7.45-3.15,9.52,4.86,3,4.19,5.38-7.07,5.48-6.26,10.65a9.26,9.26,0,0,0,6.33,7.27,9.8,9.8,0,0,0,4.89.34c5.28-1,9.38-4.14,9.17-8.12s-2.61-4.92-3.33-6.21-.14-2.33,1.72-3.73c1.42-1.07,2.93-3.13,2.64-5.22a4,4,0,0,0-.48-1.38l-.14-.21a2.27,2.27,0,0,0-.22-.32c-1.68-2.14-4.5-4.36-6.67-6.67a17,17,0,0,1-1.39-1.61c-2.17-2.9-3.26-6.25-1.86-6.88s7.39-3.72,8.63-6.1c.79-1.51.61-4.21.65-4.22.72-.22,1.87.48,2,.54h0C1400.53,810.21,1399.7,808,1397.53,806.23Z" transform="translate(-15 -709.26)"/><path class="cls-7" d="M1398.37,1012.44l-.63,4.07s3.51,4.19,5.88,4.84l1.18-3.56-.15-.17A51.51,51.51,0,0,0,1398.37,1012.44Z" transform="translate(-15 -709.26)"/><path class="cls-9" d="M1414.75,1034.39c-2.28-1.12-4.14-5-5.54-7.06s-3.22-5.33-5.59-6-5.88-4.84-5.88-4.84c-.94,1.29-1.3,3.73-.88,7.65s1.6,11.33,2.17,11.48.77-1,.57-3.36a18.68,18.68,0,0,1,.07-4.14s2.15,1,4.11,1.92a10.82,10.82,0,0,1,4.61,4.56c.62,1.39,3.88,4,6.36,3.46S1417,1035.51,1414.75,1034.39Z" transform="translate(-15 -709.26)"/><path class="cls-7" d="M1470,1031.72c.21.07.4.18.61.27l.37-4.19c-3.67-.21-9.15-.67-9.15-.67.16.5.67,5.42.67,5.42C1462.41,1030.88,1466,1030.21,1470,1031.72Z" transform="translate(-15 -709.26)"/><path class="cls-8" d="M1457.31,951.18c0,6.12-5.43,11.2-11,17.67-6,7-20.9,24.56-25.64,31.86s-13.81,19.38-13.81,19.38-.4-.46-2.06-2.3l-.14-.18a51.27,51.27,0,0,0-6.27-5.17c1.24-9.79,8.13-26.75,18.81-40.28a288.28,288.28,0,0,1,23.72-27c3.94-3.82,3.95-6.45,3.39-8.07,0,0,0,0,0,0a4.54,4.54,0,0,0-.45-1c0-.1-.1-.2-.15-.28.86.84,1.7,1.69,2.55,2.53a1.2,1.2,0,0,0,.16.16c1.36,1.39,2.69,2.77,3.93,4.06l.86.91c.68.69,1.3,1.37,1.9,2,.4.4.76.8,1.11,1.16s.93,1,1.32,1.38l.53.52a.21.21,0,0,0,0,.07l.47.45a5.14,5.14,0,0,1,.66.74c0,.17,0,.35,0,.51S1457.31,950.9,1457.31,951.18Z" transform="translate(-15 -709.26)"/><path class="cls-8" d="M1476.5,949.34c-1.93-10.62-11-20.47-10.69-20.27s-3.44-11.45-8.21-18.76-23.25-30.7-23.25-30.7c-1.45,1.66-13.24,10.76-21.16,14.23s-11.58,1.34-11.58,1.34c.41,2.64,1.55,9.26,9.57,15.93s18.67,12.72,25.65,18.47c2.15,1.76,4.51,4,6.85,6.26,5.27,5.16,10.46,10.84,12.89,13.23a5.22,5.22,0,0,1,.65.76c2.72,3.67,1.76,10.35,1.62,17.1-.13,7.24,1.32,33.72,1.46,44.82s1.51,15.38,1.51,15.38,5.48.46,9.15.67a23.28,23.28,0,0,0,3.19.09c.7-.21,1.52-27.38,1.87-35.58S1478.43,960,1476.5,949.34Z" transform="translate(-15 -709.26)"/><path class="cls-9" d="M1484.52,1042.94c-.37-.42-4-1.18-6.21-3.88-2.1-2.54-4.14-5.49-7.72-7.07-.21-.09-.4-.2-.61-.27-4-1.51-7.57-.84-7.5.83.08,1.45.88,6.51,1.14,8.79s.16,4,.52,4.08,1.19.31,1.24,0,0-7.24.36-7.45,2.85.12,5.12,1.09a17.18,17.18,0,0,1,5.23,3.46c1.19,1.19,2.07,2.85,5.27,2.69S1484.88,1043.35,1484.52,1042.94Z" transform="translate(-15 -709.26)"/><path class="cls-7" d="M1458.91,862.82Z" transform="translate(-15 -709.26)"/><path class="cls-7" d="M1459.81,861c.37-.45,1.12,0,1.84.77a2.68,2.68,0,0,1-.11-2.15c.33-.5,1.08,0,1.81,1a2.24,2.24,0,0,1,0-1.15c.17-.25,1,.41,1.8,1.37-.14-.66-.12-1.2.16-1.37s1.32.41,2.11,1.36c-.22-.56-.59-1.35-1.23-2.58-2-3.72-5.85-2.62-8.68-1.24-.59.29.93,4.45,1.41,5.73l1-.09C1459.61,862,1459.53,861.37,1459.81,861Z" transform="translate(-15 -709.26)"/><path class="cls-7" d="M1458.88,862.74l0,.08A.16.16,0,0,1,1458.88,862.74Z" transform="translate(-15 -709.26)"/><polygon class="cls-2" points="1484.59 202.37 1484.59 202.37 1484.59 202.37 1484.59 202.37"/><path class="cls-7" d="M1497.15,817.76c-.14-1.51-.47-3.33-.69-4.43a8.45,8.45,0,0,1-2,1.07,7.69,7.69,0,0,1-1.14.34c.54,1,1.18,2.49,1.81,3.66s1.25,2.07,1.71,1.89S1497.27,819.07,1497.15,817.76Z" transform="translate(-15 -709.26)"/><path class="cls-7" d="M1499.17,804.88a0,0,0,0,0,0,0,25.88,25.88,0,0,0-1-4.32c-.92-2.77-1.43-4.39-2.17-5.12-2.24,1.32-6.16,1.67-8.71,2s-4.13,1.78-4.27,3.66a30,30,0,0,0,.69,5.79,2.33,2.33,0,0,1-1.4-.44c-.1,1.42.35,3.55,2.66,3.09a8,8,0,0,0,.62,1,11,11,0,0,0,2.91,3.11,6.16,6.16,0,0,0,4.92,1.06h0a8,8,0,0,0,1.13-.34,8.45,8.45,0,0,0,2-1.07c-.07-.37-.06-.37,0,0a6.53,6.53,0,0,0,2.56-4A11.6,11.6,0,0,0,1499.17,804.88Z" transform="translate(-15 -709.26)"/><path class="cls-2" d="M1497.81,788.06c-.76-1.73-3.52-1.87-4.86-.57s-3.28.42-5.76.08-5.59.28-8.07,4.69-.55,7.93.69,10.48c.86,1.77,1.53,3.06,2.45,3.69a2.42,2.42,0,0,0,1.41.45,29.89,29.89,0,0,1-.69-5.79c.14-1.87,1.73-3.31,4.28-3.66s6.46-.69,8.71-2h0C1498.23,794.06,1498.56,789.78,1497.81,788.06Z" transform="translate(-15 -709.26)"/><path class="cls-2" d="M1499.36,912.45h0c.07-.27.14-.57.2-.82C1499.45,912.14,1499.36,912.45,1499.36,912.45Z" transform="translate(-15 -709.26)"/><path class="cls-1" d="M1588.11,862.29s-17.38-9.63-24.2-12.83-11.49-8.85-15.63-18.07-7.85-18.65-14.58-21.55-16.49-.27-29.17,5.56l-.51.24c-2.35,1.09,3.2,19.44,8.38,32.37s13.75,20.07,20.68,27c2.93,2.93,6.58,7.06,9.91,10.9l2.07,2.4c3.63,4.22,6.55,7.65,7.16,8,1.24.72,9.41.83,12.41,0,0,0-.86-1.68-2.21-4.28h0c-3.19-6.18-9.11-17.6-12.9-24.49-5.37-9.82-16.44-27.09-18.51-31.22s-3.62-7.56-2.48-7.56,8,12.72,12.1,19.55,7.13,11,17.48,15a152.9,152.9,0,0,0,23.38,6.57,5.46,5.46,0,0,1,1.76-4.34A18.7,18.7,0,0,1,1588.11,862.29Z" transform="translate(-15 -709.26)"/><path class="cls-3" d="M1708.3,1000.48c-5.89-15.11-24-53.48-30.82-67.24s-19.07-35.91-19.09-36c.18.53.3.84.3.84-5.72,5.38-19,9.31-32.69,9.59s-22.55-3.8-22.55-3.8-5.43,18.34-8.16,31.31-5.76,25.86-4.11,42c1.56,15.19,11.06,59,12.17,64,.06.31.1.49.1.49s5.45,1.22,7.42,0h0s1.24-36.09.82-50.35,1.56-28.76,5.9-41,11-24.2,17.27-25.13,11.38,6.21,20.48,18.72,22.14,36.41,28.86,47.69,15.52,25.34,20.07,33.2,8.07,14.58,8.07,14.58,5.21,1.6,9.52-.43l.2-.08S1714.2,1015.58,1708.3,1000.48Z" transform="translate(-15 -709.26)"/><path class="cls-10" d="M1865.3,866.5l-.15,0-.4,1.21c-.72.07-1.49.08-2.28.08s-1.71,0-2.6-.08h0c-3.23-.16-6.9-.62-10.87-1.22-4.17-.65-8.66-1.46-13.34-2.3l-.18,0c-12.7-2.28-21.68-6.52-25.6-10.27.13-.47.28-.91.41-1.34,3.13,3.37,11.65,7.92,25.41,10.41l.18,0c4.76.86,9.33,1.69,13.53,2.33,6.29,1,11.76,1.51,15.76,1.16Z" transform="translate(-15 -709.26)"/><path class="cls-10" d="M1865.15,866.54l-.4,1.21c0,.1,0,.19-.08.27a41.81,41.81,0,0,1-12,1.52c-1.46,0-3,0-4.69-.19a92.1,92.1,0,0,1-13.55-2c-15.78-3.47-22.51-7.16-25.77-9.77.15-.44.28-.87.41-1.28,3,2.48,9.53,6.29,25.62,9.84a85.47,85.47,0,0,0,13.71,2,53.15,53.15,0,0,0,11.41-.36h0A29,29,0,0,0,1865.15,866.54Z" transform="translate(-15 -709.26)"/><path class="cls-11" d="M1228.15,822.1a.18.18,0,0,1-.13,0,2.81,2.81,0,0,1-.8-2.31.18.18,0,0,1,.22-.18.19.19,0,0,1,.19.23,2.47,2.47,0,0,0,.65,1.94.21.21,0,0,1,0,.29A.24.24,0,0,1,1228.15,822.1Z" transform="translate(-15 -709.26)"/><path class="cls-11" d="M1484.18,808.88a.21.21,0,0,1-.18-.11,3.24,3.24,0,0,0-1.1-1,.19.19,0,0,1-.09-.27.21.21,0,0,1,.28-.09,3.19,3.19,0,0,1,1.27,1.22.21.21,0,0,1-.08.28Z" transform="translate(-15 -709.26)"/><path class="cls-11" d="M1608.82,817.91a.21.21,0,0,1-.2-.16,6.23,6.23,0,0,0-1-1.91.21.21,0,0,1,.33-.26,7.18,7.18,0,0,1,1.12,2.08.2.2,0,0,1-.16.25Z" transform="translate(-15 -709.26)"/><path class="cls-12" d="M1463.4,864.8a7.12,7.12,0,0,0-1.23-2.35c-.17-.22-.34-.44-.52-.64-.72-.77-1.47-1.22-1.84-.77s-.2.94.07,1.61c.68,1.67,2.6,3.74,3.37,3.11C1463.47,865.58,1463.49,865.22,1463.4,864.8Z" transform="translate(-15 -709.26)"/><path class="cls-12" d="M1464.42,862.25a11.19,11.19,0,0,0-1.07-1.63c-.73-.92-1.48-1.46-1.81-1a2.68,2.68,0,0,0,.11,2.15c.18.2.35.42.52.64a7.12,7.12,0,0,1,1.23,2.35c.59.64,1.2,1,1.61.67a.89.89,0,0,0,.25-.76A6.23,6.23,0,0,0,1464.42,862.25Z" transform="translate(-15 -709.26)"/><path class="cls-12" d="M1467.38,860.83c-.79-1-1.71-1.6-2.11-1.36s-.3.71-.16,1.37a11,11,0,0,1,1,1.27,4.13,4.13,0,0,1,.81,2.15c.52.54,1.06.76,1.5.32C1469.21,863.75,1468.4,862,1467.38,860.83Z" transform="translate(-15 -709.26)"/><path class="cls-12" d="M1466.06,862.11a11,11,0,0,0-1-1.27c-.81-1-1.63-1.62-1.8-1.37a2.24,2.24,0,0,0,0,1.15,11.19,11.19,0,0,1,1.07,1.63,6.23,6.23,0,0,1,.84,2.46,1,1,0,0,0,1.2.26.81.81,0,0,0,.41-.71A4.13,4.13,0,0,0,1466.06,862.11Z" transform="translate(-15 -709.26)"/><path class="cls-7" d="M1720,870.78c.58,1.19,2.11-.44,2.43-2.57s.09-2.59-.82-2.59S1719.74,870.22,1720,870.78Z" transform="translate(-15 -709.26)"/><path class="cls-7" d="M1721.69,871c1.49-.06,2.23-2.19,2.85-3.94s-1-1.85-1.42-1.44S1720.76,871.06,1721.69,871Z" transform="translate(-15 -709.26)"/><path class="cls-7" d="M1722.8,870.86c1,.21,2.46-1.22,3.14-2.84s.33-2.68-.73-2.37S1722,870.71,1722.8,870.86Z" transform="translate(-15 -709.26)"/><path class="cls-7" d="M1725.29,870.46c1.17.39,3.41-3.59,2.06-4.25S1723.84,870,1725.29,870.46Z" transform="translate(-15 -709.26)"/><path class="cls-3" d="M1465.81,929.28a.22.22,0,0,1-.17-.09c-6.06-8.72-14.21-18-20.76-25.42-3.65-4.14-6.79-7.71-9-10.54a.19.19,0,0,1,0-.28.19.19,0,0,1,.28,0c2.23,2.82,5.37,6.39,9,10.52,6.55,7.45,14.71,16.71,20.79,25.46a.2.2,0,0,1,0,.28A.17.17,0,0,1,1465.81,929.28Z" transform="translate(-15 -709.26)"/><path class="cls-3" d="M1457.31,951.18c-1.8-3.53-8.31-9.65-12.3-13.39l-.71-.66s0,0,0,0a4.54,4.54,0,0,0-.45-1c.43.4.93.86,1.45,1.37l1,.88a1.2,1.2,0,0,0,.16.16,103.94,103.94,0,0,1,9.65,10,.21.21,0,0,0,0,.07,16.6,16.6,0,0,1,1.18,1.7C1457.29,950.62,1457.31,950.9,1457.31,951.18Z" transform="translate(-15 -709.26)"/><path class="cls-8" d="M1428.4,850.87c-.38,1.06-.86,2.07-1.31,3a13.8,13.8,0,0,0-1.49,4.28l-.2.07a.6.6,0,0,0-.25.35,12.52,12.52,0,0,1,1.56-4.88,25,25,0,0,0,1.29-3c1-2.8-4.4-9.47-7.4-12.61a.21.21,0,0,1,.3-.3C1421.8,838.79,1429.69,847.21,1428.4,850.87Z" transform="translate(-15 -709.26)"/><path class="cls-8" d="M1407.56,868.55s-3.27,2.49-5.28,4.28a12.77,12.77,0,0,0,.91-1.21.34.34,0,0,0,.08-.17v0c1.85-1.52,3.91-3.09,4-3.19a.2.2,0,0,1,.3,0A.19.19,0,0,1,1407.56,868.55Z" transform="translate(-15 -709.26)"/><path class="cls-8" d="M1412.31,875.45c0,.15-.1.31-.15.5-.39,1.42-1,3.57-4.4,7.41-3.18,3.59-5.29,5.66-6.9,6.69,0-.25,0-.4,0-.4l-.22.06c1.56-1,3.67-3.06,6.84-6.63,3.33-3.76,3.91-5.86,4.31-7.25,0-.18.1-.35.14-.5a.23.23,0,0,1,.25-.15A.23.23,0,0,1,1412.31,875.45Z" transform="translate(-15 -709.26)"/><path class="cls-8" d="M1326.93,953.73a.21.21,0,0,1-.17-.1c-.12-.17-11.64-17.29-16-24.45-4.53-7.42-6.38-10.11-12-12.59a.21.21,0,0,1,.17-.38c5.85,2.56,7.86,5.58,12.23,12.75s15.88,24.27,16,24.44a.2.2,0,0,1-.06.29A.21.21,0,0,1,1326.93,953.73Z" transform="translate(-15 -709.26)"/><path class="cls-10" d="M1330.18,863.86c-.08.34-.19.77-.29,1.24h3.25c-.13-.49-.26-.93-.35-1.24Z" transform="translate(-15 -709.26)"/><path class="cls-10" d="M1261.62,863.86c.17.3.4.75.67,1.24h-76.53c-33,0-40.66,2.84-40.66,30.77s7.15,48.31,7.21,48.51a.61.61,0,0,1-.38.79.46.46,0,0,1-.2,0,.61.61,0,0,1-.59-.41c-.07-.2-7.28-20.62-7.28-48.92,0-28.87,8.47-32,41.9-32Z" transform="translate(-15 -709.26)"/><path class="cls-10" d="M1285,863.86c-.17.46-.32.91-.43,1.24h-4.77c-.17-.46-.33-.89-.43-1.24Z" transform="translate(-15 -709.26)"/><path class="cls-10" d="M1466.57,863.86h-116c.08.36.17.77.28,1.24h115.7C1466.52,864.92,1466.55,864.65,1466.57,863.86Z" transform="translate(-15 -709.26)"/><path class="cls-10" d="M1480.29,863.86c0,.37,0,.81.06,1.24h19.35l2-1.24Z" transform="translate(-15 -709.26)"/><path class="cls-10" d="M1863.49,868H1612.7c.24.38.52.8.82,1.24h249.56C1863.2,868.78,1863.34,868.36,1863.49,868Z" transform="translate(-15 -709.26)"/><path class="cls-10" d="M1466.57,863.86c0,.79,0,1.06,0,1.24h13.81c0-.43,0-.87-.06-1.24Z" transform="translate(-15 -709.26)"/><path class="cls-10" d="M1512.15,863.86a2.68,2.68,0,0,1,1.22,1.24h84.29c-.19-.45-.37-.88-.51-1.24Z" transform="translate(-15 -709.26)"/><path class="cls-7" d="M1263.73,876.61a50.94,50.94,0,0,1-17.69-7.29c-6.92-4.45-9.61-5.07-12.51-7.45s-4.66-2.17-6.93,0-2.79,4.56-2.59,5,2.8-1.76,2.8-1.76-2.07,1.76-1.56,2.69c.31.54,1.24-.23,2-1a5.48,5.48,0,0,1,.93-1s-.41.5-.93,1a1.31,1.31,0,0,0-.21,1.4c.62,1,2.65-1.48,2.65-1.48s.25,3.42,2.94,3.52a82.72,82.72,0,0,0,14.07,14.48c8.27,6.52,17.68,8.69,21.82,8.28a26.59,26.59,0,0,0-.93-9.42C1266.11,878.42,1263.73,876.61,1263.73,876.61Z" transform="translate(-15 -709.26)"/><path class="cls-13" d="M1162.6,862.89h0c-.56-1.33-1.43-2.66-2.31-2.94-.68-.22-.49.75,0,1.95a8.91,8.91,0,0,1,1,1.69h0c.11.24.2.47.29.7.61,1,1.22,1.64,1.45,1.43S1163.13,864.16,1162.6,862.89Z" transform="translate(-15 -709.26)"/><path class="cls-13" d="M1161.58,864.32q-.13-.35-.3-.72a8.91,8.91,0,0,0-1-1.69h0c-1.46-1.94-2.23-1.5-2.43-.85a2.66,2.66,0,0,0,.37,1.21,8.61,8.61,0,0,1,1.33,2.23c.09.25.18.48.26.72.7,1.1,1.38,2,1.69,1.92C1162.18,867,1162.1,865.74,1161.58,864.32Z" transform="translate(-15 -709.26)"/><path class="cls-13" d="M1159.82,865.21c-.08-.24-.17-.47-.26-.72a8.61,8.61,0,0,0-1.33-2.23c-1.63-1.89-2.27-.68-1.39,1.51a10.94,10.94,0,0,1,.89,1.66c.08.18.15.36.22.54.91,1.54,1.78,2.51,2,2.26C1160.29,867.76,1160.24,866.54,1159.82,865.21Z" transform="translate(-15 -709.26)"/><path class="cls-13" d="M1158,866c-.07-.18-.14-.36-.22-.54a10.94,10.94,0,0,0-.89-1.66c-.53-.81-1.08-1.4-1.53-1.4-1,0,.22,3.32,1.48,5,.45.6.91,1,1.27.92S1158.39,867.15,1158,866Z" transform="translate(-15 -709.26)"/><path class="cls-7" d="M1381,866.22s2.53-4.67,3.31-4.66c1,0-1.19,4.81-1.19,4.4s7-3.86,7.5-3.47-2.8,3.73-2.8,3.73,6.09-3.24,6.31-3c.63.68-4.24,4.56-4.24,4.56s4.8-2.51,5.18-2-4.86,4.24-4.45,3.93,4.53-1.81,4.53-1.13c0,1.08-8.46,4.34-10.12,5.68a36.77,36.77,0,0,1-2.07-4C1381.55,867.15,1381,866.22,1381,866.22Z" transform="translate(-15 -709.26)"/><path class="cls-7" d="M1407.09,868.39c1.86-2.07,4.66-7.76,9.21-8.9a7.87,7.87,0,0,1,8.79,3.83c1,2,1,3.41.52,3.83s-3.31-3.56-3-3.33,2.48,3.82,1.76,4.09-4.66-3.14-4.66-3.14,3.31,3.41,2.18,3.62-3.52-3.41-3.52-3.41a18.27,18.27,0,0,1-1.85,5.06,25.55,25.55,0,0,1-4.41,5.87Z" transform="translate(-15 -709.26)"/><path class="cls-14" d="M1594.73,867.15c1.7-.62-2.82-5.71-3.79-4.62S1593.59,867.56,1594.73,867.15Z" transform="translate(-15 -709.26)"/><path class="cls-14" d="M1589.14,863c-1.24,1.24,3.11,7.24,4.35,5.69S1590.38,861.77,1589.14,863Z" transform="translate(-15 -709.26)"/><path class="cls-14" d="M1586.87,864.25c-.83,1.35,3.72,6.06,5.17,5.26S1587.7,862.91,1586.87,864.25Z" transform="translate(-15 -709.26)"/><path class="cls-14" d="M1585.84,866.82c-1.53,1.93,4.09,5,4.94,3.22S1586.66,865.77,1585.84,866.82Z" transform="translate(-15 -709.26)"/><path class="cls-15" d="M1493.36,869.4a.2.2,0,0,1-.18-.1.21.21,0,0,1,.07-.29c3.69-2.2,12.49-7.56,14.58-9.07a.2.2,0,0,1,.28,0,.21.21,0,0,1,0,.29c-2.33,1.68-12.11,7.6-14.61,9.09A.17.17,0,0,1,1493.36,869.4Z" transform="translate(-15 -709.26)"/><path class="cls-15" d="M1498.15,882.82a.18.18,0,0,1-.15-.07.21.21,0,0,1,0-.29c6-5.32,12.62-12,15.12-14.47l1.08-1.08a.21.21,0,0,1,.28.31l-1.07,1.06c-2.5,2.51-9.14,9.16-15.14,14.49A.24.24,0,0,1,1498.15,882.82Z" transform="translate(-15 -709.26)"/><path class="cls-7" d="M1508,860.11c1.13-.83,5.47-4.86,9.93-1.86s7.75,7.53,6.72,8-3.83-2.41-3.83-2.41,2.9,2.71,2.07,3.52-4.86-3.52-4.86-3.52,2.59,4,1.86,4.47-3.47-3.58-3.47-3.58-1.29,2.35-2,2.33a11.89,11.89,0,0,0-3-4.31C1509.4,861.15,1508,860.11,1508,860.11Z" transform="translate(-15 -709.26)"/></svg>