<svg id="Layer_1" data-name="Layer 1" xmlns="http://www.w3.org/2000/svg" xmlns:xlink="http://www.w3.org/1999/xlink" viewBox="0 0 1229 657.05"><defs><style>.cls-1{fill:#13005e;}.cls-2{fill:url(#linear-gradient);}.cls-3{fill:url(#linear-gradient-2);}.cls-4{fill:#3bb5d4;}.cls-5{fill:#bac5fd;}.cls-6{fill:#ecb7b0;}.cls-7{fill:#e7ad2d;}.cls-8{fill:url(#linear-gradient-3);}.cls-9{fill:url(#linear-gradient-4);}.cls-10{fill:#3a28b1;}.cls-11{fill:url(#linear-gradient-5);}.cls-12{fill:url(#linear-gradient-6);}.cls-13{fill:#e43b33;}.cls-14{fill:url(#linear-gradient-7);}.cls-15{fill:url(#linear-gradient-8);}.cls-16{fill:#21c8ff;}.cls-17{fill:url(#linear-gradient-9);}.cls-18{fill:#a9a8e1;}.cls-19{fill:#f39e97;}</style><linearGradient id="linear-gradient" x1="856.96" y1="817.82" x2="843.4" y2="496.58" gradientUnits="userSpaceOnUse"><stop offset="0.01" stop-color="#f44234"/><stop offset="1" stop-color="#ff4e3e"/></linearGradient><linearGradient id="linear-gradient-2" x1="736.82" y1="226.7" x2="823.56" y2="642.79" gradientUnits="userSpaceOnUse"><stop offset="0" stop-color="#fdc130"/><stop offset="1" stop-color="#faa868"/></linearGradient><linearGradient id="linear-gradient-3" x1="103.33" y1="316.75" x2="217.67" y2="316.75" gradientUnits="userSpaceOnUse"><stop offset="0.01" stop-color="#0f0063"/><stop offset="1" stop-color="#170083"/></linearGradient><linearGradient id="linear-gradient-4" x1="287.03" y1="319.13" x2="135.22" y2="563.09" xlink:href="#linear-gradient-2"/><linearGradient id="linear-gradient-5" x1="165.03" y1="831.17" x2="129.79" y2="416.42" xlink:href="#linear-gradient-3"/><linearGradient id="linear-gradient-6" x1="383.76" y1="647.34" x2="568.32" y2="647.34" gradientUnits="userSpaceOnUse"><stop offset="0" stop-color="#4c46d3"/><stop offset="0.98" stop-color="#615ff4"/></linearGradient><linearGradient id="linear-gradient-7" x1="469.68" y1="675.35" x2="530.67" y2="851.54" xlink:href="#linear-gradient"/><linearGradient id="linear-gradient-8" x1="948.39" y1="429.32" x2="784.39" y2="659.74" gradientUnits="userSpaceOnUse"><stop offset="0" stop-color="#a9a8e1"/><stop offset="0.98" stop-color="#e1e0f4"/></linearGradient><linearGradient id="linear-gradient-9" x1="880.59" y1="513.03" x2="1146.24" y2="827.47" xlink:href="#linear-gradient-6"/></defs><title>TEAM-WORK-MODEL-02</title><path class="cls-1" d="M825.67,252.15c-11.9-.72-26.81-1.28-43.37-1.28v1.28H771.62s0-.46,0-1.19c-15.67.25-32.47,1-49.42,2.71-39.48,3.9-43.7,16.43-43.7,16.43h198C873.28,254.18,850.91,253.67,825.67,252.15Z" transform="translate(-28 -165.57)"/><path class="cls-2" d="M872.82,789.66c-.06-5.25-.47-33-2.7-60.3-2.49-30.28-5.65-96.7-8.59-136.9s-5.42-63.71-5.42-63-23.72,0-23.72,0L836,735.22s7,41.79,13.33,55.36c0,0,7.9,5.41,23.48,0Z" transform="translate(-28 -165.57)"/><path class="cls-3" d="M903.39,269.14H641.63a2.68,2.68,0,0,0-2,1,2.68,2.68,0,0,1,.66,1.72v66c.7,4.67,3.81,18.28,19.71,17.12a56.33,56.33,0,0,0,7.81-1.17c10.54-2.29,18.72-6.56,26.47-3.34a20.59,20.59,0,0,1,8.07,6.55c12.2,15.24,16.6,46.75,3.73,61.66a26.18,26.18,0,0,1-7.9,6.31c-10,5.1-21.36,2.06-29.94-.81a200,200,0,0,0,30.06,20.34,11.84,11.84,0,0,1-3.43,7.24c-3.39,3.61-10,9.66-10,9.66s-30-6.64-44.63-17.59V525.7a2.7,2.7,0,0,1-.66,1.72,2.87,2.87,0,0,0,.81.65,2.55,2.55,0,0,0,1.23.35H744.18c1,0,5.43,6.73,0,19s-16.66,38.7,1.33,57.33,55.6,26.77,69.5,11.86,9.14-32.91,3-43.4-10.89-30,2.35-44.78h83a2.82,2.82,0,0,0,2.71-2.72V271.85A2.71,2.71,0,0,0,903.39,269.14Z" transform="translate(-28 -165.57)"/><path class="cls-4" d="M388,533.86a28.54,28.54,0,0,0,2-26.61c-7.8-19,4.4-51.52,35.91-54.38s45.41,22.52,44.4,35.4-11.72,45.59-11.72,45.59H560.14a2.47,2.47,0,0,1,1.23.34,2.87,2.87,0,0,0,.81-.66,2.55,2.55,0,0,0,.66-1.71V419s12.93,6.09,23.77,9.82,29.15,10.85,42-4.06,8.47-46.42-3.73-61.67-23.72-3.39-42.36-2c-15.9,1.15-19-12.46-19.71-17.12V278a2.59,2.59,0,0,0-.66-1.72,2.66,2.66,0,0,0-2-1H298.38a2.71,2.71,0,0,0-2.72,2.7V531.83a2.7,2.7,0,0,0,1.47,2.37,2.65,2.65,0,0,1,1.25-.34Z" transform="translate(-28 -165.57)"/><path class="cls-5" d="M644.76,650.28c-14.57-21-27.44-14.23-51.17-7.84s-30.42-9.09-30.42-9.09V545.09a2.59,2.59,0,0,0-.65-1.7,2.78,2.78,0,0,0-.82-.68,2.73,2.73,0,0,0-1.24-.33H458.88s10.69-32.72,11.72-45.6-12.88-38.28-44.4-35.4-43.71,35.4-35.92,54.38a28.55,28.55,0,0,1-2,26.62H298.7a2.65,2.65,0,0,0-1.24.34,2.68,2.68,0,0,0-1.47,2.37V799a2.71,2.71,0,0,0,2.71,2.71H560.46a2.8,2.8,0,0,0,2.71-2.71V724c7.19-8.69,20.26,3.25,44.32,8.34s32.86-4.06,42-22.71S659.33,671.29,644.76,650.28Z" transform="translate(-28 -165.57)"/><path class="cls-6" d="M858,449c-4.41-3.87-13.14-4.06-13.81-2.37s10.67,5.08,10.67,7.45-14.74,5.94-13.39,9,14.21-4.05,14.21-3.56-15.56,9.49-14.29,12,17.7-7.11,18.22-6.94-7.29,7.54-6.28,9.11,11-7.08,11-7.08-4.35,8.13-2.48,10,10.73-11.26,10.73-11.26S864.9,455.1,858,449Z" transform="translate(-28 -165.57)"/><path class="cls-1" d="M905.65,379.3s6.48,16.85-4.59,31.76-40.23,40.66-40.23,40.66l12.4,13.65s29.19-5.29,48.84-29.23,13.4-73.47-16-105.78Z" transform="translate(-28 -165.57)"/><path class="cls-6" d="M358.92,314.67c-1-2.91-3.56-12.88-2.37-14.23s3.8,8.64,5,8.47,1.61-14.49,4-14.16-.93,10.77.59,10.93c0,0,4.32-12.54,6.69-12.11,1.8.32-2.39,13.75-1.54,13.75s6.29-8.92,7.47-6.88-6.86,11.34-5.67,11.34,3.61-4.71,4.83-2.5-8.5,15-8.5,15S361.29,321.52,358.92,314.67Z" transform="translate(-28 -165.57)"/><path class="cls-6" d="M698.26,444.48s14.07-1.9,15.42,0-7,3.55-7,3.38,13.67,10,12.65,11.35S705.55,456,705.55,456s11.18,9.15,10.33,10.67-14.22-5.25-14.22-5.25,8,6.1,6.78,8.64-11.53-5.76-11.53-5.76,6.78,6.6,5.59,9.15-17.62-12-17.62-12a136.67,136.67,0,0,0,9.26-10.14C698.89,445.48,698.26,444.48,698.26,444.48Z" transform="translate(-28 -165.57)"/><path class="cls-6" d="M728,536.52c-2.94.23-16.68-.76-17.35-2.79s8.34-1.81,8.69-2.71-15.68-6.31-15.7-10.62c0-2.66,14.46,2.25,14.46,2.25s-14.48-7.45-14.47-10.85,17.4,4.53,17.4,4.53-9.26-5.88-8.58-8.13,12.65,4.52,12.65,4.52-5.65-4.75-4.29-7,16.72,12,16.72,12Z" transform="translate(-28 -165.57)"/><path class="cls-7" d="M241.9,350.75c3.43,4.66,6.67,9.75,10.58,14.46,26.22,1,43.18-15.82,43.18-15.82V322.74s-9.48,9.26-31.39,12.2-39.08-2.26-46.59-2.27h0C226.34,335.35,234.18,340.24,241.9,350.75Z" transform="translate(-28 -165.57)"/><path class="cls-6" d="M210.73,266.71c-12.65,2.49-15.59,10.17-13.33,20.56s-1.13,17-7.91,23.27a28.35,28.35,0,0,0-4.38,5.06,46.53,46.53,0,0,0,6.09,7,29.36,29.36,0,0,0,6.26,4.41c-1.19-6.1-2.72-15.08-1.19-13.89s12.87,5.26,19-4.07,6.95-29.81,5.25-39c-.8-4.35-1.44-7.12-2.89-8.89C217,265.24,213.41,266.19,210.73,266.71Z" transform="translate(-28 -165.57)"/><path class="cls-8" d="M215.7,252.71c-5.2-11.51-27.9-15.36-37.33-4.74s-12.83,15.81-14.4,31.62-9.72,19.21-21,26.66-41.56,19.2-39.52,45.63,12.64,38.17,31.17,39.75c.39,0,.78,0,1.16.06,18,1.06,31.64-8.87,33.63-19.7,2-11.07,2.6-12.66,9-19s7-8.58,4.57-19.2c-1.71-7.3-1.12-12.56,1.58-17.19.2-.34.38-.69.59-1a28.35,28.35,0,0,1,4.38-5.06c6.78-6.32,10.16-12.87,7.91-23.27s.68-18.07,13.33-20.56c2.68-.52,6.31-1.47,6.87-5.5C217.87,259.22,217.41,256.51,215.7,252.71Z" transform="translate(-28 -165.57)"/><path class="cls-9" d="M369.39,324.26l-9.65-7.49c-5.27,28.59-32.67,64.7-65.56,65.83-22.26.76-33.48-7.5-41.7-17.39-3.91-4.71-7.15-9.8-10.58-14.46-7.72-10.51-15.56-15.4-24.21-18.07a72.37,72.37,0,0,0-10.12-2.26,30.36,30.36,0,0,1-16.37-7.8,46.53,46.53,0,0,1-6.09-7c-.21.33-.39.68-.59,1-2.7,4.63-3.29,9.89-1.58,17.19,2.48,10.62,1.81,12.87-4.57,19.2s-7,7.91-9,19c-2,10.83-15.68,20.76-33.63,19.7-2,26.23-2.49,51.94-2.3,63.41a54.31,54.31,0,0,1-5.86,24.41s39.76,15.36,60.76,13.1,26-7.68,26-7.68c-4.52-22.15-2-51.29-.9-62.35s9-9.7,14-15.58-.45-12.43-.45-12.43,21.68,21.24,52.41,24.17,56-3.38,74.77-37.27S369.39,324.26,369.39,324.26Z" transform="translate(-28 -165.57)"/><path class="cls-10" d="M33.17,767.53c-3.39,1.82-7.46,5.2-3.61,9.48s8.58,12.89,9.93,18.08S47,804.91,54.18,804s8.58-4.82,4.52-7.75c-3.54-2.54-6.9-10.72-10.68-17.72l-2.2,1.92C43.34,775.43,33.17,767.53,33.17,767.53Z" transform="translate(-28 -165.57)"/><path class="cls-10" d="M278.72,803.89c-5.42.47-13.55-2.48-14.23-3.15,0,0-2.48,7.23-1.58,10.61s13.33,2.49,23.72,2.49,16.26-.45,17.39-2.49c1-1.84-10.65-10.5-17.48-12.8.06,1.56.09,2.41.09,2.41S284.14,803.44,278.72,803.89Z" transform="translate(-28 -165.57)"/><path class="cls-11" d="M286.62,801s-2.47,2.49-7.89,3-13.55-2.5-14.23-3.19S248.23,747,242.35,705.85s-17.4-63.92-32.53-89c-13-21.52-34.48-56.05-41.18-65.54a.44.44,0,0,1-.1-.19,9.89,9.89,0,0,0-1.87-2.28.3.3,0,0,0-.25.14c-1.52,1.37-5.31,17-12.17,43.91-7.24,28.46-26,77.26-49.69,117.7C84.36,745,56,771.41,48,778.51l-2.2,1.9c-2.49-5-12.66-12.88-12.66-12.88L72.25,688.7c14.45-29.15,21.47-36.85,24.86-55.58s2-43.61,8.35-74.54,19-70.94,22.15-79.07c0,0,39.73,15.37,60.74,13.09s26-7.67,26-7.67,27.78,64.38,40.2,101.65,22.15,77.72,26.21,119.06c3.55,36.16,5.37,82,5.78,92.92C286.59,800.11,286.62,801,286.62,801Z" transform="translate(-28 -165.57)"/><path class="cls-6" d="M474.8,534.73c-6.22,2.9-27.33,4-28.35,3.74s-4.52,8.7-8.14,13.67-5.76,2.6-5.53-.57-1.25-4.41-3.33-4.19l-.41.17a2.85,2.85,0,0,0-.86,1.75c-.89,5.18.71,20.51.71,20.51l-.06.92-.11,1.79s8.3,6.61,14.23,5.93a22.25,22.25,0,0,0,4.76-1.21c6.66-2.33,15.92-7.87,20.31-16.24C472.79,551.89,475.32,542.29,474.8,534.73Z" transform="translate(-28 -165.57)"/><path class="cls-1" d="M471.3,519.59s2.59-4.39,1.13-6.87-7.79-.69-7.79-.69-1.25-5.76-12.65-3.27-15.93,7.57-18.3,10.62-5.2,9.68-5.2,9.68c-2.71-4-7.57-1.54-7.9,6.13s3.49,20.79,7.34,20.34a27.47,27.47,0,0,1,.25-6.23c.16-.91.38-1.53.71-1.68l.15-.07a.93.93,0,0,1,.4-.17h0c2.08-.22,3.56,1,3.33,4.19s1.92,5.53,5.53.57,7.12-13.9,8.14-13.67,22.13-.84,28.35-3.74l0,0c6.19-2.91,11.72-6.86,12.06-11S471.3,519.59,471.3,519.59Z" transform="translate(-28 -165.57)"/><path class="cls-1" d="M429,547.55l-.15.07c-.33.15-.55.77-.71,1.68A2.85,2.85,0,0,1,429,547.55Z" transform="translate(-28 -165.57)"/><path class="cls-10" d="M553.29,593.25l0-.08S553.18,593.08,553.29,593.25Z" transform="translate(-28 -165.57)"/><path class="cls-12" d="M556.46,596.75a34.14,34.14,0,0,1-3.17-3.5c-.45.77-6,10.1-21.39,29.25-16.1,20-31.18,28.46-42.36,14.9s-17.62-34.22-27.44-45.73c-4.59-5.38-9.19-10.55-14.39-14.43a22.25,22.25,0,0,1-4.76,1.21c-5.93.68-14.23-5.93-14.23-5.93l.11-1.79c-.76,0-1.53,0-2.31.09,0,0-30.34,17.29-37.11,46.43s-6.78,46.25-3.56,69.3c2.83,20.25,9.2,33.29,10.69,36.16.2.39.32.59.32.59s23.56,2.39,42.86-2,35.58-23.73,35.58-23.73-8.63-22.19-9-33.87c0,0,8,15.58,30.16,14.39s33.94-14.62,38.85-21.24,27.73-37.22,33-52C568.32,604.88,560.52,601,556.46,596.75Z" transform="translate(-28 -165.57)"/><path class="cls-13" d="M415.33,753.41c5.16,8.27,14.4,26.21,10.68,31.57-4.24,6.1-33.39,2.7-45.75.85s-20-3.4-20-3.4l-4.41,16.62s-.1.29-.24.75c1.82,1.07,29.93,9.74,44.8,13,15.42,3.36,47.78,5.8,57.27,0,9.11-5.55,16.32-29.4,12.36-59.37C446.32,762.7,427.47,762.23,415.33,753.41Z" transform="translate(-28 -165.57)"/><path class="cls-1" d="M355.53,799.71c.16-.5,4.74-17.28,4.74-17.28a6.39,6.39,0,0,0-7.12-1.69c-2,1-9.15,11-9.82,19.15s4.57,15.74,10,16.38,4.24-3.47,2.21-7c-1.63-2.77-.45-7.63.09-9.5C355.56,799.77,355.52,799.74,355.53,799.71Z" transform="translate(-28 -165.57)"/><path class="cls-1" d="M360.27,782.43s-4.58,16.78-4.74,17.28c0,0,0,.06.09.09.14-.46.24-.75.24-.75Z" transform="translate(-28 -165.57)"/><path class="cls-1" d="M520.71,812.59a19.41,19.41,0,0,1-9.83-4.58c-.84,2.55-3.21,11-1.52,12.55s37.45,2.2,37.95,2-2.71-10-15.93-11.35A20.7,20.7,0,0,1,520.71,812.59Z" transform="translate(-28 -165.57)"/><path class="cls-14" d="M561.54,692.64c-10.67-6.94-86.24,4.91-86.24,4.91S459,716.87,439.72,721.28s-42.86,2-42.86,2-.12-.2-.32-.59h0c.32.59,5.75,21.1,18.62,30.59a.82.82,0,0,1,.17.11c12.14,8.82,31,9.29,54.72,0,1.45-.56,2.92-1.18,4.41-1.8,25.92-11.19,52.69-26.1,52.69-26.1s.85,1.35-2,5.59-10.84,23.73-13,44.38S510.88,808,510.88,808a19.41,19.41,0,0,0,9.83,4.58,20.7,20.7,0,0,0,10.67-1.36s17.8-39.47,28.64-69.8S572.22,699.59,561.54,692.64Z" transform="translate(-28 -165.57)"/><path class="cls-6" d="M805,210.12c-.48,5.61-6.26,4.88-6.26,4.88a47.25,47.25,0,0,1-1.76,8.4,51.47,51.47,0,0,1-3.28,8.38c-.16.35-.35.7-.54,1.06-1.9,3.49-6.08,5.77-10.84,6.74a26.16,26.16,0,0,1-11.55-.16,14.86,14.86,0,0,1-8.27-4.72A31,31,0,0,1,756,216.57c-4.87,1.14-8-11.25-5.42-13.32.47-.12,4.24-1,5.94,4.78.55,1.85,1.14,1.11,1-3.25-.22-5.32,1.19-8.44,4.74-11.31s5.32-.27,14.19,1.09,14.33-4.42,16.21-5.26,3.22,7.78,3,12.52,4.25,4.75,5.61,2.71a3.55,3.55,0,0,0,.28-.65C803.45,204.35,805.35,206.43,805,210.12Z" transform="translate(-28 -165.57)"/><path class="cls-10" d="M803,185.74c-.17-8.13-8.32-20.51-26.49-20.17s-24,10.34-25.71,18.64a50.87,50.87,0,0,0-.24,19.06l.05,0c.48-.13,4.26-1,5.95,4.79.53,1.84,1.14,1.11,1-3.27-.23-5.31,1.18-8.42,4.74-11.3s5.31-.28,14.18,1.07,14.34-4.4,16.21-5.25,3.21,7.8,3,12.54,4.24,4.74,5.59,2.71a2.57,2.57,0,0,0,.29-.64C802.7,200.56,803.15,193.27,803,185.74Z" transform="translate(-28 -165.57)"/><path class="cls-6" d="M770.76,239.43h-.06c.32.08.73,8.38.87,11.52,0,.73,0,1.19,0,1.19H782.3V239.59A26.57,26.57,0,0,1,770.76,239.43Z" transform="translate(-28 -165.57)"/><path class="cls-1" d="M668.2,424.14a92,92,0,0,1-13.81-14c-14-18.18-1.19-43.13,13.38-56.39a56.33,56.33,0,0,1-7.81,1.17c-15.9,1.16-19-12.45-19.71-17.12v-6.76c-9.59,14.4-26.07,34.45-25.85,60.81.23,26.87,10.62,39.73,24.85,51.14.32.26.66.52,1,.78,14.64,10.95,44.63,17.59,44.63,17.59s6.56-6.05,10-9.66a11.84,11.84,0,0,0,3.43-7.24A200,200,0,0,1,668.2,424.14Z" transform="translate(-28 -165.57)"/><path class="cls-1" d="M900.38,337.46A41.6,41.6,0,0,0,890.67,317c-6.32-7.11-15-8.47-20.67-3.28s-13.56,9.95-17.17,10.17-6.2-.11-8.35,2.82c-3,4.07.67,12,5.08,15.48a8.57,8.57,0,0,0,7.54,1.61,18.77,18.77,0,0,0,7.37-3.88c5.09-4.06,12.88-12.35,20.67-8.58s7.9,9,9.94,12.74,5.42,5.78,5.64-2A25.29,25.29,0,0,0,900.38,337.46Z" transform="translate(-28 -165.57)"/><path class="cls-6" d="M907.17,342.62c.51,5.09-5.27,5.93-5.27,5.93s-.16,1.69,0,9.66a25.3,25.3,0,0,1-1.73,9.72,23.05,23.05,0,0,1-4.26,7,20.78,20.78,0,0,1-6.36,5c-7.81,3.93-14.59,1.41-18.11-2.77a8.68,8.68,0,0,1-1.22-1.65,112.34,112.34,0,0,1-5.05-11.14c-2.89-7.18-6.09-15.62-7.92-19.95,0-.13-.1-.24-.15-.38v-.21a18.8,18.8,0,0,0,7.37-3.89c5.1-4.06,12.88-12.35,20.65-8.59s7.92,9,10,12.74,5.42,5.81,5.66-2a26.92,26.92,0,0,0-.36-4.57C903,335.27,906.7,338.06,907.17,342.62Z" transform="translate(-28 -165.57)"/><path class="cls-6" d="M905.65,379.3a10.89,10.89,0,0,0-.75-2.12c-1.51-3.18-3.46-6.86-4.74-9.25a23.16,23.16,0,0,1-4.23,7,62.53,62.53,0,0,0,4.48,7.08,5.74,5.74,0,0,0,2,1.94C904.15,384.53,906.49,383,905.65,379.3Z" transform="translate(-28 -165.57)"/><path class="cls-15" d="M1048.12,492.16l-41.34-80s-.08-.71-.26-2c-.14-1-.33-2.22-.61-3.74-1.32-7.75-4.43-21.74-10.65-31.74-9-14.5-20.11-25.91-38.41-19.3-14.26,5.15-40.36,18.3-51.2,23.86.83,3.65-1.5,5.23-3.23,4.65a5.85,5.85,0,0,1-2-1.94c-6.64,3.63-37.89,14.33-44.78,27.7-7,13.55-.76,44.72-14.36,66.19s-24.46,39.53-103.75,41.77L728,536.51s21.73,9.2,71.21,3.32a150.67,150.67,0,0,0,35.43-8.19,19.55,19.55,0,0,1,1.64,8.4,53.66,53.66,0,0,1-1.4,8.6s8.13,2.25,43.15-5,50.61-15.38,50.61-15.38,0,.08.11.25l.3.62c1.08,2.42,4.23,9.36,5.94,13.2.37.82.68,1.52.86,2,1.36,3.15,7.91,8.38,55.14-6.53s56.68-40.47,57.6-44.76ZM878,510.89c-5.85,1.83-12.74,4.32-19.32,6.87,7.34-6.42,11.49-13.26,13.44-19.28,5-15.12,12.5-35.56,12.93-42.35s.62-13,5.37-3.73c4.47,8.72,19.16,36.3,20.85,39.47.1.18.15.29.15.29s-.4.36-1.19.95C906.29,496.28,892.88,506.35,878,510.89Z" transform="translate(-28 -165.57)"/><path class="cls-1" d="M1255.72,745.62c-3.16-11.75-16.16-14.86-16.16-14.86v0c5.28,12.71-1.46,29.26-1.46,29.26l-1.72-.82c2.85,4.67,5.57,20.93,5.22,23s-8.24,11.53-6.66,13.33,15.59.45,18.07-7.23S1258.88,757.37,1255.72,745.62Z" transform="translate(-28 -165.57)"/><path class="cls-1" d="M931.11,792.14l0,0c-9.05,3.15-22.25,10.32-23.24,12.7-1.13,2.71,12.88,3.83,26.88,3.38s20.56.23,21.47-5.65c.68-4.44-2-10.06-3.36-12.52C949.67,794.36,931.11,792.14,931.11,792.14Z" transform="translate(-28 -165.57)"/><path class="cls-16" d="M834.22,542.72a2.58,2.58,0,0,1-1.23.34H750c-13.23,14.82-8.45,34.31-2.35,44.79s10.84,28.5-3,43.4-51.51,6.78-69.5-11.86-6.74-45.08-1.33-57.34,1-19,0-19H571.23a2.52,2.52,0,0,1-1.25-.35,3,3,0,0,0-.8.68,2.56,2.56,0,0,1,.67,1.7v88.26s6.7,15.47,30.41,9.09,36.6-13.17,51.17,7.84,13.89,40.67,4.74,59.3-18,27.79-42,22.71-37.13-17-44.31-8.34v75a2.67,2.67,0,0,1-.67,1.72,2.7,2.7,0,0,0,2.05,1H833a2.7,2.7,0,0,0,2.7-2.71V545.09A2.67,2.67,0,0,0,834.22,542.72Z" transform="translate(-28 -165.57)"/><path class="cls-17" d="M1239.56,730.81a20.71,20.71,0,0,0-2.59-4.62c-9.72-12.88-57.15-42.7-79.51-55.58s-37.51-18.06-53.54-56.47-29.85-94.4-55.81-122l.46.88c-.9,4.29-10.39,29.82-57.6,44.74s-53.76,9.7-55.12,6.54c-.19-.47-.5-1.15-.86-2-3.2,5.59-27.38,29.08-44.55,50.76S857,629.05,858.83,647.35s16,44.72,32.52,76.81c16.3,31.7,39.2,67.13,39.73,68l0,0s18.56,2.22,21.72-2.12a2.14,2.14,0,0,0,.41-.81c1.37-5.42-17.16-57.37-26-88.33S910.55,653.45,930,633.8s65.74-54.67,72.74-59,10.39-5,23.27,17.84,30.71,61.9,46.08,80,43.37,32.08,76.12,46.08c29.43,12.59,78.5,35.9,88.19,40.52l1.72.82S1244.84,743.52,1239.56,730.81Z" transform="translate(-28 -165.57)"/><path class="cls-18" d="M888.41,796.2c-3.3-2-11.44-5-15.59-6.54v.92c-15.58,5.41-23.48,0-23.48,0-1.59,3.61-1.36,10.61,0,11.06s40.42,0,42,0S892.94,798.9,888.41,796.2Z" transform="translate(-28 -165.57)"/><path class="cls-1" d="M706,418.64c12.87-14.91,8.47-46.42-3.73-61.66a20.59,20.59,0,0,0-8.07-6.55h0c2.32,9.14,3.54,57.33,3.9,74.52A26.18,26.18,0,0,0,706,418.64Z" transform="translate(-28 -165.57)"/><path class="cls-6" d="M832.66,526.69c-.36-.61-10.89-9.23-12.47-7.19S827,531,827,531s-15.25-.68-15.25,1.36,10.16,3.15,10.16,3.15-15.45-.21-15.47,3.16c0,2,15.14,2.72,15.14,2.72s-12,2-12,3.6,13.1,1.36,13.1,1.36-9.38,2.6-8.59,4.29c.47,1,20.79-2,20.79-2S839.9,538.9,832.66,526.69Z" transform="translate(-28 -165.57)"/><path class="cls-6" d="M574.91,587.76c-1.64-1.16-5.74,6.1-5.74,6.1s3.93-12.51,2.54-14.23c-.94-1.13-7.12,10.35-7.12,10.35s6.18-15.17,3.56-16.62c-1.29-.71-7.71,14.65-7.71,14.65s3.65-15.15,1.1-14.31S556,587.51,556,587.51c-1-3.55-4.25-10.38-5.26-7.45s2.64,13.11,2.64,13.11-.94-.67,3.13,3.58,11.86,8.13,11.86,8.13S576.79,589.11,574.91,587.76Z" transform="translate(-28 -165.57)"/><path class="cls-19" d="M753.44,211.41a.34.34,0,0,1-.34-.34,6.8,6.8,0,0,0-1.65-3.54.29.29,0,0,1-.17-.4.37.37,0,0,1,.47-.2,7,7,0,0,1,2,4.14A.34.34,0,0,1,753.44,211.41Z" transform="translate(-28 -165.57)"/><path class="cls-19" d="M799.69,211.68h0a.33.33,0,0,1-.32-.33c0-.44,1-3.49,2.6-4.4a.33.33,0,0,1,.46.14.34.34,0,0,1-.13.46c-1.37.76-2.23,3.51-2.26,3.81A.35.35,0,0,1,799.69,211.68Z" transform="translate(-28 -165.57)"/><path class="cls-10" d="M954,448.68c-11.9,19.14-42.59,43.48-42.59,43.48s-.05-.11-.15-.29c5.91-4.91,31.66-26.66,42.17-43.54,11.71-18.81,8.49-43.71,6.24-51.74l.64-.2C962.6,404.51,965.88,429.68,954,448.68Z" transform="translate(-28 -165.57)"/><path class="cls-10" d="M986.94,483l-1.38,2c-12.47,18.16-39.09,33.86-51.86,41.39-1.92,1.11-3.52,2.06-4.66,2.8l-.3-.62c1.14-.71,2.71-1.63,4.61-2.77,12.74-7.51,39.25-23.15,51.64-41.18l1.38-2c13.94-20.21,22.34-32.41,19.22-76.11h.32c.28,1.52.47,2.79.61,3.74C1008.93,451.1,1000.55,463.22,986.94,483Z" transform="translate(-28 -165.57)"/><path class="cls-5" d="M466.55,664.4a.34.34,0,0,1-.2-.06c-.09-.08-9.41-6.94-24.13-27.86-14.54-20.68-17.81-37.37-9.72-49.63a.33.33,0,0,1,.46-.11.34.34,0,0,1,.1.48c-7.91,12-4.65,28.45,9.71,48.86,14.64,20.82,23.88,27.64,24,27.71a.33.33,0,0,1,.08.47A.35.35,0,0,1,466.55,664.4Z" transform="translate(-28 -165.57)"/><path class="cls-19" d="M168.54,551.13a9.89,9.89,0,0,0-1.87-2.28.3.3,0,0,0-.25.14c-4.09-6.73-8-13.34-9.89-17l.59-.3C159.24,535.79,163.9,543.59,168.54,551.13Z" transform="translate(-28 -165.57)"/><path class="cls-1" d="M227,394.91a.4.4,0,0,1-.22-.08c-7.91-6.49-15.13-15.32-18.39-22.48a.35.35,0,0,1,.17-.45.34.34,0,0,1,.45.17c3.22,7.07,10.36,15.81,18.21,22.25a.32.32,0,0,1,0,.46A.35.35,0,0,1,227,394.91Z" transform="translate(-28 -165.57)"/><path class="cls-19" d="M902.59,346.52a.34.34,0,0,1-.34-.34,4.31,4.31,0,0,0,0-.43c-.18-1.17-.53-3.58.46-4.84a.34.34,0,0,1,.48-.05.32.32,0,0,1,.05.47c-.8,1-.47,3.34-.32,4.32,0,.26.06.44.06.53A.34.34,0,0,1,902.59,346.52Z" transform="translate(-28 -165.57)"/></svg>