<svg id="_Layer_" data-name="&lt;Layer&gt;" xmlns="http://www.w3.org/2000/svg" viewBox="0 0 2473.37 1436.2"><defs><style>.cls-1{fill:#ebf3fa;}.cls-2{fill:#dfebf9;}.cls-3{opacity:0.5;}.cls-4{fill:#aec3ff;}.cls-5{fill:#798ee8;}.cls-6{fill:#849def;}.cls-7{fill:#8c9df4;}.cls-8{fill:#5d70c1;}.cls-9{fill:#233862;}.cls-10{fill:#f77d48;}.cls-11{fill:#cc613b;}.cls-12{fill:#505aba;}.cls-13{fill:#ffa25c;}.cls-14{fill:#a8d29f;}.cls-15{fill:#739af0;}.cls-16{fill:#152949;}.cls-17{fill:#f99746;}.cls-18{fill:#ed985f;}.cls-19{fill:#ffb27d;}.cls-20{fill:#94b0ed;}.cls-21{fill:#0a2035;}.cls-22{fill:#5a7de0;}.cls-23{fill:#0d2644;}.cls-24{fill:#fff;}.cls-25{fill:#d86036;}.cls-26{fill:#182b49;}.cls-27{fill:#2b478b;}.cls-28{fill:#ed975d;}.cls-29{fill:#b5453c;}.cls-30{fill:#060633;}.cls-31{opacity:0.4;}.cls-32{fill:#4545af;}.cls-33{opacity:0.8;}.cls-34{fill:#e8945b;}.cls-35{fill:#243f77;}.cls-36{fill:#152f54;}.cls-37{fill:#1d3868;}</style></defs><title>Gamers</title><path class="cls-1" d="M2496.27,1633.42c-141.46,0-2202.06.47-2203.25-3l-.2-.44a2.19,2.19,0,0,1-.2-.63c-.79-1.72-317.49-483.69,174.86-819.21C660.13,678.9,455.43,592.23,608.62,446.09c176-167.95,368.18,17.84,563.95-58.32,34.59-13.44,69.3-35.08,104-68.28,81.05-77.39,192.61-112.63,305.3-120.51,218.74-15.21,464.91,70.35,591.95,195.39,25.57,25.18,141.87,155.47,50.2,334.55C2166.18,842,2408.67,950,2494.84,1079.08,2713.92,1407.34,2498.25,1629.14,2496.27,1633.42Z" transform="translate(-143.94 -197.24)"/><path class="cls-2" d="M741.89,470.38c26-58.83,126.64-23.82,126.64-23.82s53.9,118.16,74,123.84-26.36-110-26.36-110c40.22,2.23,133.8,66.26,133.8,66.26s-25.55,124.32-4.7,124.9,17-111.24,17-111.24c36.6,17.37,65.55,67.59,65.55,67.59,33.61,79.73-70.49,118.77-70.49,118.77s-7.93,43.27,11.3,97.24h0s4.65,10.14,8.42,26.73l-10.46-1.6c-.43-2.94-1-5.79-1.6-8.55a0,0,0,0,0,0-.05l0-.12c-.47-1.73-1.15-4.18-2-7.18h0v0c-2.24-6.74-3.69-11.69-4.54-15.23a.08.08,0,0,1,0,0c-6.57-21.09-16.45-48.78-24.83-55.55a20.23,20.23,0,0,0,3-4.46l-3,4.46C1009.78,797.9,919.3,790.61,871,772.75s-24.42-28.59,5.92-47.31,85.68-4.11,103.67-10.51-4.93-19.08-38.57-21.6S886.68,721.5,832.2,718.41s-80-110.37-80-110.37c35.32,17.18,104.93,6.89,109.44-5.5s-94.13-26.17-108.89-32.36S715.89,529.21,741.89,470.38Z" transform="translate(-143.94 -197.24)"/><g class="cls-3"><g class="cls-3"><path class="cls-4" d="M771.84,1229.26s17.44-190.74-54.21-322c-9.52-17.46-35.76-13.23-39.5,6.29l-.18,1C672.11,947.94,749,1110.64,771.84,1229.26Z" transform="translate(-143.94 -197.24)"/></g><g class="cls-3"><path class="cls-4" d="M772.07,1285s-45.42-252.73-185.72-390.13c-8.55-8.38-22.44-9-31.13-.73-5.65,5.37-9.69,14.78-8.11,31.14C551.32,968.91,702.9,1145.12,772.07,1285Z" transform="translate(-143.94 -197.24)"/></g></g><g class="cls-3"><g class="cls-3"><path class="cls-4" d="M1597.7,1082.29s149.16-208.95,336.8-279.62c24.94-9.4,47.89,17.86,34.61,41-.23.39-.45.77-.69,1.16C1945.1,883.86,1724.68,981.83,1597.7,1082.29Z" transform="translate(-143.94 -197.24)"/></g><g class="cls-3"><path class="cls-4" d="M1548.72,1138.67S1816,921.75,2078.63,905c16-1,30.63,10.53,32.24,26.5,1.06,10.4-3.08,23.48-19,38.73C2049.41,1010.84,1741.32,1057.16,1548.72,1138.67Z" transform="translate(-143.94 -197.24)"/></g></g><path class="cls-5" d="M1258.67,975.53l-51.64,614s-5.41,37.22,22.28,37.29c45.52.11,226.56,0,226.56,0s-34.26-7.75-33.85-25.18c.49-20.55,60.36-631.89,60.36-631.89Z" transform="translate(-143.94 -197.24)"/><path class="cls-4" d="M1472.91,1615.63c-9,0-184.22.32-228.55-.25-19.32-.24-22.71-17.17-22.87-28.13a54.59,54.59,0,0,1,.59-9.14l1.34-16,3.43-40.68,3-35.93,3.88-46.18,3.27-39,36.69-436.27,223.71-5.81s-25.21,255.84-43.05,442.08c-2,20.75-3.88,40.65-5.63,59.22q-.85,8.9-1.65,17.37c-1.65,17.62-3.16,33.8-4.48,48.09-.69,7.53-1.33,14.52-1.91,20.93-2.28,25.12-3.61,41.16-3.63,44.21a25.86,25.86,0,0,0,.44,5C1441.18,1614.74,1469.55,1615.63,1472.91,1615.63Z" transform="translate(-143.94 -197.24)"/><polygon class="cls-4" points="571.45 443.92 697.23 949.15 714.45 1018.34 773.03 1253.66 1861.39 1253.66 1645.46 443.92 571.45 443.92"/><polygon class="cls-5" points="571.45 443.92 554.02 449.73 749.86 1271.24 773.03 1253.66 571.45 443.92"/><polygon class="cls-6" points="749.86 1271.24 1831.51 1271.24 1861.38 1253.66 773.03 1253.66 749.86 1271.24"/><rect class="cls-4" x="1273.64" y="1615.63" width="234.19" height="11.13" transform="translate(2637.54 3045.15) rotate(180)"/><polygon class="cls-7" points="1304.36 1271.23 1303.15 1279.74 1082.91 1324.24 1085.93 1288.3 1087.37 1271.23 1304.36 1271.23"/><g class="cls-3"><path class="cls-7" d="M1472.91,1615.63c-9,0-184.22.32-228.55-.25-19.32-.24-22.71-17.17-22.87-28.13L1440.7,1546c-2.28,25.12-3.61,41.16-3.63,44.21a25.86,25.86,0,0,0,.44,5C1441.18,1614.74,1469.55,1615.63,1472.91,1615.63Z" transform="translate(-143.94 -197.24)"/></g><polygon class="cls-7" points="571.45 443.92 1645.46 443.92 1819.72 1094.7 733.46 1094.7 571.45 443.92"/><polygon class="cls-8" points="1769.07 1066.5 763.46 1066.5 727.53 923.34 713.63 867.96 707.96 845.37 671.02 698.25 669.11 690.59 649.59 612.83 640.85 578.03 633.4 548.35 627.32 524.15 615.93 478.79 1607.04 478.79 1619.55 524.15 1626.22 548.35 1634.4 578.03 1643.99 612.83 1707.19 842.06 1707.19 842.07 1712.54 861.49 1715.03 870.5 1758.66 1028.75 1769.07 1066.5"/><polygon class="cls-7" points="1141.51 1094.7 773.4 1255.56 733.46 1094.7 1141.51 1094.7"/><path class="cls-9" d="M579.14,1029.15l-72-25c-11.69-4.06-25.45,5-30.74,20.25l-4.51,13,114.78,39.86,3.79-13.89C595.66,1048.45,590.58,1033.13,579.14,1029.15Z" transform="translate(-143.94 -197.24)"/><path class="cls-9" d="M1019.46,1182.05l-72-25c-11.69-4-25.45,5-30.74,20.25l-4.52,13L1027,1230.15l3.78-13.89C1036,1201.34,1030.91,1186,1019.46,1182.05Z" transform="translate(-143.94 -197.24)"/><path class="cls-10" d="M913.59,1626.46c-3.91-.88-72.38-13.4-90.08-79.25-5.6-20.82-9.81-46.07-12.89-72.82a91.5,91.5,0,0,0-61-75.85l-149.61-52a99.73,99.73,0,0,0-102.95,23.6c-17.83,17.71-35.54,33.62-51.78,45.7-54.7,40.71-116.2,8.11-119.81,6.38-35-16.77-43.38-58.32-25.47-90.3L458.29,1049.4a66.2,66.2,0,0,1,13.92-17.3,31,31,0,0,1,30.65-5.92L562,1046.73c3.71,1.28,12.87,4.42,17.35,9.08,23.29,24.22,48.74,42.89,85.16,56l201.84,70.09c23.6,8.19,26.44-.14,50.33-7.46l.08,0a26.72,26.72,0,0,1,16.49.47l89.51,31.08a24.92,24.92,0,0,1,15.78,16.3,66.27,66.27,0,0,1,1.89,29.3l-50.93,319.83C983.78,1607.58,951.46,1635,913.59,1626.46Z" transform="translate(-143.94 -197.24)"/><path class="cls-11" d="M431.06,1141.81c16.95-48.8,69.82-74.77,118.1-58s73.68,69.92,56.74,118.72-69.83,74.77-118.1,58S414.11,1190.62,431.06,1141.81Z" transform="translate(-143.94 -197.24)"/><path class="cls-9" d="M577.85,1307.55a47.08,47.08,0,1,1,29,59.92A47.08,47.08,0,0,1,577.85,1307.55Z" transform="translate(-143.94 -197.24)"/><path class="cls-12" d="M593.43,1313a30.59,30.59,0,1,1,18.86,38.93A30.59,30.59,0,0,1,593.43,1313Z" transform="translate(-143.94 -197.24)"/><path class="cls-9" d="M702.84,1351a47.09,47.09,0,1,1,29,59.92A47.08,47.08,0,0,1,702.84,1351Z" transform="translate(-143.94 -197.24)"/><path class="cls-12" d="M718.42,1356.36a30.59,30.59,0,1,1,18.87,38.93A30.58,30.58,0,0,1,718.42,1356.36Z" transform="translate(-143.94 -197.24)"/><path class="cls-9" d="M786,1238.49,655.55,1193.2a32.51,32.51,0,0,1-20-41.39l15.68-45.17L842.43,1173l-15.91,45.82A31.84,31.84,0,0,1,786,1238.49Z" transform="translate(-143.94 -197.24)"/><path class="cls-13" d="M521,1106l31.92,11.08c11.45,4,13.21,19.56,3,26.18l-26.21,16.91a9,9,0,0,1-13.49-4.69l-11.34-33.18C501.38,1112.21,511,1102.5,521,1106Z" transform="translate(-143.94 -197.24)"/><path class="cls-13" d="M515,1231.93l-31.92-11.09c-11.45-4-13.22-19.55-3-26.17l26.2-16.91a9,9,0,0,1,13.49,4.69l11.35,33.18C534.59,1225.69,525,1235.39,515,1231.93Z" transform="translate(-143.94 -197.24)"/><path class="cls-13" d="M586,1174.77,574.78,1207c-4,11.57-19.48,13.46-26,3.16l-16.59-26.32a9.26,9.26,0,0,1,4.74-13.63l33-11.67A12.64,12.64,0,0,1,586,1174.77Z" transform="translate(-143.94 -197.24)"/><path class="cls-13" d="M452.06,1166.43l11.2-32.27c4-11.58,19.49-13.46,26-3.16l16.59,26.31a9.26,9.26,0,0,1-4.74,13.64l-33,11.66A12.63,12.63,0,0,1,452.06,1166.43Z" transform="translate(-143.94 -197.24)"/><path class="cls-11" d="M821.41,1277.35c17-48.8,69.82-74.77,118.1-58s73.68,69.92,56.74,118.72-69.82,74.77-118.1,58S804.47,1326.16,821.41,1277.35Z" transform="translate(-143.94 -197.24)"/><path class="cls-13" d="M909.05,1259.11a19.28,19.28,0,1,1,11.89,24.54A19.28,19.28,0,0,1,909.05,1259.11Z" transform="translate(-143.94 -197.24)"/><path class="cls-14" d="M880.66,1340.86a19.28,19.28,0,1,1,11.89,24.54A19.29,19.29,0,0,1,880.66,1340.86Z" transform="translate(-143.94 -197.24)"/><path class="cls-15" d="M960.56,1302.39A19.28,19.28,0,1,1,936,1314.28,19.28,19.28,0,0,1,960.56,1302.39Z" transform="translate(-143.94 -197.24)"/><path class="cls-9" d="M879.49,1274.25a19.28,19.28,0,1,1-25,11A19.28,19.28,0,0,1,879.49,1274.25Z" transform="translate(-143.94 -197.24)"/><path class="cls-16" d="M1453.94,1131.26a31.42,31.42,0,0,0-30.48,39l67.24,270.09,10.53,42.33,29.91,120.14a31.43,31.43,0,0,0,30.49,23.82H2162a31.42,31.42,0,0,0,30.36-39.51L2077,1154.58a31.41,31.41,0,0,0-30.35-23.32Z" transform="translate(-143.94 -197.24)"/><path class="cls-12" d="M1475.83,1131.26a31.42,31.42,0,0,0-30.48,39l67.24,270.09,10.53,42.33L1553,1602.83a31.43,31.43,0,0,0,30.48,23.82h600.4a31.41,31.41,0,0,0,30.35-39.51l-115.34-432.56a31.42,31.42,0,0,0-30.35-23.32Z" transform="translate(-143.94 -197.24)"/><path class="cls-17" d="M2161.75,1606.76h-563.2a29.41,29.41,0,0,1-28.6-22.09l-28-111.4L1532,1434l-26.35-104.58-36.73-145.87c-4.63-18.37,9.44-36.16,28.6-36.16h556A29.4,29.4,0,0,1,2082,1169l108.21,401.09C2195.21,1588.62,2181.12,1606.76,2161.75,1606.76Z" transform="translate(-143.94 -197.24)"/><path class="cls-14" d="M569.74,1626.75h94.84c5.08-4.31-3.52-14.11-12.5-14.76-3.9-.3-8.84.52-14.48,1.71-1.3-17.33-8.76-95.27-36.85-92.13-31.58,3.5,0,34.32,8.93,52.56,6.62,13.51,13.59,32.89,16.78,42-2.56.56-5.22,1.1-7.93,1.6-4.18-12.85-19.76-56.09-39.57-53.57-23.26,3-13.91,20.29,2.58,30.58,12.09,7.56,26.94,18.32,34,23.51a100.21,100.21,0,0,1-18.55,1.49C580.74,1619.38,572.81,1624.17,569.74,1626.75Z" transform="translate(-143.94 -197.24)"/><g id="girl_2" data-name="girl 2"><path class="cls-9" d="M2026.78,1217.8c-17.73-5.17-37.76.77-50.27,14.35-31,33.62-8.13,59.53-23.62,83.07-9.36,14.21-17.22,39.11,11.78,53.84,13.4,6.81,53.34,42.41,61.52,43.25,82.88,8.51,84.37-75.57,56.43-99.94C2043.36,1278.12,2079.23,1233.1,2026.78,1217.8Z" transform="translate(-143.94 -197.24)"/><path class="cls-18" d="M1983.46,1347.79s-75.63,36.64-89.8,36-102.73-31.8-102.73-31.8l2.22,15s67.38,38.75,90.93,41c23.19,2.16,102.49-20.82,110.14-25.67S2005.71,1352.7,1983.46,1347.79Z" transform="translate(-143.94 -197.24)"/><path class="cls-19" d="M1975.14,1382.35a75,75,0,0,0,26.24,11.17c40.45,9.35,55.95-24.84,61.77-48.31a34.94,34.94,0,0,0-13.71-4.21c-2.92-.34-6-.57-8.54-.7-4.54-3.47-11.31-17.71-12.81-39.82l-1.9.51-31.88,8.73s1.47,10.13,2.18,19.71c.55,7.49.64,14.65-.78,16.41-2.49.54-4,.89-4,.89l0,0A206.09,206.09,0,0,0,1975.14,1382.35Z" transform="translate(-143.94 -197.24)"/><path class="cls-18" d="M1994.31,1309.72s1.47,10.13,2.18,19.71c18.06-1.8,26.44-19,29.7-28.43Z" transform="translate(-143.94 -197.24)"/><path class="cls-19" d="M1988.92,1319.24s42.87-2.37,41-29,2.38-45-25.07-44.56-32,10.93-33.57,20S1977.72,1319.16,1988.92,1319.24Z" transform="translate(-143.94 -197.24)"/><path class="cls-9" d="M1971.46,1250.71c6-8.5,11.17-7.1,14.15-4.89,22.48-14.54,38.93,3.4,38.93,3.4a51,51,0,0,0,18.82,28.9s-7.6,6.08-25.78,2.05c-23.27-5.16-31.25-25.33-32.34-28.43-2.45,2.53-5.61,4.15-8,9.64-2.87,6.54-4.68,10.33-4.73,21C1972.48,1282.43,1962.4,1263.45,1971.46,1250.71Z" transform="translate(-143.94 -197.24)"/><path class="cls-15" d="M2075.36,1469.51c3.87-19.79,16.49-98.86,3.87-124.3-4.53-9.14-22.32-10-41.84-9.16-6.07,3.92-29.21,18.74-38.72,16.89l-.53-.13c-4.47-1.12-6.16-4.26-2.43-7a65.83,65.83,0,0,0-20.57,2.86c-13.65,4.06-25.4,12.71-25.4,12.71s8.44,13.13,22,18.87c-2.31,20.66,1.13,29.77,22.55,77.48,18.11,40.33-2.44,76.63-2.44,76.63s106.59,85.7,107.19,42.07C2099.5,1543.61,2070.41,1494.8,2075.36,1469.51Z" transform="translate(-143.94 -197.24)"/><path class="cls-20" d="M1986.59,1627.58a19.81,19.81,0,0,1-14.26-8.68l-1.65-2.48c-12.13-18.37-16.85-74.62-44.14-134.54-6.65-14.59-30.51-17.21-37-33.71,0,0-16-53.45,30.66-55s125,148.74,126.21,164.5C2047.59,1572.91,2077.24,1637.81,1986.59,1627.58Z" transform="translate(-143.94 -197.24)"/><path class="cls-21" d="M1801.11,1627.27h66.42s2.48-10.87-1.88-18.28c-3.86-6.54-2.38-10.28.48-15.69a25.32,25.32,0,0,1-11.19,2.16c-3.3-.2-6.8-1.74-9.87-3.57-2.86,3.35-15.1,17.59-18.93,20.41C1821.8,1615.51,1802.45,1614.36,1801.11,1627.27Z" transform="translate(-143.94 -197.24)"/><path class="cls-20" d="M1888,1408.59c-4,30-19.62,124.63-47.17,170.8-8.89,14.88,22.38,23.23,22.54,23.19,4.2-1.1,11.18-7.79,14.4-10.69,22.37-20.16,67.77-77.24,67.77-123,0-22.31.4-64.93-15.83-75.76C1919.73,1386.46,1889.59,1396.69,1888,1408.59Z" transform="translate(-143.94 -197.24)"/><path class="cls-22" d="M2072.75,1382.31s-13.48,27.42-76.4,46.8-26.93-29.31-26.93-29.31l88-30.74Z" transform="translate(-143.94 -197.24)"/><path class="cls-4" d="M2019,1627.65a49.23,49.23,0,0,1-5.5-12.54c-3.57-12.53-4.84-21.65-11.7-41.17-7.2-20.49-15.75-45.69-26.43-71.92-3.29-8.1-6.79-16.29-10.52-24.47-6.65-14.59-24.93-12.57-31.44-29.07,0,0-25.38-57.17,21.28-58.75s135.34,152.94,140.44,167.91C2100.73,1574,2120.77,1643.34,2019,1627.65Z" transform="translate(-143.94 -197.24)"/><path class="cls-23" d="M1849.87,1627.27h66.42s2.48-10.87-1.88-18.28c-3.86-6.54-2.38-10.28.48-15.69a25.32,25.32,0,0,1-11.19,2.16c-3.31-.2-6.81-1.74-9.88-3.57-2.85,3.35-15.09,17.59-18.92,20.41C1870.56,1615.51,1851.21,1614.36,1849.87,1627.27Z" transform="translate(-143.94 -197.24)"/><g class="cls-3"><path class="cls-20" d="M2001.82,1573.94c-7.2-20.49-15.75-45.69-26.43-71.92,2.79-19.87,8.81-37.25,18.92-44.26C1994.31,1457.76,2018.86,1533.8,2001.82,1573.94Z" transform="translate(-143.94 -197.24)"/></g><path class="cls-4" d="M1926.78,1406.47c-4,30-9.63,126.75-37.19,172.92-8.88,14.88,22.38,23.23,22.55,23.19,4.19-1.1,11.18-7.79,14.4-10.69,22.37-20.16,67.77-77.24,67.77-123,0-22.31-26.18-63.14-42.41-74C1941.91,1388.25,1928.37,1394.56,1926.78,1406.47Z" transform="translate(-143.94 -197.24)"/><path class="cls-12" d="M1783,1313.37l68-7.23a4.41,4.41,0,0,1,4.57,2.81l24.33,64a4.39,4.39,0,0,1-3.92,5.95l-67.5,2.72a4.38,4.38,0,0,1-4.22-2.69l-24.87-59.45A4.4,4.4,0,0,1,1783,1313.37Z" transform="translate(-143.94 -197.24)"/><path class="cls-9" d="M1777.09,1314l68-7.23a4.41,4.41,0,0,1,4.57,2.81l24.34,64a4.4,4.4,0,0,1-3.93,6l-67.5,2.72a4.38,4.38,0,0,1-4.22-2.69l-24.87-59.45A4.4,4.4,0,0,1,1777.09,1314Z" transform="translate(-143.94 -197.24)"/><path class="cls-1" d="M1814.79,1343.85c-.83-2.29.35-4.14,2.63-4.14a6.53,6.53,0,0,1,5.64,4.14c.83,2.28-.35,4.13-2.63,4.13A6.56,6.56,0,0,1,1814.79,1343.85Z" transform="translate(-143.94 -197.24)"/><path class="cls-1" d="M1779.13,1320a1.37,1.37,0,0,1,1.29-2,3.22,3.22,0,0,1,2.77,2,1.37,1.37,0,0,1-1.29,2A3.21,3.21,0,0,1,1779.13,1320Z" transform="translate(-143.94 -197.24)"/><path class="cls-19" d="M2063.15,1345.21s-94.27,34.72-108.44,34c-9.15-.46-85.26-27.21-85.26-27.21l-6.83,12.92s74.07,47.61,94.44,47.37c40.2-.46,108-25.14,115.69-30S2085.4,1350.12,2063.15,1345.21Z" transform="translate(-143.94 -197.24)"/><path class="cls-19" d="M1869.45,1352s-6.83-10.51-13.63-10.82-18.55,4.64-22.57,5.41-15.46,4.48-12.06,10.05,19.17,6.8,26,5.56,15.46,2.72,15.46,2.72Z" transform="translate(-143.94 -197.24)"/><path class="cls-19" d="M1857.67,1341.51s-10.82-5-13.91-5.89-2.47,0-1.54,3,6.49,5.72,6.49,6.64S1857.67,1341.51,1857.67,1341.51Z" transform="translate(-143.94 -197.24)"/><path class="cls-19" d="M1784.1,1346.44s4.31-14.21,9.05-9.75c4.93,4.65,1.94,9.3,1.34,15.23-1.16,11.33-3.45,10.85-4.9,10.33S1782.49,1352.15,1784.1,1346.44Z" transform="translate(-143.94 -197.24)"/><path class="cls-19" d="M1783.84,1348.61s-2.18,12.1,9.31,18.42l-3.4-8.33Z" transform="translate(-143.94 -197.24)"/><path class="cls-24" d="M1980.89,1303.9s4.06-1.61,15.46-.68c0,0-.6,4.45-9,4.89C1982.57,1308.35,1980.89,1303.9,1980.89,1303.9Z" transform="translate(-143.94 -197.24)"/><path class="cls-15" d="M2014.58,1362.34S2023,1389,2052,1395.1c0,0,47.82-14.73,24-47.31C2076,1347.79,2052.44,1330.3,2014.58,1362.34Z" transform="translate(-143.94 -197.24)"/><path class="cls-19" d="M1783.84,1350.32s-2-6.66-2.1-7.82,0-1.73,1-.92,2.58,3,2.12,5S1783.84,1350.32,1783.84,1350.32Z" transform="translate(-143.94 -197.24)"/></g><path class="cls-19" d="M1506,1018.45c-8,4.32-18.58,4.32-24.55,6.21-5.55,1.75-6.76,7.57-6.76,7.57l-3.53-12.41-2.54-3.75s5.81-9.21,7-12.34,4.5-6.58,8-7.47,9.66-5,10.44-4.07c1.88,2.32-8,6.9-8.22,9.12a2.18,2.18,0,0,0,1.49,2.59h0c8.6,2.7,29-5.44,30.61-.53C1518.48,1005.21,1509.36,1016.61,1506,1018.45Z" transform="translate(-143.94 -197.24)"/><path class="cls-10" d="M1482.33,1026.79s-36.36,89.33-77.84,95.91c-5.16.81-10.7-.07-16.45-2.23h0c-18.77-7.08-39.73-27.88-56.81-48.15a495.5,495.5,0,0,1-34.28-46.12s5.57-67.3,19.48-59.87c29.2,15.59,64,89.62,84.25,105.13l66.17-56.91S1477.19,1016.94,1482.33,1026.79Z" transform="translate(-143.94 -197.24)"/><path class="cls-25" d="M1388,1120.46c-18.77-7.08-39.73-27.88-56.81-48.15.25-32.76,1.66-66.78,4.1-46.58C1339.56,1060.94,1387.28,1119.54,1388,1120.46Z" transform="translate(-143.94 -197.24)"/><path class="cls-26" d="M1147.83,1626.61H1113.4c-4.34-2.25-8.2-7.41-9.42-15.09-1.68-10.62-14.11-16.4-16.8-25.09s11.09-20.89,11.09-20.89l2.31-2.84,2.39-3,22.85,5.15s.57,5.21.91,11.84a144.53,144.53,0,0,1,.1,15.16c-.67,11.58,3.38,24,14.13,26.3C1148.91,1619.86,1148.56,1624.37,1147.83,1626.61Z" transform="translate(-143.94 -197.24)"/><path class="cls-26" d="M1347.63,1626.61H1268.9c-3.79-4.42-2.39-20.74-1.82-26.07.12-1.07.2-1.69.2-1.69s26.88-20.58,30.58-4.82c.11.49.25,1,.39,1.45,4.66,14.74,25.53,21.43,37.58,23.3C1343.66,1620,1346.56,1623.89,1347.63,1626.61Z" transform="translate(-143.94 -197.24)"/><path class="cls-27" d="M1332.63,1206.11s-4.08,48.74-8.88,107.32c-6.52,79.58-14.37,177.33-15.14,195.85-1.34,32.15-6.73,83.59-6.73,83.59s-12.76,12.22-38.3,7.07c0,0-22.76-73.43-29.26-151.12-.1-1.27-.2-2.55-.31-3.84-6-79.08-15.45-245.62-15.45-245.62Z" transform="translate(-143.94 -197.24)"/><path class="cls-9" d="M1332.63,1206.11s-4.08,48.74-8.88,107.32l-89.43,135.39c-.1-1.27-.2-2.55-.31-3.84-6-79.08-15.45-245.62-15.45-245.62Z" transform="translate(-143.94 -197.24)"/><path class="cls-27" d="M1314,1211.9s-73.58,176.5-122,259.44-63.5,106.1-63.5,106.1-27.72-10.61-30.24-17.85c0,0,18.5-160.13,50.9-199.16,18.31-22.06,39.82-88.25,40.83-111.4s6.55-69,6.55-69Z" transform="translate(-143.94 -197.24)"/><path class="cls-10" d="M1345.54,1181.15c-1.34,17.7-5.08,30.37-13.28,30.37a275.47,275.47,0,0,1-80,13.18c-8.52.06-20.58-1.6-30.59-3.27-10.21-1.74-18.3-3.48-18.3-3.48-8.75-2-18.42-7.43-17.13-17.41.69-5.32,1.19-12.14,1.53-20,0-.51,0-1,.07-1.53.66-16.12.8-36.49.86-57.68,0-9.22,0-18.59.06-27.84,0-8.82.1-17.51.23-25.84.13-9.4.33-18.34.67-26.49,0,0-8-54.73,1.53-64.63,11.19-11.59,43.88-22.19,67.74-21.28,49.75,0,59.28,11.38,68,20.6,3,3.18,15,22.66,15.35,44.06.45,29.84-.71,63.72-.71,63.73.31,4.85.83,11.1,1.4,18.23.61,7.6,1.29,16.18,1.85,25.14.29,4.51.55,9.11.77,13.71C1346.25,1154.88,1346.45,1169.17,1345.54,1181.15Z" transform="translate(-143.94 -197.24)"/><path class="cls-19" d="M1282.21,962.61c-13.66,11-36.74,2.59-44.43-.71a4,4,0,0,1-2.4-3.87,91.71,91.71,0,0,0-3.92-30.89c-.12-.35,2.68-.26,6.91.09,12.61,1,38.13,4.21,39.26,4.36h0s1.18,5.7,3.76,15.85c.22.89.46,1.83.72,2.79.3,1.2.62,2.46,1,3.75a36.41,36.41,0,0,1,.85,4.28A4.76,4.76,0,0,1,1282.21,962.61Z" transform="translate(-143.94 -197.24)"/><path class="cls-28" d="M1281.43,947.43c-17.52,6.94-48.73-15.73-48.73-15.73a28.72,28.72,0,0,1,5.67-4.48c12.61,1,38.13,4.22,39.26,4.36h0S1278.85,937.28,1281.43,947.43Z" transform="translate(-143.94 -197.24)"/><path class="cls-19" d="M1284.93,929a92.84,92.84,0,0,1-16.39,6.56c-13.63,4-32.12,5.7-40.45-10.27-14-26.88-29-42-2.25-57.93,14.31-8.53,24-10.35,31-9,6.08,1.16,10.1,4.72,13.28,8.36C1277,874.54,1295.71,922.25,1284.93,929Z" transform="translate(-143.94 -197.24)"/><path class="cls-29" d="M1265.71,866.35c-6.39,4.88-15.57,7.61-18.72,9.62a12.17,12.17,0,0,0-4.72,6.95,35.69,35.69,0,0,0-.89,13.17c.45,3.81.44,7.07-9.54,6.28a7.37,7.37,0,0,0-1.33,0,3.69,3.69,0,0,0-2.13.74c-3.63,3,3.23,13.68,5.15,15.94a18.32,18.32,0,0,1,1.28,5.33,9.64,9.64,0,0,1-2,7.23.34.34,0,0,0-.08.09c-.39.42-5.4,3.64-19.57-7.62-2.32-1.84-4.88-4.07-7.71-6.77-3.3-3.13-6.94-6.9-11-11.41-4.52-5-9.94-17.1-6.14-30.09s19-30.68,39.9-33.89c16.57-2.54,18.66,2.9,32.85,2.73C1270.89,844.54,1276.74,857.94,1265.71,866.35Z" transform="translate(-143.94 -197.24)"/><path class="cls-24" d="M1282.35,910.64s1.15,3.58-6.93,7.82c0,0-6.79,3.55-8.68,0C1266.74,918.45,1271.61,912.16,1282.35,910.64Z" transform="translate(-143.94 -197.24)"/><path class="cls-25" d="M1222.45,1050.56c-.43.84-23,44-33.74,70.72,0-9.22,0-18.59.06-27.84,0-8.82.1-17.51.23-25.84Z" transform="translate(-143.94 -197.24)"/><path class="cls-19" d="M1118.3,1199.23s-5.48,7.3-5.7,10.22c-1.47,19.79,7.57,22.53-15.84,33.52,0,0-10,3.81-10.16-4s6.93-7.88,5.63-18.74c-1.5-12.53-1.35-12.65,6.88-19.19l5.44-9Z" transform="translate(-143.94 -197.24)"/><path class="cls-19" d="M1109.65,1207.93s5.28,5.51,5.62,7.8c1.07,7.35,3.52,10.53,2.29,11.33-2.56,1.66-5.94-3.79-7.56-8.67A22.29,22.29,0,0,1,1109.65,1207.93Z" transform="translate(-143.94 -197.24)"/><path class="cls-10" d="M1102.87,1203.83a72.08,72.08,0,0,0,16.43.91s23.4-72.29,26.41-78.89,85.74-83.72,85.74-83.72-7.28-82.13-27.17-74.57c-37,14.08-88.68,124.34-96,141.22-12.06,27.89-16.25,90.44-16.25,90.44A30.12,30.12,0,0,0,1102.87,1203.83Z" transform="translate(-143.94 -197.24)"/><path class="cls-30" d="M1223.44,919.74l-10.31,4.34c-2.32-1.84-4.88-4.07-7.71-6.77l12.22-8.88Z" transform="translate(-143.94 -197.24)"/><path class="cls-4" d="M1282.58,899.5l-45.37,23.93a12.29,12.29,0,0,1-5.54,1.4h-.81c-2.87,0-5.83-2-7.42-5.1l-5.8-11.31c-2-3.87-2-8.27-.11-11.33h0a7.29,7.29,0,0,1,2.72-2.55L1267,869.9c3.66-1.93,8.67.29,11.12,4.94l6.7,12.7C1287.24,892.19,1286.25,897.57,1282.58,899.5Z" transform="translate(-143.94 -197.24)"/><path class="cls-30" d="M1296.35,892.24l-10.5,5.54-6.52,3.44-7.83,4.13-19.88,10.48-5.25,2.77a6.47,6.47,0,0,1-8.72-2.7l-9.59-18.18a6.48,6.48,0,0,1,2.7-8.72l23.49-12.39,10.88-5.74,7.28-3.83,8.32-4.4a6.37,6.37,0,0,1,4.57-.54,6.47,6.47,0,0,1,4.16,3.24l9.58,18.18A6.48,6.48,0,0,1,1296.35,892.24Z" transform="translate(-143.94 -197.24)"/><g class="cls-31"><path class="cls-32" d="M1254.25,876.61c-.65,7.3-1.82,25.86-2.63,39.22l-5.25,2.77a6.47,6.47,0,0,1-8.72-2.7l-9.59-18.18a6.48,6.48,0,0,1,2.7-8.72Z" transform="translate(-143.94 -197.24)"/></g><g class="cls-33"><polygon class="cls-32" points="1128.47 669.8 1127.56 708.11 1117.11 713.63 1121.19 673.63 1128.47 669.8"/></g><path class="cls-32" d="M1296.35,892.24l-10.5,5.54-.55-35.68a6.47,6.47,0,0,1,4.16,3.24l9.58,18.18A6.48,6.48,0,0,1,1296.35,892.24Z" transform="translate(-143.94 -197.24)"/><path class="cls-19" d="M1489.71,778.07a6,6,0,0,0-1.07,6.4l0,0c1.54,4.27,6.64,9,12.57,13.79.76.61,1.43,1.17,2,1.68l.45.41.35.31c5.52,5.09,3.44,6.26,13.37,16.59,11.31,11.78,19.11,12,21.32,10.92,1.88-.91-1.93-7.16-6.15-14.18l-.62-1-1.68-2.82c-5-8.45-3.67-12.41-2.5-25,1-10.21,15.89-57.07,15.89-57.07L1522,724.38s-6.53,37.32-13.72,43.06c-3.85,3.07-8.16,3.1-11.86,5.37l-.77.49A28.29,28.29,0,0,0,1489.71,778.07Z" transform="translate(-143.94 -197.24)"/><path class="cls-9" d="M1489.71,778.07a6,6,0,0,0-1.07,6.4l0,0c1.89,4.26,6.86,9,12.59,13.75.75.62,1.41,1.19,2,1.72l.45.41.35.31c5.52,5.09,3.44,6.26,13.37,16.59,11.31,11.78,19.11,12,21.32,10.92,1.88-.91-1.93-7.16-6.15-14.18a48.18,48.18,0,0,1-20.18-14.87c-6.56-8.37-11-19-15.49-25.61l-1.27-.24A28.09,28.09,0,0,0,1489.71,778.07Z" transform="translate(-143.94 -197.24)"/><path class="cls-19" d="M1664.59,764.52c1.34,6.7,10.88,5.58,21.54,3s8.13.49,23.3-1.19,19.77-7.34,20.23-9.59c.42-2-7.08-2.71-15.12-3.64l-3-.36c-9.08-1.14-15.73-7-24-11.81-7.81-4.56-19.47-23.13-19.47-23.13l-20.81,1.65s10.92,16.59,15.14,23.8c2.49,4.24,2.36,9.85,2,14.18A26.47,26.47,0,0,0,1664.59,764.52Z" transform="translate(-143.94 -197.24)"/><path class="cls-9" d="M1686.13,767.5c10.66-2.61,8.13.49,23.3-1.19s19.77-7.34,20.23-9.59c.42-2-7.08-2.71-15.12-3.64l-.08.16a42.77,42.77,0,0,1-21.73,6.75c-10.29.25-21.19-2.7-28.3-2.58a26.47,26.47,0,0,0,.16,7.11C1665.93,771.22,1675.47,770.1,1686.13,767.5Z" transform="translate(-143.94 -197.24)"/><path class="cls-25" d="M1584.84,631.47l-19.45,52.34L1540,752.16a41.35,41.35,0,0,1-13.49-1.23c-6.07-1.76-13-6.36-13-6.36s7-73.38,20.2-115.5c3.37-10.82,7.15-19.56,11.32-24.49C1565.37,580.48,1584.84,631.47,1584.84,631.47Z" transform="translate(-143.94 -197.24)"/><path class="cls-10" d="M1565.07,548.34c-11.08-3.57-40-.05-71.31,5.62a21.26,21.26,0,0,1-21.94-9.92h0L1393,537.89s-26,57.71-11.77,94.48c2.09,5.41,6.69,8.78,13.78,8.89h0s47.65.07,62.9.07c39.22,0,83-27,88.66-28.09,9.27-1.86,13,16.68,22.25,36.15s87.15,86.22,87.15,86.22,12,.12,16.91-1.74c5.32-2,7.26-4.58,7.26-4.58S1593.8,557.61,1565.07,548.34Z" transform="translate(-143.94 -197.24)"/><path class="cls-16" d="M1463.44,312.46a28,28,0,0,0-15.07-3.92,42.14,42.14,0,0,1-7.27-.44c-30.1-4.42-48.22,39.3-49.29,52.51-2,24.26-14.78,28-32.84,43.14-36.21,30.46-25.59,65.85-5.79,79,11.88,7.89,32.82,0,32.82,0,.3.21,57.27-31.85,85.35-47.31C1513.46,429.45,1480.35,322.53,1463.44,312.46Z" transform="translate(-143.94 -197.24)"/><path class="cls-19" d="M1447.81,422.28c.13.08-13.81,4.84-23.13.71-8.77-3.88-15.42-18.31-15.29-18.31,4-.19,8.37-3.68,11.74-26.56l1.7.61L1451.4,389s-2.07,9.17-3.41,17.9C1446.86,414.22,1446.25,421.24,1447.81,422.28Z" transform="translate(-143.94 -197.24)"/><path class="cls-28" d="M1451.4,389s-1.14,4.95-2.81,14.19c-16.4-3-23.45-15.59-25.76-24.46Z" transform="translate(-143.94 -197.24)"/><path class="cls-19" d="M1455.65,398.1s-39.08-5.24-35.44-29.53,1-41.32,26.16-39,28.55,12.32,29.3,20.72S1465.91,398.84,1455.65,398.1Z" transform="translate(-143.94 -197.24)"/><path class="cls-16" d="M1474.25,337s-25,21.56-42,23.29-23.46-3.72-23.46-3.72a66.52,66.52,0,0,0,16.07-21.77,11.93,11.93,0,0,1,9.86-7C1446.84,326.68,1469.87,326.2,1474.25,337Z" transform="translate(-143.94 -197.24)"/><path class="cls-16" d="M1458.61,335.05s8.37,8.09,11,14.09c2.54,5.79,3.3,19.64,1.28,25.15,0,0,13-25.36,5.65-37.68C1468.73,323.55,1458.61,335.05,1458.61,335.05Z" transform="translate(-143.94 -197.24)"/><path class="cls-15" d="M1480.72,479.84c-1.18,79.11-.32,62.58-9,70.08-2.08,1.81-7.94,2.89-15.66,3.4-24.25,1.61-66.89-2.39-68.51-6.87-5.6-15.51-1.65-20.33-6.32-44.08-.48-2.52-1.09-5.26-1.79-8.23-3.89-16.31-7.68-21.86,6.13-48.06,12.52-23.74,25.53-43,26.7-42.31,33,19.61,35.7,3.13,35.7,3.13S1481.3,441.26,1480.72,479.84Z" transform="translate(-143.94 -197.24)"/><path class="cls-10" d="M1565.39,683.81,1540,752.16a41.35,41.35,0,0,1-13.49-1.23c-6.07-1.76-13-6.36-13-6.36s7-73.38,20.2-115.5Z" transform="translate(-143.94 -197.24)"/><path class="cls-15" d="M1448,406.9s34,5.76,38,20.39,17.13,103.48,17.13,103.48-9.58,9.36-17.56,1.37S1460.41,449,1460.41,449Z" transform="translate(-143.94 -197.24)"/><path class="cls-22" d="M1456.08,553.32c-24.25,1.61-66.89-2.39-68.51-6.87-5.6-15.51-1.65-20.33-6.32-44.08l11.7-32.94s-1.93,36.68,8.89,46.33,44.29,18.63,49.55,26.69A29.34,29.34,0,0,1,1456.08,553.32Z" transform="translate(-143.94 -197.24)"/><path class="cls-19" d="M1428.29,537.89s23.93-5.33,27.79-3.21,13.3,9.86,14.48,12.55-8.59-2-11.77-2.89c-2.06-.56-7.49,1.33-10.17,2.22-11.29,3.77-18.21,1.83-18.21,1.83Z" transform="translate(-143.94 -197.24)"/><path class="cls-15" d="M1412.27,403.75s-32.14,2-43.26,17.5c-15.66,21.84-46.72,114.91-28.92,127.32,20.05,14,91.24,3.66,91.24,3.66s2.37-11.07-.92-16.43-56.87-14-59.34-16.48,30.9-48.21,30.9-55.63S1412.27,403.75,1412.27,403.75Z" transform="translate(-143.94 -197.24)"/><path class="cls-19" d="M1457.24,541.34s5,6.47,6.66,7.24a4.8,4.8,0,0,0,2.7.58l-3.37-6.08Z" transform="translate(-143.94 -197.24)"/><path class="cls-19" d="M1456.08,534.68l14.58,7.08a2.57,2.57,0,0,1-2.41.93c-1.8-.08-6.33-1.73-6.33-1.73Z" transform="translate(-143.94 -197.24)"/><polygon class="cls-16" points="1436.63 354.09 1284.35 354.09 1284.35 357.45 1435.28 357.45 1436.63 354.09"/><polygon class="cls-16" points="1319.96 357.45 1435.28 357.45 1469.96 271.19 1354.83 271.19 1319.96 357.45"/><path class="cls-1" d="M1550.11,511.55c.87-3-.89-5.49-3.92-5.49a7.86,7.86,0,0,0-7.06,5.49c-.88,3,.88,5.49,3.91,5.49A7.87,7.87,0,0,0,1550.11,511.55Z" transform="translate(-143.94 -197.24)"/><path class="cls-19" d="M2202.08,1098.84c0-.44,6.35-13.56,4.33-14.57s-5.64-.86-6.06,1.44S2202.08,1098.84,2202.08,1098.84Z" transform="translate(-143.94 -197.24)"/><path class="cls-9" d="M2296.84,935.69s37.23-44.73,56.94-16.11c0,0,14.7,6.1,20,31.12,5.42,25.54-11.56,44.94-20.34,40.15-5.63-3.08-9.89,6.77-9.89,6.77Z" transform="translate(-143.94 -197.24)"/><path class="cls-19" d="M2250.68,1173.72c-29.6-10.9-58.1-61.55-58.1-61.55l9.33-6.53c7.78,11.37,42.75,33.2,42.75,33.2.8-9.58,2-18.27,3.39-26.15,9.71-53.52,31.92-69.37,37.88-72.74a12.6,12.6,0,0,1,1.5-.76l-.06,1.14c-.09,1.61-.28,4.86-.59,9.3C2284.47,1082.77,2275.41,1182.84,2250.68,1173.72Z" transform="translate(-143.94 -197.24)"/><path class="cls-9" d="M2349.71,915s5-20,34.41-13.76c0,0-14.08-1.77-17.94,3.65,0,0,11.16-5.11,18.15-.84s8.13,18.67,7.09,23-8.76,17.41-13.87,17.41-11.16-4.48-11.16-4.48Z" transform="translate(-143.94 -197.24)"/><path class="cls-19" d="M2393.71,1228.37c-14.62-32.79-21.62-42.06-21.86-52.38-.19-8.15,3.83-17,11.64-38.54a80.39,80.39,0,0,0,3.89-15.6c6.18-41.61-17.88-86.6-32.83-89.66-4.16-1.1-11.22-16.13-11.13-40.35l-1.87.37-31.49,6.24s.71,9.91.73,19.25c0,7.78-.45,15.15-2.21,16.08-2.26.2-3.6.34-3.6.34s-26.26,36.46-28.47,70.38,21,48.65-.17,116.42C2254.69,1290.14,2401.79,1246.49,2393.71,1228.37Z" transform="translate(-143.94 -197.24)"/><path class="cls-34" d="M2310.06,998.45s.71,9.91.73,19.25c17.62-.5,26.94-16.58,30.76-25.49Z" transform="translate(-143.94 -197.24)"/><path class="cls-9" d="M2344.8,988.79s9.23-14.6,11.45-27.07c1.58-8.91-3-41.93-36.13-37.17a45.15,45.15,0,0,0-18.7,7.06c-7.2,4.87-17.6,15.37-6,44.19l3,9.73Z" transform="translate(-143.94 -197.24)"/><path class="cls-19" d="M2304.17,1007.29s41.69.69,41.72-25.28,5.43-43.38-21.19-44.91-31.8,8.36-33.92,17S2293.33,1006.44,2304.17,1007.29Z" transform="translate(-143.94 -197.24)"/><path class="cls-9" d="M2305.71,936.46s11.42,30.47,28.94,35,25.12-.18,25.12-.18a49.64,49.64,0,0,1-16.23-29.31S2314.32,922,2305.71,936.46Z" transform="translate(-143.94 -197.24)"/><path class="cls-9" d="M2308.54,938.93s-8.52,6.81-10.6,13.42-3,20.23-7,19.77c0,0-8.6-20.71,1.06-32.43C2302.27,927.27,2308.54,938.93,2308.54,938.93Z" transform="translate(-143.94 -197.24)"/><path class="cls-35" d="M2356.79,1543a412,412,0,0,1-26.28,73.72l-13.75-1s6.75-32.07,6.36-75.41c-.27-30.3-4-66.11-16-100.3-41.14-117.49-34.49-203-34.49-203l77.36,9,3.6.42c.33,35.53,1.24,83.77,2.05,121.49.71,33.93,1.33,59.34,1.33,59.34C2371.85,1459.38,2366.45,1504.6,2356.79,1543Z" transform="translate(-143.94 -197.24)"/><path class="cls-19" d="M2447.93,1263.2l-12.51,3.75s-42.66-65.21-46.41-83c-1.23-5.8-4-12-6.37-33.72-3-27.74-16.61-59.92-16.61-59.92l-3.08-13.34-10.51-45.52s20.13,2.06,31.9,7c3.9,1.62,6.87,3.57,7.91,5.84,8.65,19,17.28,67,23.35,101.24,3.38,19.08,6,33.89,7.31,37C2426.66,1191.25,2438.13,1239.42,2447.93,1263.2Z" transform="translate(-143.94 -197.24)"/><path class="cls-27" d="M2396.93,1525c-6.09,47.29-13.54,82.38-13.54,82.38l-12.82,11.93s-6.21-33.44-10.61-73.24c-4.19-37.82-9.94-77.84-16.44-90-25.8-48.45-33.56-231.34-33.56-231.34l78.43-3.89c7.89,13.26,11.33,35,12.15,59.75,2.06,62.41-11,127.74-13.21,139.51C2387.33,1420,2407.07,1446.18,2396.93,1525Z" transform="translate(-143.94 -197.24)"/><path class="cls-9" d="M2307,940s8.13,31.91,30.24,42.13c0,0-22.11-19.6-24-40.67S2307,940,2307,940Z" transform="translate(-143.94 -197.24)"/><path class="cls-15" d="M2403.54,1252a18.47,18.47,0,0,1-.49,6.27c-1.67,5.25-7.4,7.64-21.25,6.21-8.47-.88-12.25-15.07-13.93-27.18-5.09,17.32-12.21,27.05-21.42,29.09-13.43,3-81.19,11.22-85.63-21-4.88-35.43,9.73-98.16,10.54-132a166.39,166.39,0,0,1-2.46-31.35c.56-24.09,7.64-37.6,13.07-43,1.54-1.19,3.08-1.92,9.27-3,3.16-.54,7.53-1.16,13.74-2a21.52,21.52,0,0,1,2.47-.19c-1.15,2-7.41,11.87-6,20.74,3.56,23.11,34,4.12,38.28,1.36,13.78-8.86,21.6-23.45,21.6-23.45s19.28,2.11,28.71,9l-.11.12a7.85,7.85,0,0,1,2.48,2.61c10.06,19.15,20.11,67.48,27.17,102-17.12,9.43-32.08,6.62-36.72,5.38C2388.88,1191.32,2402.64,1234,2403.54,1252Z" transform="translate(-143.94 -197.24)"/><path class="cls-19" d="M2201.91,1105.64c0-1.29,1.08-19.91-2.23-23.82s-10.09-9.48-12.22-9.31-10.45,11.24-7.95,19.71,13.07,20,13.07,20Z" transform="translate(-143.94 -197.24)"/><path class="cls-27" d="M2212.55,1083.54l-19.12,5.73a1.3,1.3,0,0,1-1.62-.87L2179,1045.75a1.3,1.3,0,0,1,.87-1.62l19.12-5.73a1.31,1.31,0,0,1,1.63.87l12.78,42.65A1.31,1.31,0,0,1,2212.55,1083.54Z" transform="translate(-143.94 -197.24)"/><path class="cls-9" d="M2209.65,1084.41l-17.19,5.15a2.32,2.32,0,0,1-2.88-1.55l-12.2-40.71a2.31,2.31,0,0,1,1.55-2.88l17.19-5.15a2.3,2.3,0,0,1,2.88,1.55l12.2,40.71A2.31,2.31,0,0,1,2209.65,1084.41Z" transform="translate(-143.94 -197.24)"/><path class="cls-22" d="M2403.54,1252c-9.31-3.11-21.25-11.38-35.59-29.91-38-49.08-3.23-106.75,1.43-107.83s13.43,37.32,13.43,37.32C2388.88,1191.32,2402.64,1234,2403.54,1252Z" transform="translate(-143.94 -197.24)"/><path class="cls-15" d="M2282,1039.08s-23.67,12-32.33,64.78c0,0,8.52,11.68,20.51,15.12a24.16,24.16,0,0,0,5.34.92C2290.22,1120.68,2282,1039.08,2282,1039.08Z" transform="translate(-143.94 -197.24)"/><path class="cls-19" d="M2185.47,1073.94s8-12.36,10-11.68c2.81,1-7.28,16.68-7.28,16.68s7.47-11.73,8.64-10.85c2.66,2-1.57,9.38-5.77,15,0,0,7.51-6.89,7.76-5.65.86,4.35-8.26,14.87-8.26,14.87l-5.09-11.63Z" transform="translate(-143.94 -197.24)"/><path class="cls-19" d="M2179.44,1085.42c.39-1.51,2.35-31,3.19-28.24s2.84,18.29,2.84,18.29Z" transform="translate(-143.94 -197.24)"/><path class="cls-24" d="M2312.31,991.87s-.72,3.06-8.33,2.59c0,0-6.39-.39-6.2-3.76C2297.78,990.7,2304,988.31,2312.31,991.87Z" transform="translate(-143.94 -197.24)"/><path class="cls-36" d="M2280.33,1626.65h66.42s2.48-10.87-1.88-18.28c-3.86-6.55-3.89-10.47-3.08-18.17-3,1.26-18.21,2-21.28.17,0,7.73-11.33,18.49-15.15,21.31C2301,1614.89,2281.66,1613.75,2280.33,1626.65Z" transform="translate(-143.94 -197.24)"/><path class="cls-37" d="M2326,1626.65h66.41s2.49-10.87-1.87-18.28c-3.86-6.55-4.67-10.29-3.86-18-3,1.26-17.43,1.83-20.5,0,0,7.73-11.33,18.49-15.15,21.31C2346.71,1614.89,2327.35,1613.75,2326,1626.65Z" transform="translate(-143.94 -197.24)"/><path class="cls-19" d="M2447.93,1263.2s15.1,10,17.41,14.27,7.7,19.81,7.7,19.81-3.85.57-7.7-6.16-16.54-6.15-20.77-9.81-9.15-14.36-9.15-14.36Z" transform="translate(-143.94 -197.24)"/><path class="cls-19" d="M2437.06,1270.26s2.51,11.82,5.58,15.28,7.32,9.24,9.05,7.7-1.93-14.43-1.93-14.43Z" transform="translate(-143.94 -197.24)"/><path class="cls-19" d="M2463.23,1278.81c.38.58,13.65,14.68,13.65,14.68s-4.81,2.18-6.15,0S2463.23,1278.81,2463.23,1278.81Z" transform="translate(-143.94 -197.24)"/><rect class="cls-9" y="1429.37" width="2473.37" height="6.63" rx="2.82"/><path class="cls-10" d="M914.43,1133.3a2,2,0,0,1-1.92-1.38c-1.46-4.4-2.81-8.74-4-12.91a2,2,0,1,1,3.88-1.12c1.19,4.12,2.52,8.41,4,12.76a2,2,0,0,1-1.28,2.55A2,2,0,0,1,914.43,1133.3ZM907,1107.46a2,2,0,0,1-2-1.55c-1.07-4.55-2-9-2.71-13.3a2,2,0,0,1,4-.67c.71,4.18,1.61,8.57,2.66,13a2,2,0,0,1-1.51,2.43A2.4,2.4,0,0,1,907,1107.46Zm108.43-8h-.19a87.38,87.38,0,0,1-13.55-2.36,2,2,0,1,1,1-3.9,85.1,85.1,0,0,0,12.93,2.24,2,2,0,0,1-.18,4Zm13.41,0a2,2,0,0,1-.2-4,59.35,59.35,0,0,0,12.68-2.71,2,2,0,0,1,1.28,3.82,62.49,62.49,0,0,1-13.55,2.9Zm704.18-6.11a2,2,0,0,1-1.3-3.55,77,77,0,0,0,9.21-9.29A2,2,0,1,1,1744,1083a79.93,79.93,0,0,1-9.69,9.78A2,2,0,0,1,1733,1093.27ZM989.42,1093a2.11,2.11,0,0,1-.74-.14,129.87,129.87,0,0,1-12.43-5.66,2,2,0,0,1,1.85-3.58,126.56,126.56,0,0,0,12,5.48,2,2,0,0,1-.73,3.9Zm64.73-2.06a2,2,0,0,1-1.05-3.75,64.54,64.54,0,0,0,10-7.49l.38-.34,2.75,3-.42.38a69.16,69.16,0,0,1-10.6,8A2,2,0,0,1,1054.15,1090.93Zm-151.57-10a2,2,0,0,1-2-1.84c-.38-4.2-.58-8.32-.58-12.22,0-.47,0-.94,0-1.41a2,2,0,0,1,2-2h0a2,2,0,0,1,2,2v1.36c0,3.78.18,7.77.55,11.86a2,2,0,0,1-1.82,2.19Zm62.94-.28a2,2,0,0,1-1.08-.31,134.79,134.79,0,0,1-11.16-7.91,2,2,0,1,1,2.51-3.15,130.52,130.52,0,0,0,10.82,7.66,2,2,0,0,1-1.09,3.71Zm784.68-8a2.07,2.07,0,0,1-1-.27,2,2,0,0,1-.73-2.76,84.69,84.69,0,0,0,5.71-11.81,2,2,0,0,1,3.75,1.47,89.89,89.89,0,0,1-6,12.37A2,2,0,0,1,1750.2,1072.74Zm-676.64-.1a2,2,0,0,1-1.09-.32,2,2,0,0,1-.6-2.79,36.38,36.38,0,0,0,5-11.64,2,2,0,1,1,3.93.9,40.25,40.25,0,0,1-5.56,12.93A2,2,0,0,1,1073.56,1072.64ZM945.38,1063a2,2,0,0,1-1.54-.72c-2.85-3.35-5.72-6.9-8.54-10.54a2,2,0,1,1,3.2-2.46c2.77,3.59,5.6,7.09,8.41,10.39a2,2,0,0,1-1.53,3.33Zm-42.33-8.85-.3,0a2,2,0,0,1-1.7-2.29,79.31,79.31,0,0,1,3.13-13.4,2,2,0,0,1,3.83,1.27,75.47,75.47,0,0,0-3,12.71A2,2,0,0,1,903.05,1054.16Zm857-6.34a1.8,1.8,0,0,1-.46,0,2,2,0,0,1-1.5-2.42,101.72,101.72,0,0,0,2.15-13,2,2,0,1,1,4,.4,104.59,104.59,0,0,1-2.24,13.51A2,2,0,0,1,1760,1047.82Zm-680.81-.81a2,2,0,0,1-2-1.68,39.24,39.24,0,0,0-4.19-12,2,2,0,0,1,3.56-1.9,43.19,43.19,0,0,1,4.61,13.25,2,2,0,0,1-1.66,2.32Zm-150.31-5.3a2,2,0,0,1-1.65-.86c-2.61-3.7-5.15-7.48-7.56-11.24a2,2,0,0,1,3.4-2.17c2.37,3.71,4.88,7.44,7.46,11.09a2,2,0,0,1-.49,2.81A2,2,0,0,1,928.9,1041.71Zm-17.27-12.81a1.91,1.91,0,0,1-1-.29,2,2,0,0,1-.71-2.76,60.48,60.48,0,0,1,4.73-6.82,2,2,0,0,1-2-1c-2.27-4-4.44-8-6.45-11.93a2,2,0,0,1,3.6-1.82c2,3.89,4.11,7.84,6.35,11.74a2,2,0,0,1,.27.87c.61-.7,1.25-1.38,1.9-2a2,2,0,1,1,2.89,2.8,55.66,55.66,0,0,0-7.85,10.27A2,2,0,0,1,911.63,1028.9Zm155.44-5.46a2,2,0,0,1-1.51-.67,71.19,71.19,0,0,0-9.6-8.84,2,2,0,0,1,2.46-3.2,75.59,75.59,0,0,1,10.15,9.35,2,2,0,0,1-1.5,3.36Zm695.67-2.29a2,2,0,0,1-2-2,117.32,117.32,0,0,0-1-13.16,2,2,0,0,1,4-.54,123.19,123.19,0,0,1,1.06,13.62,2,2,0,0,1-2,2.06Zm-832.63-11.42A2,2,0,0,1,929,1006a78.07,78.07,0,0,1,12.14-6.51,2,2,0,1,1,1.6,3.7,75.12,75.12,0,0,0-11.51,6.17A2,2,0,0,1,930.11,1009.73ZM1046,1007a2,2,0,0,1-1-.25,98.7,98.7,0,0,0-11.92-5.62,2,2,0,0,1,1.48-3.75,104.4,104.4,0,0,1,12.4,5.84,2,2,0,0,1-1,3.78Zm-91.36-8.06a2,2,0,0,1-.55-4c4.15-1.17,8.62-2.19,13.3-3a2,2,0,0,1,.71,4c-4.55.82-8.89,1.81-12.91,2.94A1.75,1.75,0,0,1,954.6,998.92Zm66.43-1.83a1.79,1.79,0,0,1-.51-.07,111.42,111.42,0,0,0-12.95-2.55,2,2,0,1,1,.55-4,114.76,114.76,0,0,1,13.41,2.65,2,2,0,0,1-.5,4Zm-118.78-2a2,2,0,0,1-1.85-1.21c-1.84-4.21-3.54-8.45-5-12.61a2,2,0,0,1,3.79-1.37c1.48,4.07,3.15,8.23,5,12.36a2,2,0,0,1-1,2.66A2.14,2.14,0,0,1,902.25,995.05Zm856.94-.49a2,2,0,0,1-2-1.53,127.06,127.06,0,0,0-3.84-12.65,2,2,0,0,1,3.79-1.38,130,130,0,0,1,4,13.06,2,2,0,0,1-1.47,2.44A2.05,2.05,0,0,1,1759.19,994.56ZM981,994.07a2,2,0,0,1-.26-4h.07a113.27,113.27,0,0,1,12-.62h1.68a2,2,0,0,1,0,4h0l-1.76,0a106.84,106.84,0,0,0-11.34.6Zm441.9-23a2,2,0,0,1,0-4,67,67,0,0,0,12.93-1.47,2,2,0,1,1,.8,4,69.52,69.52,0,0,1-13.72,1.55ZM893.1,969.77a2,2,0,0,1-1.94-1.47c-1.25-4.43-2.33-8.88-3.19-13.23a2,2,0,1,1,3.95-.78c.85,4.24,1.9,8.58,3.12,12.91a2,2,0,0,1-1.39,2.49A2,2,0,0,1,893.1,969.77Zm857-.43a2,2,0,0,1-1.82-1.13,122.47,122.47,0,0,0-6.43-11.55,2,2,0,0,1,3.41-2.15,127.1,127.1,0,0,1,6.65,11.93,2,2,0,0,1-1.81,2.9Zm-340.32-.41a1.89,1.89,0,0,1-.7-.13,31.65,31.65,0,0,1-10.84-6.78l-1-1a2,2,0,0,1,2.84-2.86c.31.31.63.62,1,.92a27.16,27.16,0,0,0,9.47,5.93,2,2,0,0,1-.7,3.91Zm39.52-2.78a2,2,0,0,1-.6-3.94c3.83-1.19,7.95-2.61,12.61-4.34a2,2,0,0,1,1.41,3.78c-4.73,1.75-8.92,3.2-12.82,4.41A2.08,2.08,0,0,1,1449.25,966.15Zm25.25-9.24a2,2,0,0,1-.75-3.89c4.41-1.78,9-3.66,12.42-5.1a2,2,0,0,1,1.54,3.73c-3.47,1.44-8,3.33-12.46,5.11A2,2,0,0,1,1474.5,956.91ZM1390.42,951a2,2,0,0,1-1.77-1,42,42,0,0,1-4.64-13.25,2,2,0,1,1,4-.7,38,38,0,0,0,4.19,12,2,2,0,0,1-1.76,3Zm345.29-4.34a2,2,0,0,1-1.57-.75,111.57,111.57,0,0,0-8.83-9.8,2,2,0,1,1,2.83-2.87,116.56,116.56,0,0,1,9.15,10.15,2,2,0,0,1-.32,2.83A2,2,0,0,1,1735.71,946.66Zm-236.36,0a2,2,0,0,1-.77-3.88c4-1.68,8.19-3.4,12.44-5.13a2,2,0,1,1,1.52,3.73q-6.36,2.6-12.41,5.12A2,2,0,0,1,1499.35,946.63Zm-611.43-3.22a2,2,0,0,1-2-1.8c-.48-4.58-.74-9.16-.76-13.62a2,2,0,0,1,2-2h0a2,2,0,0,1,2,2c0,4.32.27,8.77.74,13.21a2,2,0,0,1-1.79,2.22Zm636.35-6.91a2,2,0,0,1-.74-3.89c4.38-1.72,8.5-3.29,12.6-4.81a2,2,0,1,1,1.4,3.78c-4.07,1.51-8.17,3.08-12.53,4.79A2.08,2.08,0,0,1,1524.27,936.5Zm192.33-8.64a2,2,0,0,1-1.23-.42,103.49,103.49,0,0,0-10.92-7.38,2,2,0,0,1,2-3.48,111.56,111.56,0,0,1,11.34,7.66,2,2,0,0,1-1.24,3.62Zm-167.12-.71a2,2,0,0,1-.66-3.92c4.31-1.5,8.62-2.93,12.8-4.27a2,2,0,1,1,1.23,3.84c-4.15,1.33-8.43,2.75-12.71,4.24A1.91,1.91,0,0,1,1549.48,927.15ZM1385.42,925h-.13a2,2,0,0,1-1.88-2.15,109.84,109.84,0,0,1,1.83-13.55,2,2,0,1,1,4,.76,106,106,0,0,0-1.77,13.05A2,2,0,0,1,1385.42,925Zm189.68-6a2,2,0,0,1-.56-4c4.35-1.26,8.73-2.46,13-3.56a2,2,0,1,1,1,3.9c-4.26,1.1-8.6,2.28-12.91,3.53A2.23,2.23,0,0,1,1575.1,919Zm-687.28-2.4h-.21a2,2,0,0,1-1.8-2.22,120.4,120.4,0,0,1,2.2-13.49,2,2,0,1,1,3.93.88,114.49,114.49,0,0,0-2.11,13A2,2,0,0,1,887.82,916.58Zm805.66-2.29a2,2,0,0,1-.79-.16,105,105,0,0,0-12.41-4.39,2,2,0,0,1,1.1-3.88,109,109,0,0,1,12.9,4.56,2,2,0,0,1-.8,3.87Zm-92.34-2a2,2,0,0,1-.44-4c4.41-1,8.86-1.9,13.24-2.72a2,2,0,0,1,.74,4c-4.33.81-8.74,1.71-13.1,2.68A1.7,1.7,0,0,1,1601.14,912.3Zm26.42-4.94a2,2,0,0,1-.3-4l3-.44c3.53-.5,7.08-.87,10.54-1.1a2,2,0,0,1,.27,4c-3.37.22-6.81.58-10.24,1.07l-3,.43Zm40.15-.41-.31,0a117.93,117.93,0,0,0-13.13-1.27,2,2,0,0,1-1.94-2.1,2,2,0,0,1,2.1-1.93,118.9,118.9,0,0,1,13.59,1.32,2,2,0,0,1-.31,4Zm-277.55-8.39a2.12,2.12,0,0,1-.49-.06,2,2,0,0,1-1.47-2.44c1.07-4.32,2.29-9,3.36-13a2,2,0,1,1,3.9,1c-1.07,4.07-2.28,8.7-3.34,13A2,2,0,0,1,1390.16,898.56Zm-496.5-8.17a1.91,1.91,0,0,1-.66-.11,2,2,0,0,1-1.24-2.57A117.08,117.08,0,0,1,897,875.1a2,2,0,1,1,3.62,1.76A114.79,114.79,0,0,0,895.57,889,2,2,0,0,1,893.66,890.39Zm503.23-17.86a2.14,2.14,0,0,1-.5-.06,2,2,0,0,1-1.46-2.45c1.19-4.71,2.22-9,3.15-13a2,2,0,0,1,3.93.9c-.93,4.09-2,8.38-3.17,13.11A2,2,0,0,1,1396.89,872.53Zm-491.51-6.27a2,2,0,0,1-1.7-3.09c.5-.8,1-1.59,1.53-2.38,2.06-3.1,4.19-6,6.36-8.77a2,2,0,1,1,3.15,2.52c-2.09,2.62-4.16,5.47-6.14,8.48-.51.76-1,1.53-1.49,2.3A2,2,0,0,1,905.38,866.26Zm497.47-20-.39,0a2,2,0,0,1-1.59-2.37c.86-4.42,1.65-8.85,2.34-13.16a2,2,0,1,1,4,.63c-.69,4.36-1.49,8.84-2.37,13.31A2,2,0,0,1,1402.85,846.31Zm-480.65-.92a2,2,0,0,1-1.38-3.49,78.5,78.5,0,0,1,10.78-8.57,2,2,0,0,1,2.21,3.37,73.82,73.82,0,0,0-10.22,8.14A2.06,2.06,0,0,1,922.2,845.39Zm141.8-7.92h0c-4.3,0-8.75-.26-13.61-.75a2,2,0,0,1,.41-4c4.73.48,9,.72,13.22.74a2,2,0,1,1,0,4Zm13.4-.81a2,2,0,0,1-.26-4,78.1,78.1,0,0,0,12.8-2.76,2,2,0,1,1,1.18,3.85,82.7,82.7,0,0,1-13.45,2.91Zm-40.13-1.74-.33,0c-4.83-.79-9.63-1.7-13.28-2.41a2,2,0,0,1,.76-4c3.62.71,8.4,1.61,13.17,2.39a2,2,0,0,1-.32,4Zm-92.69-4.12a2,2,0,0,1-.75-3.89A71.1,71.1,0,0,1,957.08,823a2,2,0,1,1,.76,4,67.09,67.09,0,0,0-12.5,3.65A2.06,2.06,0,0,1,944.58,830.8Zm66.26-.85a1.64,1.64,0,0,1-.38,0c-5.29-1-9.36-1.72-13.18-2.31a2,2,0,0,1,.62-4c3.87.6,8,1.32,13.32,2.34a2,2,0,0,1-.38,4Zm92.11-1.2a2,2,0,0,1-.92-3.81,78,78,0,0,0,11-7,2,2,0,1,1,2.43,3.22,81.77,81.77,0,0,1-11.63,7.35A1.94,1.94,0,0,1,1103,828.75ZM984.24,826h-.16a112.89,112.89,0,0,0-13.21-.38,2,2,0,0,1-.12-4,120.78,120.78,0,0,1,13.66.4,2,2,0,0,1-.17,4Zm422.82-6.22-.25,0a2,2,0,0,1-1.76-2.24c.53-4.4,1-8.88,1.32-13.29a2,2,0,0,1,4,.31c-.35,4.47-.8,9-1.33,13.46A2,2,0,0,1,1407.06,819.77Zm-282.68-7.06a2,2,0,0,1-1.42-.58,2,2,0,0,1,0-2.86,114.2,114.2,0,0,0,8.7-9.92,2,2,0,1,1,3.17,2.49,118.91,118.91,0,0,1-9,10.27A2,2,0,0,1,1124.38,812.71ZM1408.67,793a2,2,0,0,1-2-1.84,45.3,45.3,0,0,0-2.89-12.48,2,2,0,1,1,3.76-1.45,49.68,49.68,0,0,1,3.15,13.58,2,2,0,0,1-1.83,2.18Zm-266.9-.74a2,2,0,0,1-1.49-3.38c3-3.29,6.27-6.52,9.69-9.6a2,2,0,0,1,2.7,3c-3.33,3-6.49,6.13-9.41,9.32A2,2,0,0,1,1141.77,792.24Zm20-18a2,2,0,0,1-1.21-3.63c3.56-2.66,7.33-5.26,11.21-7.7a2,2,0,1,1,2.15,3.41c-3.79,2.39-7.47,4.92-10.94,7.52A2,2,0,0,1,1161.72,774.25Zm237.41-6a2,2,0,0,1-1.62-.81,58.14,58.14,0,0,0-8.93-9.38,2,2,0,0,1,2.61-3.08,62.44,62.44,0,0,1,9.55,10,2,2,0,0,1-.41,2.83A2,2,0,0,1,1399.13,768.27Zm-214.7-8.37a2,2,0,0,1-1-3.8c3.92-2.09,8-4.1,12.19-6a2,2,0,1,1,1.66,3.68c-4.09,1.83-8.11,3.8-11.95,5.85A2,2,0,0,1,1184.43,759.9Zm194.47-9a2,2,0,0,1-1-.28,99.6,99.6,0,0,0-11.79-5.86,2,2,0,1,1,1.56-3.71,103.09,103.09,0,0,1,12.27,6.09,2,2,0,0,1-1,3.76Zm-170-2a2,2,0,0,1-.71-3.9c4.17-1.58,8.49-3.07,12.82-4.43a2,2,0,1,1,1.21,3.85c-4.26,1.34-8.5,2.8-12.6,4.35A2,2,0,0,1,1208.93,748.85Zm25.65-8.06a2,2,0,0,1-.49-4c4.33-1.11,8.78-2.12,13.21-3a2,2,0,1,1,.79,3.95c-4.36.88-8.74,1.87-13,3A2.14,2.14,0,0,1,1234.58,740.79Zm119.64-.45a2,2,0,0,1-.59-.09c-4.09-1.23-8.42-2.34-12.85-3.27a2,2,0,0,1,.83-4c4.55,1,9,2.09,13.19,3.36a2,2,0,0,1-.58,4Zm-93.28-4.82a2,2,0,0,1-.29-4c4.46-.65,9-1.2,13.45-1.62a2,2,0,0,1,.38,4c-4.4.41-8.86,1-13.24,1.59A1.51,1.51,0,0,1,1260.94,735.52Zm67-.78a1.27,1.27,0,0,1-.28,0c-4.3-.58-8.76-1-13.25-1.36a2,2,0,0,1,.29-4c4.57.32,9.12.79,13.5,1.39a2,2,0,0,1-.26,4ZM1287.7,733a2,2,0,0,1-.09-4c4.53-.19,9.09-.26,13.56-.2a2,2,0,0,1,0,4h0c-4.4-.06-8.88,0-13.34.2Z" transform="translate(-143.94 -197.24)"/><path class="cls-10" d="M1690.58,906.93a2,2,0,0,1-.67-3.92s4.72-1.7,12.5-5a2,2,0,1,1,1.55,3.72c-7.88,3.3-12.5,5-12.69,5A2.09,2.09,0,0,1,1690.58,906.93Zm25-10.39a2,2,0,0,1-.83-3.85c4-1.83,8.12-3.74,12.16-5.7a2,2,0,0,1,1.76,3.63c-4.07,2-8.19,3.9-12.26,5.75A2,2,0,0,1,1715.55,896.54Zm24.26-11.76a2,2,0,0,1-.93-3.81c4-2.06,7.95-4.18,11.84-6.33a2,2,0,1,1,2,3.53c-3.92,2.16-7.94,4.31-11.93,6.38A2.09,2.09,0,0,1,1739.81,884.78Zm23.59-13a2,2,0,0,1-1-3.76c3.88-2.28,7.74-4.63,11.46-7a2,2,0,1,1,2.15,3.41c-3.76,2.37-7.65,4.73-11.56,7A2,2,0,0,1,1763.4,871.75Zm22.79-14.35a2,2,0,0,1-1.67-.89,2,2,0,0,1,.54-2.8c3.73-2.51,7.43-5.09,11-7.67a2,2,0,0,1,2.37,3.27c-3.6,2.6-7.33,5.21-11.1,7.74A2,2,0,0,1,1786.19,857.4ZM1808,841.61a2,2,0,0,1-1.24-3.61c3.55-2.77,7-5.61,10.38-8.44a2,2,0,0,1,2.6,3.08c-3.37,2.86-6.9,5.73-10.5,8.54A2,2,0,0,1,1808,841.61Zm20.5-17.4a2,2,0,0,1-1.48-.64,2,2,0,0,1,.11-2.85c3.32-3.07,6.54-6.2,9.58-9.3a2,2,0,1,1,2.88,2.82c-3.09,3.15-6.36,6.33-9.72,9.44A2,2,0,0,1,1828.5,824.21ZM1847.32,805a2,2,0,0,1-1.33-.51,2,2,0,0,1-.19-2.84c3-3.39,5.85-6.85,8.52-10.28a2,2,0,0,1,3.18,2.48c-2.72,3.49-5.63,7-8.67,10.46A2,2,0,0,1,1847.32,805Zm16.5-21.26a2,2,0,0,1-1.13-.35,2,2,0,0,1-.54-2.8c2.51-3.71,4.88-7.51,7-11.28a2,2,0,0,1,3.5,2c-2.21,3.86-4.63,7.74-7.2,11.54A2,2,0,0,1,1863.82,783.73Zm13.32-23.32a2,2,0,0,1-.85-.2,2,2,0,0,1-1-2.68c1.89-4,3.6-8.13,5.08-12.2a2,2,0,0,1,3.79,1.38c-1.53,4.18-3.28,8.4-5.22,12.53A2,2,0,0,1,1877.14,760.41Zm9.16-25.18a2.22,2.22,0,0,1-.51-.06,2,2,0,0,1-1.45-2.46c1.12-4.27,2-8.62,2.7-12.93a2,2,0,1,1,4,.63c-.69,4.44-1.63,8.92-2.77,13.32A2,2,0,0,1,1886.3,735.23Zm4.14-26.46h-.11a2,2,0,0,1-1.9-2.12c.13-2.38.19-4.81.19-7.21,0-2,0-4-.13-6a2,2,0,0,1,4-.18c.09,2.06.14,4.15.14,6.21,0,2.48-.07,5-.21,7.43A2,2,0,0,1,1890.44,708.77Zm-1.2-26.81a2,2,0,0,1-2-1.73c-.62-4.31-1.45-8.69-2.47-13a2,2,0,0,1,3.92-.93c1.06,4.46,1.91,9,2.54,13.39a2,2,0,0,1-1.71,2.28Zm-6.14-26.14a2,2,0,0,1-1.92-1.39c-1.34-4.12-2.89-8.32-4.6-12.47a2,2,0,0,1,3.73-1.54c1.75,4.25,3.33,8.54,4.71,12.76a2,2,0,0,1-1.3,2.54A1.91,1.91,0,0,1,1883.1,655.82ZM1872.9,631a2,2,0,0,1-1.81-1.13c-2-4-4-8-6.08-11.91a2,2,0,0,1,3.56-1.9c2.08,3.93,4.15,8,6.14,12a2,2,0,0,1-.93,2.7A2,2,0,0,1,1872.9,631Zm-12.63-23.72a2,2,0,0,1-1.75-1c-2.25-3.89-4.58-7.74-6.92-11.43a2,2,0,0,1,3.41-2.16c2.37,3.74,4.72,7.63,7,11.57a2,2,0,0,1-.73,2.75A2,2,0,0,1,1860.27,607.25Zm-14.38-22.71a2,2,0,0,1-1.66-.86c-2.56-3.7-5.21-7.33-7.85-10.79a2,2,0,1,1,3.2-2.45c2.69,3.51,5.36,7.19,8,10.94a2,2,0,0,1-.5,2.8A2,2,0,0,1,1845.89,584.54Zm-172.73-2c-.56,0-1.12,0-1.67,0a2,2,0,1,1,.19-4,42.54,42.54,0,0,0,12.69-1.56,2,2,0,0,1,1,3.9A48.2,48.2,0,0,1,1673.16,582.57ZM1659,578.46a2,2,0,0,1-1.2-.4,23.16,23.16,0,0,1-8.19-11.9,2,2,0,1,1,3.84-1.24,19.2,19.2,0,0,0,6.74,9.89,2,2,0,0,1,.43,2.82A2,2,0,0,1,1659,578.46Zm38.5-2.19a2,2,0,0,1-.85-3.85,102.76,102.76,0,0,0,11.56-6.34,2,2,0,0,1,2.16,3.41,106.84,106.84,0,0,1-12,6.59A2,2,0,0,1,1697.49,576.27Zm132.07-13.06a2,2,0,0,1-1.54-.72c-2.9-3.42-5.89-6.77-8.89-9.93a2,2,0,0,1,2.93-2.77c3,3.22,6.09,6.61,9,10.1a2,2,0,0,1-1.54,3.32ZM1720.23,562a2,2,0,0,1-1.26-3.59,124.17,124.17,0,0,0,9.87-8.81,2,2,0,1,1,2.85,2.85,126.86,126.86,0,0,1-10.2,9.11A2.08,2.08,0,0,1,1720.23,562Zm-70.49-7.69h0a2,2,0,0,1-2-2,50.63,50.63,0,0,1,2-13.8,2,2,0,0,1,3.87,1.14,46.9,46.9,0,0,0-1.89,12.7A2,2,0,0,1,1649.74,554.3Zm161.34-10.59a2,2,0,0,1-1.38-.55c-3.28-3.07-6.64-6-10-8.77a2,2,0,1,1,2.56-3.12c3.42,2.81,6.86,5.82,10.2,9a2,2,0,0,1,.09,2.85A2,2,0,0,1,1811.08,543.71Zm-71.86-.71a2,2,0,0,1-1.58-3.26,89.84,89.84,0,0,0,7.36-10.88,2,2,0,1,1,3.5,2,91.1,91.1,0,0,1-7.69,11.38A2,2,0,0,1,1739.22,543Zm-82-14.14a2,2,0,0,1-1.7-3.1,54.6,54.6,0,0,1,8.93-10.67,2,2,0,1,1,2.75,2.95,50.12,50.12,0,0,0-8.27,9.89A2,2,0,0,1,1657.25,528.86Zm133-2.16a2,2,0,0,1-1.16-.37c-3.66-2.58-7.41-5-11.14-7.21a2,2,0,0,1,2-3.48c3.83,2.27,7.67,4.75,11.42,7.4a2,2,0,0,1-1.17,3.66Zm-38.08-7.09a1.87,1.87,0,0,1-.62-.1,2,2,0,0,1-1.31-2.53,42.55,42.55,0,0,0,2.14-12.6,2,2,0,0,1,2-2h0a2,2,0,0,1,2,1.92c3.86,1.44,7.76,3.1,11.59,4.93a2,2,0,0,1-1.74,3.64c-3.34-1.6-6.72-3.06-10.09-4.35a49.68,49.68,0,0,1-2.08,9.68A2,2,0,0,1,1752.21,519.61Zm-75.54-9a2,2,0,0,1-1-3.76,71.15,71.15,0,0,1,12.59-5.68,2,2,0,1,1,1.3,3.81,67.3,67.3,0,0,0-11.87,5.36A2,2,0,0,1,1676.67,510.64Zm65.26-6.7a2,2,0,0,1-.48-.06,111.54,111.54,0,0,0-13-2.39,2,2,0,1,1,.49-4,113.37,113.37,0,0,1,13.44,2.48,2,2,0,0,1-.48,4Zm-40-2.05a2,2,0,0,1-.32-4,91.46,91.46,0,0,1,13.68-1.16h0a2,2,0,0,1,0,4,88.86,88.86,0,0,0-13.08,1.11Zm50-8.6a2,2,0,0,1-1.87-1.26,32.55,32.55,0,0,0-3.48-6.35c-1-1.49-2.18-3-3.37-4.45a2,2,0,0,1,3.12-2.55c1.25,1.54,2.45,3.11,3.55,4.68a36.42,36.42,0,0,1,3.91,7.15,2,2,0,0,1-1.1,2.63A2.06,2.06,0,0,1,1752,493.29Zm-16.44-21a2.07,2.07,0,0,1-1.36-.52,106.5,106.5,0,0,0-10.31-8.22,2,2,0,0,1,2.31-3.3,112,112,0,0,1,10.71,8.53,2,2,0,0,1-1.35,3.51Zm-184.64-9.52a2,2,0,0,1-1.47-.64,2,2,0,0,1,.1-2.85,86.13,86.13,0,0,1,9-7.29,2,2,0,1,1,2.34,3.3,81.75,81.75,0,0,0-8.54,6.94A2,2,0,0,1,1550.89,462.75Zm162.73-6a2.05,2.05,0,0,1-1-.26c-3.76-2.1-7.76-4.09-11.86-5.92a2,2,0,1,1,1.64-3.68c4.21,1.87,8.32,3.92,12.19,6.08a2,2,0,0,1-1,3.78Zm-142.47-8.07a2,2,0,0,1-.92-3.81,107.07,107.07,0,0,1,12.58-5.42,2,2,0,1,1,1.36,3.8,104.84,104.84,0,0,0-12.11,5.21A2,2,0,0,1,1571.15,448.7Zm117.95-2.89a2,2,0,0,1-.67-.11c-4.13-1.45-8.4-2.76-12.69-3.9a2,2,0,0,1,1-3.9c4.39,1.17,8.76,2.51,13,4a2,2,0,0,1-.67,3.92Zm-92.72-6.22a2,2,0,0,1-2-1.56,2,2,0,0,1,1.5-2.42,135.29,135.29,0,0,1,13.41-2.47,2,2,0,1,1,.54,4c-4.44.6-8.83,1.41-13,2.4A2,2,0,0,1,1596.38,439.59Zm66.77-.7a2.31,2.31,0,0,1-.37,0c-4.36-.82-8.78-1.49-13.15-2a2,2,0,1,1,.45-4c4.47.5,9,1.18,13.44,2a2,2,0,0,1-.37,4ZM1623,436a2,2,0,0,1-.09-4c4.48-.2,9.07-.22,13.61-.06a2,2,0,0,1,2,2.09,2,2,0,0,1-2.09,1.94c-4.43-.15-8.92-.14-13.28.06Z" transform="translate(-143.94 -197.24)"/><path class="cls-10" d="M2196,1007.38a2,2,0,0,1-1.64-3.19,94.06,94.06,0,0,0,6.86-11.23,2,2,0,0,1,3.58,1.87,98.73,98.73,0,0,1-7.16,11.71A2,2,0,0,1,2196,1007.38Zm12.46-23.76a2.1,2.1,0,0,1-.7-.12,2,2,0,0,1-1.2-2.59,105.52,105.52,0,0,0,3.79-12.63,2,2,0,1,1,3.93.92,111,111,0,0,1-3.93,13.1A2,2,0,0,1,2208.49,983.62Zm6.12-26.11h-.23a2,2,0,0,1-1.78-2.22,113,113,0,0,0,.66-12.25v-.94a2,2,0,0,1,2-2h0a2,2,0,0,1,2,2v1a118.29,118.29,0,0,1-.68,12.68A2,2,0,0,1,2214.61,957.51Zm-.19-26.83a2,2,0,0,1-2-1.78c-.51-4.29-1.26-8.68-2.22-13a2,2,0,1,1,3.93-.88,134.54,134.54,0,0,1,2.29,13.45,2,2,0,0,1-1.77,2.24Zm-5.77-26.21a2,2,0,0,1-1.92-1.41c-.57-1.77-1.18-3.57-1.82-5.36a60.75,60.75,0,0,0-3-6.83,2,2,0,1,1,3.59-1.83,62.13,62.13,0,0,1,3.16,7.3c.66,1.83,1.29,3.68,1.87,5.5a2,2,0,0,1-1.31,2.53A2.16,2.16,0,0,1,2208.65,904.47Zm-12.17-23.78a2,2,0,0,1-1.59-.77,83.65,83.65,0,0,0-8.9-9.63,2,2,0,0,1,2.75-2.95,88.25,88.25,0,0,1,9.33,10.09,2,2,0,0,1-1.59,3.26Zm-99.67-7.52h0c-4.65-.06-9.22-.3-13.59-.71a2,2,0,1,1,.38-4c4.26.4,8.72.63,13.26.69a2,2,0,0,1,0,4Zm13.44-.3a2,2,0,0,1-.12-4c4.42-.26,8.89-.67,13.27-1.22a2,2,0,1,1,.51,4c-4.48.57-9,1-13.54,1.24Zm-40.17-2.3a2.71,2.71,0,0,1-.4,0,93.41,93.41,0,0,1-13.26-3.6,2,2,0,0,1,1.37-3.8,87.93,87.93,0,0,0,12.68,3.44,2,2,0,0,1-.39,4Zm66.84-1.1a2,2,0,0,1-.39-4c4.45-.89,8.8-1.94,12.91-3.12a2,2,0,1,1,1.11,3.88c-4.22,1.21-8.67,2.28-13.23,3.19A1.75,1.75,0,0,1,2136.92,869.47Zm40-7.16a2,2,0,0,1-1.18-.38c-1.57-1.14-3.21-2.27-4.9-3.37-2.35,1.15-4.82,2.25-7.41,3.28a2,2,0,0,1-1.5-3.74q2.52-1,4.87-2.09l-2.17-1.29a2,2,0,1,1,2-3.48c1.5.87,3,1.77,4.42,2.68.94-.49,1.85-1,2.73-1.49a2,2,0,1,1,2,3.5l-.89.5c1.09.74,2.15,1.48,3.19,2.23a2,2,0,0,1-1.19,3.65ZM2045.13,861a2,2,0,0,1-1.17-.37,27.14,27.14,0,0,1-8.43-9.08c-.32-.61-.62-1.22-.88-1.82a2,2,0,1,1,3.69-1.63c.22.51.47,1,.74,1.53a23.16,23.16,0,0,0,7.21,7.71,2,2,0,0,1-1.16,3.66Zm108.66-12.3a1.9,1.9,0,0,1-.86-.2c-3.91-1.85-8-3.63-12.22-5.26a2,2,0,0,1,1.46-3.76c4.3,1.67,8.5,3.48,12.49,5.38a2,2,0,0,1-.87,3.84Zm32-.3a2,2,0,0,1-1.34-3.52,36.68,36.68,0,0,0,8-9.84A2,2,0,0,1,2196,837a40.38,40.38,0,0,1-8.82,10.95A2,2,0,0,1,2185.8,848.44ZM2128.75,839a2.2,2.2,0,0,1-.61-.09c-4.2-1.33-8.51-2.55-12.82-3.62a2,2,0,1,1,1-3.91c4.38,1.09,8.78,2.33,13.06,3.68a2,2,0,0,1-.61,3.94Zm-91.08-.57a2,2,0,0,1-1.31-.49,2,2,0,0,1-.22-2.84c2.6-3,6.83-5.41,12.57-7a2,2,0,1,1,1.11,3.88c-5,1.42-8.54,3.37-10.62,5.79A2,2,0,0,1,2037.67,838.38Zm65-5.92a2.22,2.22,0,0,1-.37,0c-4.43-.81-8.87-1.47-13.17-2a2,2,0,1,1,.46-4c4.39.5,8.91,1.17,13.44,2a2,2,0,0,1-.36,4Zm-40.17-2.72a2,2,0,0,1-.16-4,123.89,123.89,0,0,1,13.67-.27,2,2,0,0,1-.13,4,120.61,120.61,0,0,0-13.22.26Zm135-4.54h0a2,2,0,0,1-2-2v-.29a31.73,31.73,0,0,0-2.54-12,2,2,0,1,1,3.73-1.53,35.76,35.76,0,0,1,2.84,13.53v.33A2,2,0,0,1,2197.54,825.2Zm-9.34-24.72a2,2,0,0,1-1.64-.84,91.39,91.39,0,0,0-8.52-10,2,2,0,0,1,2.88-2.82,96.58,96.58,0,0,1,8.91,10.44,2,2,0,0,1-1.63,3.21Zm-18.69-19.23a2,2,0,0,1-1.25-.44,118,118,0,0,0-10.79-7.62,2,2,0,0,1,2.14-3.42,119.58,119.58,0,0,1,11.16,7.89,2,2,0,0,1-1.26,3.59ZM2146.79,767a2.07,2.07,0,0,1-.89-.21c-3.85-1.91-7.93-3.71-12.13-5.36a2,2,0,1,1,1.47-3.75c4.31,1.69,8.5,3.53,12.45,5.49a2,2,0,0,1-.9,3.83Zm-251.22-3.62a2,2,0,0,1-2-1.51,2,2,0,0,1,1.44-2.46s4.9-1.28,13.2-3.1a2,2,0,0,1,.87,3.94c-8.22,1.8-13,3-13.05,3.06A2.24,2.24,0,0,1,1895.57,763.33Zm26.3-5.81a2,2,0,0,1-.38-4c4.36-.86,8.83-1.68,13.27-2.46a2,2,0,1,1,.69,4c-4.41.78-8.85,1.6-13.19,2.45Zm199.94-.42a2,2,0,0,1-.59-.09c-4.12-1.27-8.44-2.45-12.85-3.51a2,2,0,1,1,.94-3.92c4.49,1.08,8.9,2.28,13.1,3.57a2,2,0,0,1-.6,4Zm-173.43-4.21a2,2,0,0,1-.31-4c4.45-.68,8.94-1.33,13.36-1.92a2,2,0,1,1,.53,4c-4.39.58-8.85,1.23-13.27,1.91Zm147.31-2.09a1.61,1.61,0,0,1-.37,0c-4.26-.77-8.7-1.46-13.19-2.06a2,2,0,1,1,.52-4c4.56.6,9.07,1.3,13.39,2.09a2,2,0,0,1-.35,4ZM1975,749.33a2,2,0,0,1-.22-4c4.49-.5,9-1,13.43-1.36a2,2,0,1,1,.36,4c-4.39.39-8.88.85-13.34,1.35Zm94-2.08h-.18c-4.34-.38-8.83-.7-13.34-.93a2,2,0,1,1,.2-4c4.57.23,9.11.55,13.5.94a2,2,0,0,1-.18,4Zm-67.18-.33a2,2,0,0,1-.13-4c4.52-.31,9.06-.55,13.48-.73a2,2,0,1,1,.16,4c-4.38.18-8.88.42-13.38.72Zm40.32-1.06h0c-2.47,0-5-.05-7.54-.06-1.95,0-3.9,0-5.84,0a2,2,0,0,1,0-4l6,0c2.52,0,5,0,7.51.07a2,2,0,0,1,0,4Z" transform="translate(-143.94 -197.24)"/><path class="cls-10" d="M1980.9,1189.69c-39.78,20-87.53-28.19-78.3,36.3s-83.79,64.63-149.5,56.45-57.95,70.92-124.32,80-123.11-33-123.11-33l-36.73-145.87c-4.63-18.37,9.44-36.16,28.6-36.16h491.09S2020.67,1169.69,1980.9,1189.69Z" transform="translate(-143.94 -197.24)"/><path class="cls-24" d="M1541.36,1195.66h18.11c10.7,0,18.82,6.12,20.94,15.52,2.31,10.32-4.75,15.71-14.85,15.71h-9.12l3.31,14.8h-8.06Zm22.82,23.93c6.11,0,9.14-3.42,8-8.35-1.21-5.39-5.72-8.21-11.75-8.21h-9.39l3.72,16.56Z" transform="translate(-143.94 -197.24)"/><path class="cls-24" d="M1585.19,1195.66h8.07l8.67,38.66h24.15l1.65,7.37h-32.22Z" transform="translate(-143.94 -197.24)"/><path class="cls-24" d="M1642,1195.33h7.47l30.61,46.36h-8.53l-7.15-11.12h-21.72l-2.23,11.12h-8.27Zm17.84,28.08L1647.77,1205l-3.74,18.41Z" transform="translate(-143.94 -197.24)"/><path class="cls-24" d="M1690.18,1223.54l-24.49-27.88h9.51l17.43,20.38,8.42-20.38h9.25l-12,27.68,4.12,18.35h-8.14Z" transform="translate(-143.94 -197.24)"/><path class="cls-24" d="M1720.77,1236.06a6.14,6.14,0,1,1,6.13,6.14A6.12,6.12,0,0,1,1720.77,1236.06Z" transform="translate(-143.94 -197.24)"/><circle class="cls-24" cx="1609.16" cy="1038.83" r="6.14"/><path class="cls-24" d="M1772.93,1236.06a6.14,6.14,0,1,1,6.14,6.14A6.13,6.13,0,0,1,1772.93,1236.06Z" transform="translate(-143.94 -197.24)"/></svg>